{
classes = (
{
automatic = 1;
code = "A AE AEacute Aacute Abreve Acircumflex Adieresis Agrave Amacron Aogonek Aring Aringacute Atilde B C Cacute Ccaron Ccedilla Ccircumflex Cdotaccent D Dcaron Dcroat E Eacute Ebreve Ecaron Ecircumflex Edieresis Edotaccent Egrave Emacron Eng Eogonek Eth Etilde F G G.alt Gbreve Gcircumflex Gcommaaccent Gdotaccent H Hbar Hcircumflex I IJ J Iacute Ibreve Icircumflex Idieresis Idotaccent Igrave Imacron Iogonek Itilde Jcircumflex K Kcommaaccent L Lacute Lcaron Lcommaaccent Ldot Lslash M N Nacute Ncaron Ncommaaccent Ndotaccent Ntilde O OE Oacute Obreve Ocircumflex Odieresis Ograve Ohungarumlaut Omacron Oogonek Oslash Oslashacute Otilde P Q R Racute Rcaron Rcommaaccent S Sacute Scaron Scircumflex T Tbar Tcaron Thorn U Uacute Ubreve Ucircumflex Udieresis Ugrave Uhungarumlaut Umacron Uogonek Uring Utilde V W W.alt Wacute Wcircumflex Wdieresis Wgrave X Y Yacute Ycircumflex Ydieresis Ygrave Ytilde Z Zacute Zcaron Zdotaccent uni015E uni0162 uni0218 uni021A Schwa Gacute Odotbelow uni01F1 uni01F2 uni01C7 uni01C8 uni01CA uni01CB uni01C4 uni01C5 Adblgrave Ainvertedbreve Ddotbelow Edotbelow Edblgrave Einvertedbreve Hdotbelow Idotbelow Idblgrave Iinvertedbreve Odblgrave Oinvertedbreve Rdotbelow Rdblgrave Rinvertedbreve Sdotbelow Tdotbelow Udotbelow Udblgrave Uinvertedbreve Zdotbelow Omega uni03A9 Delta uni0394 uni0402 uni0403 uni0404 uni0409 uni040A uni040B uni040C uni040D uni040E uni040F uni0411 uni0412 uni0413 uni0414 uni0416 uni0417 uni0418 uni0419 uni041A uni041B uni041C uni041D uni041F uni0423 uni0424 uni0425 uni0426 uni0427 uni0428 uni0429 uni042A uni042B uni042C uni042D uni042E uni042F uni0490 uni04B0 uni0400 uni0401 uni0415 uni0407 uni0406 uni0421 uni0410 uni041E uni0408 uni0420 uni0422 uni0405";
name = Uppercase;
}
);

glyphs = (
{
glyphname = A;
lastChange = "2014-12-11 11:43:33 +0000";
layers = (
{
anchors = (
{
name = ogonek;
position = "{600, 10}";
},
{
name = top;
position = "{338, 710}";
}
);
layerId = "5C573416-F98A-4FCE-B5D6-0256B247F272";
name = Bold;
paths = (
{
closed = 1;
nodes = (
"-2 0 LINE",
"197 0 LINE",
"239 139 LINE",
"428 139 LINE",
"471 0 LINE",
"669 0 LINE",
"423 710 LINE",
"245 710 LINE"
);
},
{
closed = 1;
nodes = (
"268 269 LINE",
"334 489 LINE",
"397 269 LINE"
);
}
);
width = 667;
}
);
leftKerningGroup = A;
rightKerningGroup = A;
unicode = 0041;
},
{
glyphname = AE;
lastChange = "2014-12-09 09:32:33 +0000";
layers = (
{
anchors = (
{
name = top;
position = "{649, 710}";
}
);
layerId = "5C573416-F98A-4FCE-B5D6-0256B247F272";
name = Bold;
paths = (
{
closed = 1;
nodes = (
"-26 0 LINE",
"180 0 LINE",
"255 139 LINE",
"456 139 LINE",
"456 0 LINE",
"941 0 LINE",
"941 170 LINE",
"650 170 LINE",
"650 276 LINE",
"878 276 LINE",
"878 446 LINE",
"650 446 LINE",
"650 540 LINE",
"932 540 LINE",
"932 710 LINE",
"405 710 LINE"
);
},
{
closed = 1;
nodes = (
"337 309 LINE",
"441 495 LINE",
"441 309 LINE"
);
}
);
width = 971;
}
);
leftKerningGroup = AE;
rightKerningGroup = AE;
unicode = 00C6;
},
{
color = 9;
glyphname = acute;
lastChange = "2015-01-02 19:34:56 +0000";
layers = (
{
anchors = (
{
name = top;
position = "{69, 526}";
}
);
layerId = "5C573416-F98A-4FCE-B5D6-0256B247F272";
name = Bold;
paths = (
{
closed = 1;
nodes = (
"279 751 LINE",
"94 751 LINE",
"8 596 LINE",
"128 596 LINE"
);
}
);
width = 284;
}
);
unicode = 00B4;
},
{
color = 9;
glyphname = breve;
lastChange = "2015-01-02 19:49:07 +0000";
layers = (
{
anchors = (
{
name = _top;
position = "{184, 526}";
}
);
layerId = "5C573416-F98A-4FCE-B5D6-0256B247F272";
name = Bold;
paths = (
{
closed = 1;
nodes = (
"148 661 OFFCURVE",
"117 702 OFFCURVE",
"117 751 CURVE",
"9 751 LINE",
"9 646 OFFCURVE",
"80 572 OFFCURVE",
"184 572 CURVE SMOOTH",
"287 572 OFFCURVE",
"359 646 OFFCURVE",
"359 751 CURVE",
"251 751 LINE",
"247 699 OFFCURVE",
"218 661 OFFCURVE",
"184 661 CURVE SMOOTH"
);
}
);
width = 368;
}
);
unicode = 02D8;
},
{
color = 9;
glyphname = circumflex;
lastChange = "2015-01-03 10:44:03 +0000";
layers = (
{
anchors = (
{
name = _top;
position = "{204, 526}";
}
);
layerId = "5C573416-F98A-4FCE-B5D6-0256B247F272";
name = Bold;
paths = (
{
closed = 1;
nodes = (
"302 751 LINE",
"106 751 LINE",
"-45 596 LINE",
"140 596 LINE",
"204 691 LINE",
"268 596 LINE",
"453 596 LINE"
);
}
);
width = 402;
}
);
unicode = 02C6;
},
{
color = 9;
glyphname = dieresis;
lastChange = "2015-01-03 10:48:15 +0000";
layers = (
{
anchors = (
{
name = _top;
position = "{283, 526}";
}
);
layerId = "5C573416-F98A-4FCE-B5D6-0256B247F272";
name = Bold;
paths = (
{
closed = 1;
nodes = (
"467 591 OFFCURVE",
"503 626 OFFCURVE",
"503 670 CURVE SMOOTH",
"503 714 OFFCURVE",
"467 750 OFFCURVE",
"423 750 CURVE SMOOTH",
"380 750 OFFCURVE",
"344 714 OFFCURVE",
"344 670 CURVE",
"344 626 OFFCURVE",
"380 591 OFFCURVE",
"423 591 CURVE SMOOTH"
);
},
{
closed = 1;
nodes = (
"185 591 OFFCURVE",
"221 626 OFFCURVE",
"221 670 CURVE SMOOTH",
"221 714 OFFCURVE",
"185 750 OFFCURVE",
"141 750 CURVE SMOOTH",
"98 750 OFFCURVE",
"62 714 OFFCURVE",
"62 670 CURVE SMOOTH",
"62 626 OFFCURVE",
"98 591 OFFCURVE",
"141 591 CURVE SMOOTH"
);
}
);
width = 566;
}
);
unicode = 00A8;
},
{
color = 9;
glyphname = grave;
lastChange = "2015-01-03 10:42:41 +0000";
layers = (
{
anchors = (
{
name = _top;
position = "{231, 526}";
}
);
layerId = "5C573416-F98A-4FCE-B5D6-0256B247F272";
name = Bold;
paths = (
{
closed = 1;
nodes = (
"279 596 LINE",
"193 751 LINE",
"8 751 LINE",
"159 596 LINE"
);
}
);
width = 284;
}
);
unicode = 0060;
},
{
glyphname = macron;
lastChange = "2014-12-09 13:17:33 +0000";
layers = (
{
anchors = (
{
name = _top;
position = "{219, 526}";
}
);
layerId = "5C573416-F98A-4FCE-B5D6-0256B247F272";
name = Bold;
paths = (
{
closed = 1;
nodes = (
"374 607 LINE",
"374 720 LINE",
"64 720 LINE",
"64 607 LINE"
);
}
);
width = 438;
}
);
unicode = 00AF;
},
{
glyphname = ogonek;
layers = (
{
layerId = "5C573416-F98A-4FCE-B5D6-0256B247F272";
name = Bold;
paths = (
{
closed = 1;
nodes = (
"261 -114 LINE",
"213 -114 OFFCURVE",
"191 -99 OFFCURVE",
"191 -77 CURVE SMOOTH",
"191 -54 OFFCURVE",
"217 -26 OFFCURVE",
"263 1 CURVE",
"207 25 LINE",
"119 -13 OFFCURVE",
"74 -66 OFFCURVE",
"74 -114 CURVE SMOOTH",
"74 -161 OFFCURVE",
"123 -202 OFFCURVE",
"226 -214 CURVE"
);
}
);
width = 332;
}
);
unicode = 02DB;
},
{
color = 9;
glyphname = ring;
lastChange = "2015-01-03 10:42:20 +0000";
layers = (
{
anchors = (
{
name = _top;
position = "{137, 526}";
}
);
layerId = "5C573416-F98A-4FCE-B5D6-0256B247F272";
name = Bold;
paths = (
{
closed = 1;
nodes = (
"6 588 OFFCURVE",
"58 556 OFFCURVE",
"137 556 CURVE SMOOTH",
"216 556 OFFCURVE",
"268 588 OFFCURVE",
"268 653 CURVE SMOOTH",
"268 718 OFFCURVE",
"216 751 OFFCURVE",
"137 751 CURVE SMOOTH",
"58 751 OFFCURVE",
"6 718 OFFCURVE",
"6 653 CURVE SMOOTH"
);
},
{
closed = 1;
nodes = (
"163 690 OFFCURVE",
"182 676 OFFCURVE",
"182 654 CURVE SMOOTH",
"182 632 OFFCURVE",
"162 616 OFFCURVE",
"137 616 CURVE SMOOTH",
"111 616 OFFCURVE",
"92 632 OFFCURVE",
"92 654 CURVE SMOOTH",
"92 676 OFFCURVE",
"111 690 OFFCURVE",
"137 690 CURVE SMOOTH"
);
}
);
width = 274;
}
);
unicode = 02DA;
},
{
color = 4;
glyphname = Aringacute;
lastChange = "2014-12-09 09:33:50 +0000";
layers = (
{
layerId = "5C573416-F98A-4FCE-B5D6-0256B247F272";
name = Bold;
paths = (
{
closed = 1;
nodes = (
"542 918 LINE",
"373 918 LINE",
"311 824 LINE",
"256 824 OFFCURVE",
"217 785 OFFCURVE",
"217 743 CURVE SMOOTH",
"217 720 OFFCURVE",
"224 702 OFFCURVE",
"237 688 CURVE",
"-2 0 LINE",
"197 0 LINE",
"239 139 LINE",
"428 139 LINE",
"471 0 LINE",
"669 0 LINE",
"430 687 LINE",
"444 701 OFFCURVE",
"451 720 OFFCURVE",
"451 743 CURVE SMOOTH",
"451 772 OFFCURVE",
"441 787 OFFCURVE",
"428 801 CURVE"
);
},
{
closed = 1;
nodes = (
"268 269 LINE",
"334 489 LINE",
"397 269 LINE"
);
},
{
closed = 1;
nodes = (
"357 776 OFFCURVE",
"374 763 OFFCURVE",
"374 744 CURVE SMOOTH",
"374 724 OFFCURVE",
"356 710 OFFCURVE",
"334 710 CURVE SMOOTH",
"311 710 OFFCURVE",
"294 724 OFFCURVE",
"294 744 CURVE SMOOTH",
"294 763 OFFCURVE",
"311 776 OFFCURVE",
"334 776 CURVE SMOOTH"
);
}
);
width = 667;
}
);
leftKerningGroup = A;
rightKerningGroup = A;
unicode = 01FA;
},
{
glyphname = tilde;
lastChange = "2014-12-09 13:17:50 +0000";
layers = (
{
anchors = (
{
name = _top;
position = "{232, 526}";
}
);
layerId = "5C573416-F98A-4FCE-B5D6-0256B247F272";
name = Bold;
paths = (
{
closed = 1;
nodes = (
"404 572 OFFCURVE",
"444 707 OFFCURVE",
"444 730 CURVE",
"344 730 LINE",
"344 727 OFFCURVE",
"338 679 OFFCURVE",
"294 679 CURVE SMOOTH",
"248 679 OFFCURVE",
"224 730 OFFCURVE",
"159 730 CURVE SMOOTH",
"59 730 OFFCURVE",
"20 607 OFFCURVE",
"20 572 CURVE",
"121 572 LINE",
"121 574 OFFCURVE",
"122 620 OFFCURVE",
"167 620 CURVE SMOOTH",
"212 620 OFFCURVE",
"240 572 OFFCURVE",
"301 572 CURVE SMOOTH"
);
}
);
width = 464;
}
);
unicode = 02DC;
},
{
glyphname = B;
layers = (
{
layerId = "5C573416-F98A-4FCE-B5D6-0256B247F272";
name = Bold;
paths = (
{
closed = 1;
nodes = (
"665 281 OFFCURVE",
"614 340 OFFCURVE",
"533 364 CURVE",
"601 394 OFFCURVE",
"635 462 OFFCURVE",
"635 528 CURVE SMOOTH",
"635 618 OFFCURVE",
"573 710 OFFCURVE",
"473 710 CURVE SMOOTH",
"61 710 LINE",
"61 0 LINE",
"410 0 LINE SMOOTH",
"550 0 OFFCURVE",
"665 54 OFFCURVE",
"665 182 CURVE SMOOTH"
);
},
{
closed = 1;
nodes = (
"467 185 OFFCURVE",
"442 164 OFFCURVE",
"410 164 CURVE SMOOTH",
"256 164 LINE",
"256 283 LINE",
"417 283 LINE SMOOTH",
"446 283 OFFCURVE",
"467 257 OFFCURVE",
"467 222 CURVE SMOOTH"
);
},
{
closed = 1;
nodes = (
"395 544 LINE SMOOTH",
"420 544 OFFCURVE",
"442 529 OFFCURVE",
"442 490 CURVE SMOOTH",
"442 446 OFFCURVE",
"415 435 OFFCURVE",
"389 435 CURVE SMOOTH",
"256 435 LINE",
"256 544 LINE"
);
}
);
width = 690;
}
);
leftKerningGroup = B;
rightKerningGroup = B;
unicode = 0042;
},
{
glyphname = C;
lastChange = "2014-12-09 09:34:00 +0000";
layers = (
{
anchors = (
{
name = bottom;
position = "{346, 0}";
},
{
name = top;
position = "{385, 714}";
}
);
layerId = "5C573416-F98A-4FCE-B5D6-0256B247F272";
name = Bold;
paths = (
{
closed = 1;
nodes = (
"22 179 OFFCURVE",
"169 -6 OFFCURVE",
"379 -6 CURVE SMOOTH",
"500 -6 OFFCURVE",
"641 54 OFFCURVE",
"683 159 CURVE",
"524 254 LINE",
"500 190 OFFCURVE",
"436 167 OFFCURVE",
"383 167 CURVE SMOOTH",
"281 167 OFFCURVE",
"220 256 OFFCURVE",
"220 355 CURVE SMOOTH",
"220 444 OFFCURVE",
"269 541 OFFCURVE",
"381 541 CURVE SMOOTH",
"434 541 OFFCURVE",
"500 522 OFFCURVE",
"527 453 CURVE",
"676 559 LINE",
"627 652 OFFCURVE",
"521 714 OFFCURVE",
"385 714 CURVE SMOOTH",
"157 714 OFFCURVE",
"22 534 OFFCURVE",
"22 361 CURVE SMOOTH"
);
}
);
width = 691;
}
);
leftKerningGroup = C;
rightKerningGroup = C;
unicode = 0043;
},
{
color = 9;
glyphname = caron;
lastChange = "2015-01-03 10:43:52 +0000";
layers = (
{
anchors = (
{
name = _top;
position = "{204, 526}";
}
);
layerId = "5C573416-F98A-4FCE-B5D6-0256B247F272";
name = Bold;
paths = (
{
closed = 1;
nodes = (
"268 751 LINE",
"204 656 LINE",
"140 751 LINE",
"-45 751 LINE",
"106 596 LINE",
"302 596 LINE",
"453 751 LINE"
);
}
);
width = 402;
}
);
unicode = 02C7;
},
{
glyphname = cedilla;
lastChange = "2015-01-03 11:07:11 +0000";
layers = (
{
anchors = (
{
name = _bottom;
position = "{153, 0}";
}
);
layerId = "5C573416-F98A-4FCE-B5D6-0256B247F272";
name = Bold;
paths = (
{
closed = 1;
nodes = (
"20 -192 LINE",
"47 -203 OFFCURVE",
"85 -213 OFFCURVE",
"133 -213 CURVE SMOOTH",
"238 -213 OFFCURVE",
"285 -166 OFFCURVE",
"285 -110 CURVE SMOOTH",
"285 -54 OFFCURVE",
"239 -32 OFFCURVE",
"191 -32 CURVE SMOOTH",
"181 -32 OFFCURVE",
"172 -33 OFFCURVE",
"164 -34 CURVE",
"200 17 LINE",
"131 36 LINE",
"67 -96 LINE",
"82 -93 OFFCURVE",
"118 -87 OFFCURVE",
"146 -87 CURVE SMOOTH",
"179 -87 OFFCURVE",
"201 -95 OFFCURVE",
"201 -117 CURVE SMOOTH",
"201 -140 OFFCURVE",
"176 -148 OFFCURVE",
"145 -148 CURVE SMOOTH",
"109 -148 OFFCURVE",
"69 -137 OFFCURVE",
"55 -128 CURVE"
);
}
);
width = 362;
}
);
unicode = 00B8;
},
{
color = 4;
glyphname = dotaccent;
lastChange = "2015-01-03 10:58:36 +0000";
layers = (
{
anchors = (
{
name = _top;
position = "{135, 526}";
}
);
layerId = "5C573416-F98A-4FCE-B5D6-0256B247F272";
name = Bold;
paths = (
{
closed = 1;
nodes = (
"186 563 OFFCURVE",
"228 605 OFFCURVE",
"228 657 CURVE SMOOTH",
"228 708 OFFCURVE",
"186 751 OFFCURVE",
"134 751 CURVE SMOOTH",
"83 751 OFFCURVE",
"41 708 OFFCURVE",
"41 657 CURVE SMOOTH",
"41 605 OFFCURVE",
"83 563 OFFCURVE",
"134 563 CURVE SMOOTH"
);
}
);
width = 270;
}
);
unicode = 02D9;
},
{
glyphname = D;
lastChange = "2014-12-09 11:04:09 +0000";
layers = (
{
anchors = (
{
name = bottom;
position = "{334, 1}";
},
{
name = center;
position = "{358, 355}";
},
{
name = top;
position = "{334, 710}";
}
);
layerId = "5C573416-F98A-4FCE-B5D6-0256B247F272";
name = Bold;
paths = (
{
closed = 1;
nodes = (
"334 0 LINE SMOOTH",
"550 0 OFFCURVE",
"692 141 OFFCURVE",
"692 356 CURVE SMOOTH",
"692 552 OFFCURVE",
"570 710 OFFCURVE",
"334 710 CURVE SMOOTH",
"61 710 LINE",
"61 0 LINE"
);
},
{
closed = 1;
nodes = (
"494 249 OFFCURVE",
"436 170 OFFCURVE",
"334 170 CURVE SMOOTH",
"256 170 LINE",
"256 540 LINE",
"334 540 LINE SMOOTH",
"434 540 OFFCURVE",
"494 466 OFFCURVE",
"494 356 CURVE SMOOTH"
);
}
);
width = 716;
}
);
leftKerningGroup = B;
rightKerningGroup = D;
unicode = 0044;
},
{
glyphname = Dcroat;
layers = (
{
layerId = "5C573416-F98A-4FCE-B5D6-0256B247F272";
name = Bold;
paths = (
{
closed = 1;
nodes = (
"338 0 LINE SMOOTH",
"554 0 OFFCURVE",
"696 141 OFFCURVE",
"696 356 CURVE SMOOTH",
"696 552 OFFCURVE",
"574 710 OFFCURVE",
"338 710 CURVE SMOOTH",
"65 710 LINE",
"65 427 LINE",
"28 427 LINE",
"28 287 LINE",
"65 287 LINE",
"65 0 LINE"
);
},
{
closed = 1;
nodes = (
"498 249 OFFCURVE",
"440 170 OFFCURVE",
"338 170 CURVE SMOOTH",
"260 170 LINE",
"260 287 LINE",
"374 287 LINE",
"374 427 LINE",
"260 427 LINE",
"260 540 LINE",
"338 540 LINE SMOOTH",
"438 540 OFFCURVE",
"498 466 OFFCURVE",
"498 356 CURVE SMOOTH"
);
}
);
width = 720;
}
);
leftKerningGroup = B;
rightKerningGroup = D;
unicode = 0110;
},
{
glyphname = E;
lastChange = "2014-12-09 09:34:11 +0000";
layers = (
{
anchors = (
{
name = bottom;
position = "{299, 0}";
},
{
name = ogonek;
position = "{537, 10}";
},
{
name = top;
position = "{304, 710}";
}
);
layerId = "5C573416-F98A-4FCE-B5D6-0256B247F272";
name = Bold;
paths = (
{
closed = 1;
nodes = (
"256 170 LINE",
"256 282 LINE",
"514 282 LINE",
"514 440 LINE",
"256 440 LINE",
"256 540 LINE",
"558 540 LINE",
"558 710 LINE",
"61 710 LINE",
"61 0 LINE",
"567 0 LINE",
"567 170 LINE"
);
}
);
width = 597;
}
);
leftKerningGroup = B;
rightKerningGroup = AE;
unicode = 0045;
},
{
glyphname = Eng;
layers = (
{
layerId = "5C573416-F98A-4FCE-B5D6-0256B247F272";
name = Bold;
paths = (
{
closed = 1;
nodes = (
"483 44 LINE",
"483 -3 LINE SMOOTH",
"483 -30 OFFCURVE",
"468 -46 OFFCURVE",
"443 -46 CURVE SMOOTH",
"425 -46 OFFCURVE",
"407 -38 OFFCURVE",
"396 -26 CURVE",
"318 -155 LINE",
"359 -190 OFFCURVE",
"412 -209 OFFCURVE",
"467 -209 CURVE SMOOTH",
"584 -209 OFFCURVE",
"673 -125 OFFCURVE",
"673 5 CURVE SMOOTH",
"673 709 LINE",
"478 709 LINE",
"478 359 LINE",
"211 710 LINE",
"61 710 LINE",
"61 0 LINE",
"256 0 LINE",
"256 343 LINE"
);
}
);
width = 735;
}
);
leftKerningGroup = B;
rightKerningGroup = Eng;
unicode = 014A;
},
{
glyphname = Eth;
layers = (
{
layerId = "5C573416-F98A-4FCE-B5D6-0256B247F272";
name = Bold;
paths = (
{
closed = 1;
nodes = (
"338 0 LINE SMOOTH",
"554 0 OFFCURVE",
"696 141 OFFCURVE",
"696 356 CURVE SMOOTH",
"696 552 OFFCURVE",
"574 710 OFFCURVE",
"338 710 CURVE SMOOTH",
"65 710 LINE",
"65 427 LINE",
"28 427 LINE",
"28 287 LINE",
"65 287 LINE",
"65 0 LINE"
);
},
{
closed = 1;
nodes = (
"498 249 OFFCURVE",
"440 170 OFFCURVE",
"338 170 CURVE SMOOTH",
"260 170 LINE",
"260 287 LINE",
"374 287 LINE",
"374 427 LINE",
"260 427 LINE",
"260 540 LINE",
"338 540 LINE SMOOTH",
"438 540 OFFCURVE",
"498 466 OFFCURVE",
"498 356 CURVE SMOOTH"
);
}
);
width = 720;
}
);
leftKerningGroup = B;
rightKerningGroup = D;
unicode = 00D0;
},
{
glyphname = Euro;
layers = (
{
layerId = "5C573416-F98A-4FCE-B5D6-0256B247F272";
name = Bold;
paths = (
{
closed = 1;
nodes = (
"74 464 LINE",
"34 364 LINE",
"102 364 LINE",
"102 347 OFFCURVE",
"103 334 OFFCURVE",
"104 321 CURVE",
"74 321 LINE",
"34 221 LINE",
"131 221 LINE",
"183 95 OFFCURVE",
"304 -6 OFFCURVE",
"459 -6 CURVE SMOOTH",
"580 -6 OFFCURVE",
"721 54 OFFCURVE",
"763 159 CURVE",
"604 254 LINE",
"580 190 OFFCURVE",
"516 167 OFFCURVE",
"463 167 CURVE SMOOTH",
"413 167 OFFCURVE",
"374 188 OFFCURVE",
"346 221 CURVE",
"439 221 LINE",
"479 321 LINE",
"302 321 LINE",
"301 332 OFFCURVE",
"300 343 OFFCURVE",
"300 364 CURVE",
"467 364 LINE",
"507 464 LINE",
"327 464 LINE",
"352 508 OFFCURVE",
"396 541 OFFCURVE",
"461 541 CURVE SMOOTH",
"514 541 OFFCURVE",
"580 522 OFFCURVE",
"607 453 CURVE",
"756 559 LINE",
"707 652 OFFCURVE",
"601 714 OFFCURVE",
"465 714 CURVE SMOOTH",
"282 714 OFFCURVE",
"160 598 OFFCURVE",
"118 464 CURVE"
);
}
);
width = 802;
}
);
unicode = 20AC;
},
{
glyphname = F;
layers = (
{
layerId = "5C573416-F98A-4FCE-B5D6-0256B247F272";
name = Bold;
paths = (
{
closed = 1;
nodes = (
"256 0 LINE",
"256 264 LINE",
"494 264 LINE",
"494 422 LINE",
"256 422 LINE",
"256 540 LINE",
"548 540 LINE",
"548 710 LINE",
"61 710 LINE",
"61 0 LINE"
);
}
);
width = 563;
}
);
leftKerningGroup = B;
rightKerningGroup = F;
unicode = 0046;
},
{
color = 6;
glyphname = G;
lastChange = "2015-01-03 11:01:37 +0000";
layers = (
{
anchors = (
{
name = bottom;
position = "{404, -5}";
},
{
name = top;
position = "{390, 710}";
}
);
guideLines = (
{
angle = 90;
position = "{377, 544}";
}
);
layerId = "5C573416-F98A-4FCE-B5D6-0256B247F272";
name = Bold;
paths = (
{
closed = 1;
nodes = (
"594 -5 OFFCURVE",
"739 128 OFFCURVE",
"739 357 CURVE SMOOTH",
"739 398 LINE",
"443 398 LINE",
"443 257 LINE",
"539 257 LINE",
"523 204 OFFCURVE",
"474 168 OFFCURVE",
"379 168 CURVE SMOOTH",
"272 168 OFFCURVE",
"216 263 OFFCURVE",
"216 356 CURVE SMOOTH",
"216 458 OFFCURVE",
"271 542 OFFCURVE",
"378 542 CURVE SMOOTH",
"467 542 OFFCURVE",
"495 503 OFFCURVE",
"539 464 CURVE",
"686 568 LINE",
"633 650 OFFCURVE",
"532 715 OFFCURVE",
"390 715 CURVE SMOOTH",
"159 715 OFFCURVE",
"18 551 OFFCURVE",
"18 361 CURVE SMOOTH",
"18 161 OFFCURVE",
"149 -5 OFFCURVE",
"384 -5 CURVE SMOOTH"
);
}
);
width = 760;
}
);
leftKerningGroup = C;
rightKerningGroup = G.alt;
unicode = 0047;
},
{
glyphname = G.alt;
layers = (
{
anchors = (
{
name = bottom;
position = "{370, 0}";
},
{
name = top;
position = "{377, 710}";
}
);
layerId = "5C573416-F98A-4FCE-B5D6-0256B247F272";
name = Bold;
paths = (
{
closed = 1;
nodes = (
"543 0 LINE",
"704 0 LINE",
"704 378 LINE",
"412 378 LINE",
"412 238 LINE",
"535 238 LINE",
"492 192 OFFCURVE",
"440 168 OFFCURVE",
"385 168 CURVE SMOOTH",
"287 168 OFFCURVE",
"221 243 OFFCURVE",
"221 354 CURVE SMOOTH",
"221 464 OFFCURVE",
"287 542 OFFCURVE",
"380 542 CURVE SMOOTH",
"442 542 OFFCURVE",
"504 505 OFFCURVE",
"532 449 CURVE",
"677 560 LINE",
"626 656 OFFCURVE",
"515 715 OFFCURVE",
"387 715 CURVE SMOOTH",
"182 715 OFFCURVE",
"23 560 OFFCURVE",
"23 361 CURVE SMOOTH",
"23 130 OFFCURVE",
"183 -5 OFFCURVE",
"368 -5 CURVE SMOOTH",
"435 -5 OFFCURVE",
"491 15 OFFCURVE",
"543 59 CURVE"
);
}
);
width = 739;
}
);
leftKerningGroup = C;
rightKerningGroup = G;
},
{
color = 4;
glyphname = commaaccent;
lastChange = "2014-12-09 11:22:47 +0000";
layers = (
{
anchors = (
{
name = _bottom;
position = "{158, 0}";
}
);
guideLines = (
{
position = "{151, -46}";
}
);
layerId = "5C573416-F98A-4FCE-B5D6-0256B247F272";
name = Bold;
paths = (
{
closed = 1;
nodes = (
"129 -212 LINE",
"26 -212 LINE SMOOTH",
"81 -46 LINE",
"216 -46 LINE"
);
}
);
width = 241;
}
);
unicode = F6C3;
},
{
glyphname = H;
lastChange = "2014-12-09 11:13:55 +0000";
layers = (
{
anchors = (
{
name = bottom;
position = "{378, 0}";
},
{
name = center;
position = "{375, 355}";
},
{
name = top;
position = "{375, 710}";
}
);
layerId = "5C573416-F98A-4FCE-B5D6-0256B247F272";
name = Bold;
paths = (
{
closed = 1;
nodes = (
"494 710 LINE",
"494 448 LINE",
"256 448 LINE",
"256 710 LINE",
"61 710 LINE",
"61 0 LINE",
"256 0 LINE",
"256 278 LINE",
"494 278 LINE",
"494 0 LINE",
"689 0 LINE",
"689 710 LINE"
);
}
);
width = 750;
}
);
leftKerningGroup = B;
rightKerningGroup = Eng;
unicode = 0048;
},
{
glyphname = Hbar;
layers = (
{
layerId = "5C573416-F98A-4FCE-B5D6-0256B247F272";
name = Bold;
paths = (
{
closed = 1;
nodes = (
"497 710 LINE",
"497 626 LINE",
"259 626 LINE",
"259 710 LINE",
"64 710 LINE",
"64 626 LINE",
"14 626 LINE",
"14 538 LINE",
"64 538 LINE",
"64 0 LINE",
"259 0 LINE",
"259 278 LINE",
"497 278 LINE",
"497 0 LINE",
"692 0 LINE",
"692 538 LINE",
"742 538 LINE",
"742 626 LINE",
"692 626 LINE",
"692 710 LINE"
);
},
{
closed = 1;
nodes = (
"259 448 LINE",
"259 538 LINE",
"497 538 LINE",
"497 448 LINE"
);
}
);
width = 756;
}
);
leftKerningGroup = B;
rightKerningGroup = Eng;
unicode = 0126;
},
{
glyphname = I;
lastChange = "2014-12-09 09:34:25 +0000";
layers = (
{
anchors = (
{
name = ogonek;
position = "{285, 10}";
},
{
name = top;
position = "{164, 710}";
}
);
layerId = "5C573416-F98A-4FCE-B5D6-0256B247F272";
name = Bold;
paths = (
{
closed = 1;
nodes = (
"256 0 LINE",
"256 710 LINE",
"61 710 LINE",
"61 0 LINE"
);
}
);
width = 317;
}
);
leftKerningGroup = B;
rightKerningGroup = Eng;
unicode = 0049;
},
{
color = 4;
glyphname = J;
lastChange = "2015-01-03 11:12:45 +0000";
layers = (
{
anchors = (
{
name = top;
position = "{456, 710}";
}
);
layerId = "5C573416-F98A-4FCE-B5D6-0256B247F272";
name = Bold;
paths = (
{
closed = 1;
nodes = (
"193 204 OFFCURVE",
"213 170 OFFCURVE",
"277 170 CURVE",
"326 170 OFFCURVE",
"365 208 OFFCURVE",
"365 287 CURVE",
"365 710 LINE",
"559 710 LINE",
"559 264 LINE SMOOTH",
"555 81 OFFCURVE",
"423 -10 OFFCURVE",
"273 -10 CURVE",
"144 -10 OFFCURVE",
"33 78 OFFCURVE",
"9 203 CURVE",
"170 272 LINE"
);
}
);
width = 570;
}
);
leftKerningGroup = J;
rightKerningGroup = IJ;
unicode = 004A;
},
{
glyphname = K;
lastChange = "2014-12-09 11:23:02 +0000";
layers = (
{
anchors = (
{
name = bottom;
position = "{361, 0}";
},
{
name = top;
position = "{345, 710}";
}
);
layerId = "5C573416-F98A-4FCE-B5D6-0256B247F272";
name = Bold;
paths = (
{
closed = 1;
nodes = (
"256 0 LINE",
"256 205 LINE",
"310 261 LINE",
"486 0 LINE",
"710 0 LINE",
"434 392 LINE",
"692 710 LINE",
"472 710 LINE",
"256 440 LINE",
"256 710 LINE",
"61 710 LINE",
"61 0 LINE"
);
}
);
width = 690;
}
);
leftKerningGroup = B;
rightKerningGroup = K;
unicode = 004B;
},
{
glyphname = L;
lastChange = "2014-12-09 11:27:48 +0000";
layers = (
{
anchors = (
{
name = bottom;
position = "{332, 0}";
},
{
name = middleright;
position = "{253, 349}";
},
{
name = top;
position = "{164, 710}";
},
{
name = topright;
position = "{248, 505}";
}
);
layerId = "5C573416-F98A-4FCE-B5D6-0256B247F272";
name = Bold;
paths = (
{
closed = 1;
nodes = (
"578 0 LINE",
"578 170 LINE",
"256 170 LINE",
"256 710 LINE",
"61 710 LINE",
"61 0 LINE"
);
}
);
width = 585;
}
);
leftKerningGroup = B;
rightKerningGroup = L;
unicode = 004C;
},
{
color = 4;
glyphname = periodcentered;
lastChange = "2014-12-09 11:27:12 +0000";
layers = (
{
anchors = (
{
name = middleright;
position = "{3, 283}";
}
);
layerId = "5C573416-F98A-4FCE-B5D6-0256B247F272";
name = Bold;
paths = (
{
closed = 1;
nodes = (
"186 229 OFFCURVE",
"232 274 OFFCURVE",
"232 328 CURVE SMOOTH",
"232 381 OFFCURVE",
"186 427 OFFCURVE",
"132 427 CURVE SMOOTH",
"79 427 OFFCURVE",
"34 381 OFFCURVE",
"34 328 CURVE SMOOTH",
"34 274 OFFCURVE",
"79 229 OFFCURVE",
"132 229 CURVE SMOOTH"
);
}
);
width = 254;
}
);
leftKerningGroup = periodcentered;
rightKerningGroup = periodcentered;
unicode = 00B7;
},
{
glyphname = Lslash;
lastChange = "2014-12-09 14:07:11 +0000";
layers = (
{
components = (
{
name = L;
transform = "{1, 0, 0, 1, 0, 0}";
}
);
layerId = "5C573416-F98A-4FCE-B5D6-0256B247F272";
name = Bold;
paths = (
{
closed = 1;
nodes = (
"-26 348 LINE",
"24 252 LINE",
"387 429 LINE",
"339 527 LINE"
);
}
);
width = 585;
}
);
leftKerningGroup = B;
rightKerningGroup = L;
unicode = 0141;
},
{
glyphname = M;
layers = (
{
layerId = "5C573416-F98A-4FCE-B5D6-0256B247F272";
name = Bold;
paths = (
{
closed = 1;
nodes = (
"793 0 LINE",
"793 710 LINE",
"581 710 LINE",
"427 376 LINE",
"274 710 LINE",
"61 710 LINE",
"61 0 LINE",
"256 0 LINE",
"256 374 LINE",
"375 111 LINE",
"479 111 LINE",
"598 374 LINE",
"598 0 LINE"
);
}
);
width = 854;
}
);
leftKerningGroup = B;
rightKerningGroup = Eng;
unicode = 004D;
},
{
glyphname = N;
lastChange = "2014-12-09 11:23:30 +0000";
layers = (
{
anchors = (
{
name = bottom;
position = "{397, 0}";
},
{
name = top;
position = "{369, 710}";
}
);
layerId = "5C573416-F98A-4FCE-B5D6-0256B247F272";
name = Bold;
paths = (
{
closed = 1;
nodes = (
"538 0 LINE",
"693 0 LINE",
"693 710 LINE",
"498 710 LINE",
"498 349 LINE",
"213 710 LINE",
"61 710 LINE",
"61 0 LINE",
"256 0 LINE",
"256 349 LINE"
);
}
);
width = 754;
}
);
leftKerningGroup = B;
rightKerningGroup = Eng;
unicode = 004E;
},
{
glyphname = O;
lastChange = "2014-12-09 09:35:40 +0000";
layers = (
{
anchors = (
{
name = top;
position = "{383, 710}";
}
);
layerId = "5C573416-F98A-4FCE-B5D6-0256B247F272";
name = Bold;
paths = (
{
closed = 1;
nodes = (
"593 -6 OFFCURVE",
"743 166 OFFCURVE",
"743 352 CURVE SMOOTH",
"743 533 OFFCURVE",
"601 714 OFFCURVE",
"385 714 CURVE SMOOTH",
"174 714 OFFCURVE",
"22 544 OFFCURVE",
"22 356 CURVE SMOOTH",
"22 173 OFFCURVE",
"166 -6 OFFCURVE",
"381 -6 CURVE SMOOTH"
);
},
{
closed = 1;
nodes = (
"220 447 OFFCURVE",
"270 541 OFFCURVE",
"382 541 CURVE SMOOTH",
"492 541 OFFCURVE",
"545 452 OFFCURVE",
"545 356 CURVE SMOOTH",
"545 263 OFFCURVE",
"496 167 OFFCURVE",
"383 167 CURVE SMOOTH",
"272 167 OFFCURVE",
"220 259 OFFCURVE",
"220 354 CURVE SMOOTH"
);
}
);
width = 765;
}
);
leftKerningGroup = C;
rightKerningGroup = O;
unicode = 004F;
},
{
glyphname = OE;
layers = (
{
layerId = "5C573416-F98A-4FCE-B5D6-0256B247F272";
name = Bold;
paths = (
{
closed = 1;
nodes = (
"709 170 LINE",
"709 276 LINE",
"937 276 LINE",
"937 446 LINE",
"709 446 LINE",
"709 540 LINE",
"991 540 LINE",
"991 710 LINE",
"514 710 LINE",
"514 670 LINE",
"470 698 OFFCURVE",
"420 715 OFFCURVE",
"365 715 CURVE SMOOTH",
"166 715 OFFCURVE",
"22 544 OFFCURVE",
"22 356 CURVE SMOOTH",
"22 173 OFFCURVE",
"158 -5 OFFCURVE",
"361 -5 CURVE SMOOTH",
"417 -5 OFFCURVE",
"469 13 OFFCURVE",
"514 41 CURVE",
"514 0 LINE",
"1000 0 LINE",
"1000 170 LINE"
);
},
{
closed = 1;
nodes = (
"266 168 OFFCURVE",
"220 259 OFFCURVE",
"220 354 CURVE SMOOTH",
"220 447 OFFCURVE",
"264 542 OFFCURVE",
"362 542 CURVE SMOOTH",
"458 542 OFFCURVE",
"505 452 OFFCURVE",
"505 356 CURVE SMOOTH",
"505 263 OFFCURVE",
"462 168 OFFCURVE",
"363 168 CURVE SMOOTH"
);
}
);
width = 1030;
}
);
leftKerningGroup = C;
rightKerningGroup = AE;
unicode = 0152;
},
{
color = 9;
glyphname = hungarumlaut;
lastChange = "2015-01-03 10:41:29 +0000";
layers = (
{
anchors = (
{
name = _top;
position = "{172, 526}";
}
);
layerId = "5C573416-F98A-4FCE-B5D6-0256B247F272";
name = Bold;
paths = (
{
closed = 1;
nodes = (
"491 751 LINE",
"306 751 LINE",
"220 596 LINE",
"340 596 LINE"
);
},
{
closed = 1;
nodes = (
"269 751 LINE",
"84 751 LINE",
"-2 596 LINE",
"118 596 LINE"
);
}
);
width = 399;
}
);
unicode = 02DD;
},
{
glyphname = Oslash;
lastChange = "2014-12-09 09:35:52 +0000";
layers = (
{
anchors = (
{
name = top;
position = "{382, 710}";
}
);
layerId = "5C573416-F98A-4FCE-B5D6-0256B247F272";
name = Bold;
paths = (
{
closed = 1;
nodes = (
"535 710 LINE",
"519 688 LINE",
"478 704 OFFCURVE",
"433 714 OFFCURVE",
"384 714 CURVE SMOOTH",
"173 714 OFFCURVE",
"21 544 OFFCURVE",
"21 356 CURVE SMOOTH",
"21 270 OFFCURVE",
"52 186 OFFCURVE",
"107 120 CURVE",
"20 0 LINE",
"229 0 LINE",
"243 20 LINE",
"284 3 OFFCURVE",
"330 -6 OFFCURVE",
"380 -6 CURVE SMOOTH",
"592 -6 OFFCURVE",
"742 166 OFFCURVE",
"742 352 CURVE SMOOTH",
"742 436 OFFCURVE",
"710 521 OFFCURVE",
"655 587 CURVE",
"745 710 LINE"
);
},
{
closed = 1;
nodes = (
"219 447 OFFCURVE",
"269 541 OFFCURVE",
"381 541 CURVE SMOOTH",
"391 541 OFFCURVE",
"401 540 OFFCURVE",
"411 538 CURVE",
"228 287 LINE",
"222 308 OFFCURVE",
"219 331 OFFCURVE",
"219 354 CURVE SMOOTH"
);
},
{
closed = 1;
nodes = (
"544 263 OFFCURVE",
"495 167 OFFCURVE",
"382 167 CURVE SMOOTH",
"371 167 OFFCURVE",
"361 168 OFFCURVE",
"352 169 CURVE",
"535 421 LINE",
"541 401 OFFCURVE",
"544 378 OFFCURVE",
"544 356 CURVE SMOOTH"
);
}
);
width = 763;
}
);
leftKerningGroup = C;
rightKerningGroup = O;
unicode = 00D8;
},
{
color = 6;
glyphname = slash;
lastChange = "2015-01-03 11:04:53 +0000";
layers = (
{
layerId = "5C573416-F98A-4FCE-B5D6-0256B247F272";
name = Bold;
paths = (
{
closed = 1;
nodes = (
"325 745 LINE",
"6 0 LINE",
"178 -63 LINE",
"496 684 LINE"
);
}
);
width = 500;
}
);
leftKerningGroup = slash;
rightKerningGroup = slash;
unicode = 002F;
},
{
glyphname = P;
layers = (
{
layerId = "5C573416-F98A-4FCE-B5D6-0256B247F272";
name = Bold;
paths = (
{
closed = 1;
nodes = (
"256 0 LINE",
"256 218 LINE",
"372 218 LINE SMOOTH",
"512 218 OFFCURVE",
"606 338 OFFCURVE",
"606 464 CURVE SMOOTH",
"606 585 OFFCURVE",
"506 710 OFFCURVE",
"367 710 CURVE SMOOTH",
"61 710 LINE",
"61 0 LINE"
);
},
{
closed = 1;
nodes = (
"256 540 LINE",
"354 540 LINE SMOOTH",
"378 540 OFFCURVE",
"408 523 OFFCURVE",
"408 464 CURVE SMOOTH",
"408 407 OFFCURVE",
"383 388 OFFCURVE",
"359 388 CURVE SMOOTH",
"256 388 LINE"
);
}
);
width = 623;
}
);
leftKerningGroup = B;
rightKerningGroup = P;
unicode = 0050;
},
{
color = 6;
glyphname = Q;
lastChange = "2015-01-03 10:47:42 +0000";
layers = (
{
layerId = "5C573416-F98A-4FCE-B5D6-0256B247F272";
name = Bold;
paths = (
{
closed = 1;
nodes = (
"622 -46 LINE",
"732 30 LINE",
"653 117 LINE",
"710 181 OFFCURVE",
"743 265 OFFCURVE",
"743 352 CURVE SMOOTH",
"743 533 OFFCURVE",
"601 715 OFFCURVE",
"385 715 CURVE SMOOTH",
"174 715 OFFCURVE",
"22 544 OFFCURVE",
"22 356 CURVE SMOOTH",
"22 173 OFFCURVE",
"166 -5 OFFCURVE",
"381 -5 CURVE SMOOTH",
"442 -5 OFFCURVE",
"498 9 OFFCURVE",
"547 34 CURVE"
);
},
{
closed = 1;
nodes = (
"272 168 OFFCURVE",
"220 259 OFFCURVE",
"220 354 CURVE SMOOTH",
"220 447 OFFCURVE",
"270 542 OFFCURVE",
"382 542 CURVE SMOOTH",
"492 542 OFFCURVE",
"545 452 OFFCURVE",
"545 356 CURVE SMOOTH",
"545 322 OFFCURVE",
"538 287 OFFCURVE",
"524 257 CURVE",
"468 319 LINE",
"361 237 LINE",
"420 172 LINE",
"409 169 OFFCURVE",
"396 168 OFFCURVE",
"383 168 CURVE SMOOTH"
);
}
);
width = 765;
}
);
leftKerningGroup = C;
rightKerningGroup = O;
unicode = 0051;
},
{
glyphname = R;
lastChange = "2014-12-09 11:23:49 +0000";
layers = (
{
anchors = (
{
name = bottom;
position = "{360, 0}";
},
{
name = top;
position = "{319, 710}";
}
);
layerId = "5C573416-F98A-4FCE-B5D6-0256B247F272";
name = Bold;
paths = (
{
closed = 1;
nodes = (
"256 0 LINE",
"256 218 LINE",
"329 218 LINE",
"454 0 LINE",
"674 0 LINE",
"524 261 LINE",
"588 306 OFFCURVE",
"626 382 OFFCURVE",
"626 464 CURVE SMOOTH",
"626 585 OFFCURVE",
"526 710 OFFCURVE",
"387 710 CURVE SMOOTH",
"61 710 LINE",
"61 0 LINE"
);
},
{
closed = 1;
nodes = (
"256 540 LINE",
"374 540 LINE SMOOTH",
"398 540 OFFCURVE",
"428 513 OFFCURVE",
"428 464 CURVE SMOOTH",
"428 416 OFFCURVE",
"403 388 OFFCURVE",
"379 388 CURVE SMOOTH",
"256 388 LINE"
);
}
);
width = 675;
}
);
leftKerningGroup = B;
rightKerningGroup = R;
unicode = 0052;
},
{
glyphname = S;
lastChange = "2014-12-09 09:36:36 +0000";
layers = (
{
anchors = (
{
name = bottom;
position = "{309, 0}";
},
{
name = top;
position = "{309, 710}";
}
);
layerId = "5C573416-F98A-4FCE-B5D6-0256B247F272";
name = Bold;
paths = (
{
closed = 1;
nodes = (
"575 639 LINE",
"511 671 OFFCURVE",
"412 716 OFFCURVE",
"309 716 CURVE SMOOTH",
"169 716 OFFCURVE",
"44 633 OFFCURVE",
"44 476 CURVE SMOOTH",
"44 372 OFFCURVE",
"99 319 OFFCURVE",
"224 277 CURVE SMOOTH",
"309 248 OFFCURVE",
"382 239 OFFCURVE",
"382 198 CURVE SMOOTH",
"382 179 OFFCURVE",
"367 167 OFFCURVE",
"325 167 CURVE SMOOTH",
"216 167 OFFCURVE",
"97 245 OFFCURVE",
"97 245 CURVE",
"13 74 LINE",
"98 24 OFFCURVE",
"219 -9 OFFCURVE",
"322 -9 CURVE SMOOTH",
"454 -9 OFFCURVE",
"592 46 OFFCURVE",
"592 217 CURVE SMOOTH",
"592 350 OFFCURVE",
"509 396 OFFCURVE",
"378 437 CURVE SMOOTH",
"296 463 OFFCURVE",
"246 471 OFFCURVE",
"246 508 CURVE SMOOTH",
"246 533 OFFCURVE",
"269 543 OFFCURVE",
"303 543 CURVE SMOOTH",
"388 543 OFFCURVE",
"491 478 OFFCURVE",
"491 478 CURVE"
);
}
);
width = 617;
}
);
leftKerningGroup = S;
rightKerningGroup = S;
unicode = 0053;
},
{
glyphname = T;
lastChange = "2014-12-09 10:42:37 +0000";
layers = (
{
anchors = (
{
name = bottom;
position = "{312, 0}";
},
{
name = center;
position = "{312, 355}";
},
{
name = top;
position = "{312, 710}";
}
);
layerId = "5C573416-F98A-4FCE-B5D6-0256B247F272";
name = Bold;
paths = (
{
closed = 1;
nodes = (
"614 710 LINE",
"10 710 LINE",
"10 540 LINE",
"215 540 LINE",
"215 0 LINE",
"410 0 LINE",
"410 540 LINE",
"614 540 LINE"
);
}
);
width = 624;
}
);
leftKerningGroup = T;
rightKerningGroup = T;
unicode = 0054;
},
{
glyphname = Tbar;
layers = (
{
layerId = "5C573416-F98A-4FCE-B5D6-0256B247F272";
name = Bold;
paths = (
{
closed = 1;
nodes = (
"625 710 LINE",
"21 710 LINE",
"21 540 LINE",
"226 540 LINE",
"226 356 LINE",
"61 356 LINE",
"61 268 LINE",
"226 268 LINE",
"226 0 LINE",
"421 0 LINE",
"421 268 LINE",
"585 268 LINE",
"585 356 LINE",
"421 356 LINE",
"421 540 LINE",
"625 540 LINE"
);
}
);
width = 646;
}
);
leftKerningGroup = T;
rightKerningGroup = T;
unicode = 0166;
},
{
glyphname = Thorn;
layers = (
{
layerId = "5C573416-F98A-4FCE-B5D6-0256B247F272";
name = Bold;
paths = (
{
closed = 1;
nodes = (
"256 592 LINE",
"256 710 LINE",
"61 710 LINE",
"61 0 LINE",
"256 0 LINE",
"256 101 LINE",
"357 101 LINE SMOOTH",
"497 101 OFFCURVE",
"591 220 OFFCURVE",
"591 347 CURVE SMOOTH",
"591 468 OFFCURVE",
"491 592 OFFCURVE",
"352 592 CURVE SMOOTH"
);
},
{
closed = 1;
nodes = (
"256 271 LINE",
"256 422 LINE",
"342 422 LINE SMOOTH",
"367 422 OFFCURVE",
"396 396 OFFCURVE",
"396 347 CURVE SMOOTH",
"396 300 OFFCURVE",
"372 271 OFFCURVE",
"347 271 CURVE SMOOTH"
);
}
);
width = 605;
}
);
leftKerningGroup = B;
rightKerningGroup = Thorn;
unicode = 00DE;
},
{
glyphname = U;
lastChange = "2014-12-09 09:36:46 +0000";
layers = (
{
anchors = (
{
name = ogonek;
position = "{669, 10}";
},
{
name = top;
position = "{372, 710}";
}
);
layerId = "5C573416-F98A-4FCE-B5D6-0256B247F272";
name = Bold;
paths = (
{
closed = 1;
nodes = (
"281 167 OFFCURVE",
"246 251 OFFCURVE",
"246 345 CURVE SMOOTH",
"246 710 LINE",
"51 710 LINE",
"51 345 LINE SMOOTH",
"51 157 OFFCURVE",
"144 -6 OFFCURVE",
"371 -6 CURVE SMOOTH",
"591 -6 OFFCURVE",
"692 147 OFFCURVE",
"692 345 CURVE SMOOTH",
"692 710 LINE",
"497 710 LINE",
"497 345 LINE SMOOTH",
"497 253 OFFCURVE",
"463 167 OFFCURVE",
"371 167 CURVE SMOOTH"
);
}
);
width = 743;
}
);
leftKerningGroup = U;
rightKerningGroup = U;
unicode = 0055;
},
{
glyphname = V;
layers = (
{
layerId = "5C573416-F98A-4FCE-B5D6-0256B247F272";
name = Bold;
paths = (
{
closed = 1;
nodes = (
"-8 710 LINE",
"256 0 LINE",
"418 0 LINE",
"679 710 LINE",
"474 710 LINE",
"337 245 LINE",
"198 710 LINE"
);
}
);
width = 672;
}
);
leftKerningGroup = V;
rightKerningGroup = V;
unicode = 0056;
},
{
glyphname = W;
lastChange = "2015-01-02 19:47:30 +0000";
layers = (
{
anchors = (
{
name = top;
position = "{575, 710}";
}
);
layerId = "5C573416-F98A-4FCE-B5D6-0256B247F272";
name = Bold;
paths = (
{
closed = 1;
nodes = (
"927 711 LINE",
"809 296 LINE",
"680 710 LINE",
"468 710 LINE",
"340 295 LINE",
"221 710 LINE",
"0 710 LINE",
"219 0 LINE",
"421 0 LINE",
"574 391 LINE",
"728 1 LINE",
"930 1 LINE",
"1149 711 LINE"
);
}
);
width = 1149;
}
);
leftKerningGroup = W.alt;
rightKerningGroup = W.alt;
unicode = 0057;
},
{
glyphname = W.alt;
layers = (
{
anchors = (
{
name = top;
position = "{575, 710}";
}
);
layerId = "5C573416-F98A-4FCE-B5D6-0256B247F272";
name = Bold;
paths = (
{
closed = 1;
nodes = (
"446 371 LINE",
"397 223 LINE",
"243 710 LINE",
"32 710 LINE",
"310 0 LINE",
"472 0 LINE",
"572 254 LINE",
"673 0 LINE",
"835 0 LINE",
"1113 710 LINE",
"901 710 LINE",
"748 223 LINE",
"697 371 LINE",
"814 710 LINE",
"635 710 LINE",
"572 491 LINE",
"510 710 LINE",
"331 710 LINE"
);
}
);
width = 1149;
}
);
leftKerningGroup = W.alt;
rightKerningGroup = W.alt;
},
{
glyphname = X;
layers = (
{
layerId = "5C573416-F98A-4FCE-B5D6-0256B247F272";
name = Bold;
paths = (
{
closed = 1;
nodes = (
"-11 710 LINE",
"226 350 LINE",
"-3 0 LINE",
"208 0 LINE",
"329 214 LINE",
"450 0 LINE",
"660 0 LINE",
"431 350 LINE",
"668 710 LINE",
"458 710 LINE",
"329 486 LINE",
"200 710 LINE"
);
}
);
width = 657;
}
);
leftKerningGroup = X;
rightKerningGroup = X;
unicode = 0058;
},
{
glyphname = Y;
lastChange = "2014-12-11 11:43:34 +0000";
layers = (
{
anchors = (
{
name = top;
position = "{333, 710}";
}
);
layerId = "5C573416-F98A-4FCE-B5D6-0256B247F272";
name = Bold;
paths = (
{
closed = 1;
nodes = (
"-6 710 LINE",
"235 237 LINE",
"235 0 LINE",
"429 0 LINE",
"429 235 LINE",
"674 710 LINE",
"462 710 LINE",
"332 403 LINE",
"205 710 LINE"
);
}
);
width = 666;
}
);
leftKerningGroup = Y;
rightKerningGroup = Y;
unicode = 0059;
},
{
glyphname = Z;
lastChange = "2014-12-09 09:38:30 +0000";
layers = (
{
anchors = (
{
name = top;
position = "{311, 710}";
}
);
layerId = "5C573416-F98A-4FCE-B5D6-0256B247F272";
name = Bold;
paths = (
{
closed = 1;
nodes = (
"27 0 LINE",
"590 0 LINE",
"590 170 LINE",
"272 170 LINE",
"584 565 LINE",
"584 710 LINE",
"42 710 LINE",
"42 540 LINE",
"359 540 LINE",
"27 145 LINE"
);
}
);
width = 622;
}
);
leftKerningGroup = Z;
rightKerningGroup = Z;
unicode = 005A;
},
{
color = 4;
glyphname = a;
lastChange = "2014-12-08 15:55:35 +0000";
layers = (
{
anchors = (
{
name = ogonek;
position = "{526, 10}";
},
{
name = top;
position = "{292, 526}";
}
);
layerId = "5C573416-F98A-4FCE-B5D6-0256B247F272";
name = Bold;
paths = (
{
closed = 1;
nodes = (
"542 0 LINE",
"542 312 LINE SMOOTH",
"542 460 OFFCURVE",
"447 536 OFFCURVE",
"280 536 CURVE SMOOTH",
"190 536 OFFCURVE",
"113 514 OFFCURVE",
"43 469 CURVE",
"98 351 LINE",
"154 388 OFFCURVE",
"202 408 OFFCURVE",
"261 408 CURVE SMOOTH",
"325 408 OFFCURVE",
"352 384 OFFCURVE",
"352 335 CURVE SMOOTH",
"352 319 LINE",
"325 332 OFFCURVE",
"287 339 OFFCURVE",
"246 339 CURVE SMOOTH",
"113 339 OFFCURVE",
"19 265 OFFCURVE",
"19 159 CURVE SMOOTH",
"19 62 OFFCURVE",
"98 -10 OFFCURVE",
"203 -10 CURVE SMOOTH",
"272 -10 OFFCURVE",
"325 16 OFFCURVE",
"359 65 CURVE",
"359 0 LINE"
);
},
{
closed = 1;
nodes = (
"309 134 OFFCURVE",
"283 126 OFFCURVE",
"260 126 CURVE SMOOTH",
"224 126 OFFCURVE",
"198 147 OFFCURVE",
"198 176 CURVE SMOOTH",
"198 210 OFFCURVE",
"233 236 OFFCURVE",
"279 236 CURVE SMOOTH",
"300 236 OFFCURVE",
"330 230 OFFCURVE",
"352 222 CURVE",
"352 183 LINE SMOOTH",
"352 170 OFFCURVE",
"342 156 OFFCURVE",
"327 146 CURVE SMOOTH"
);
}
);
width = 584;
}
);
leftKerningGroup = a;
rightKerningGroup = a.alt2;
unicode = 0061;
},
{
glyphname = a.alt;
layers = (
{
layerId = "5C573416-F98A-4FCE-B5D6-0256B247F272";
name = Bold;
paths = (
{
closed = 1;
nodes = (
"337 -10 OFFCURVE",
"380 16 OFFCURVE",
"410 69 CURVE",
"410 0 LINE",
"599 0 LINE",
"599 518 LINE",
"409 518 LINE",
"409 448 LINE",
"379 503 OFFCURVE",
"319 536 OFFCURVE",
"249 536 CURVE SMOOTH",
"116 536 OFFCURVE",
"20 419 OFFCURVE",
"20 264 CURVE SMOOTH",
"20 103 OFFCURVE",
"123 -10 OFFCURVE",
"268 -10 CURVE SMOOTH"
);
},
{
closed = 1;
nodes = (
"410 204 LINE",
"385 168 OFFCURVE",
"357 150 OFFCURVE",
"319 150 CURVE SMOOTH",
"259 150 OFFCURVE",
"216 194 OFFCURVE",
"216 260 CURVE SMOOTH",
"216 323 OFFCURVE",
"257 376 OFFCURVE",
"311 376 CURVE SMOOTH",
"351 376 OFFCURVE",
"391 346 OFFCURVE",
"410 298 CURVE"
);
}
);
width = 647;
}
);
leftKerningGroup = a.alt;
rightKerningGroup = a.alt;
},
{
glyphname = a.alt2;
layers = (
{
layerId = "5C573416-F98A-4FCE-B5D6-0256B247F272";
name = Bold;
paths = (
{
closed = 1;
nodes = (
"272 -10 OFFCURVE",
"335 22 OFFCURVE",
"382 82 CURVE",
"386 63 LINE SMOOTH",
"396 15 OFFCURVE",
"430 -10 OFFCURVE",
"498 -10 CURVE SMOOTH",
"519 -10 OFFCURVE",
"547 -7 OFFCURVE",
"578 0 CURVE",
"578 160 LINE",
"551 162 OFFCURVE",
"542 174 OFFCURVE",
"542 210 CURVE SMOOTH",
"542 312 LINE SMOOTH",
"542 460 OFFCURVE",
"447 536 OFFCURVE",
"280 536 CURVE SMOOTH",
"190 536 OFFCURVE",
"113 514 OFFCURVE",
"43 469 CURVE",
"98 351 LINE",
"154 388 OFFCURVE",
"202 408 OFFCURVE",
"261 408 CURVE SMOOTH",
"325 408 OFFCURVE",
"352 384 OFFCURVE",
"352 335 CURVE SMOOTH",
"352 319 LINE",
"325 332 OFFCURVE",
"287 339 OFFCURVE",
"246 339 CURVE SMOOTH",
"113 339 OFFCURVE",
"19 265 OFFCURVE",
"19 159 CURVE SMOOTH",
"19 62 OFFCURVE",
"98 -10 OFFCURVE",
"203 -10 CURVE SMOOTH"
);
},
{
closed = 1;
nodes = (
"224 126 OFFCURVE",
"198 147 OFFCURVE",
"198 176 CURVE SMOOTH",
"198 210 OFFCURVE",
"233 236 OFFCURVE",
"279 236 CURVE SMOOTH",
"300 236 OFFCURVE",
"330 230 OFFCURVE",
"352 222 CURVE",
"352 183 LINE SMOOTH",
"352 170 OFFCURVE",
"342 156 OFFCURVE",
"327 146 CURVE SMOOTH",
"309 134 OFFCURVE",
"283 126 OFFCURVE",
"260 126 CURVE SMOOTH"
);
}
);
width = 599;
}
);
leftKerningGroup = a;
rightKerningGroup = a;
},
{
glyphname = ae;
lastChange = "2014-12-09 09:39:08 +0000";
layers = (
{
anchors = (
{
name = top;
position = "{471, 526}";
}
);
layerId = "5C573416-F98A-4FCE-B5D6-0256B247F272";
name = Bold;
paths = (
{
closed = 1;
nodes = (
"270 -10 OFFCURVE",
"356 20 OFFCURVE",
"407 92 CURVE",
"455 31 OFFCURVE",
"534 -10 OFFCURVE",
"640 -10 CURVE SMOOTH",
"768 -10 OFFCURVE",
"859 49 OFFCURVE",
"902 133 CURVE",
"741 179 LINE",
"729 146 OFFCURVE",
"687 126 OFFCURVE",
"646 126 CURVE SMOOTH",
"602 126 OFFCURVE",
"558 149 OFFCURVE",
"554 205 CURVE",
"923 205 LINE",
"926 221 OFFCURVE",
"928 243 OFFCURVE",
"928 263 CURVE SMOOTH",
"928 408 OFFCURVE",
"828 536 OFFCURVE",
"640 536 CURVE SMOOTH",
"568 536 OFFCURVE",
"510 517 OFFCURVE",
"465 486 CURVE",
"420 519 OFFCURVE",
"358 536 OFFCURVE",
"280 536 CURVE SMOOTH",
"190 536 OFFCURVE",
"113 514 OFFCURVE",
"43 469 CURVE",
"98 351 LINE",
"154 388 OFFCURVE",
"202 408 OFFCURVE",
"261 408 CURVE SMOOTH",
"325 408 OFFCURVE",
"351 384 OFFCURVE",
"352 335 CURVE SMOOTH",
"352 319 LINE",
"325 332 OFFCURVE",
"287 339 OFFCURVE",
"246 339 CURVE SMOOTH",
"113 339 OFFCURVE",
"19 265 OFFCURVE",
"19 159 CURVE SMOOTH",
"19 62 OFFCURVE",
"98 -10 OFFCURVE",
"203 -10 CURVE SMOOTH"
);
},
{
closed = 1;
nodes = (
"224 126 OFFCURVE",
"198 147 OFFCURVE",
"198 176 CURVE SMOOTH",
"198 210 OFFCURVE",
"233 236 OFFCURVE",
"279 236 CURVE SMOOTH",
"300 236 OFFCURVE",
"330 230 OFFCURVE",
"352 222 CURVE",
"352 183 LINE SMOOTH",
"352 170 OFFCURVE",
"342 156 OFFCURVE",
"327 146 CURVE SMOOTH",
"309 134 OFFCURVE",
"283 126 OFFCURVE",
"260 126 CURVE SMOOTH"
);
},
{
closed = 1;
nodes = (
"550 319 LINE",
"556 370 OFFCURVE",
"589 401 OFFCURVE",
"637 401 CURVE SMOOTH",
"685 401 OFFCURVE",
"718 370 OFFCURVE",
"724 319 CURVE"
);
}
);
width = 942;
}
);
leftKerningGroup = a;
rightKerningGroup = ae;
unicode = 00E6;
},
{
glyphname = ampersand;
layers = (
{
layerId = "5C573416-F98A-4FCE-B5D6-0256B247F272";
name = Bold;
paths = (
{
closed = 1;
nodes = (
"755 0 LINE",
"596 167 LINE",
"635 232 OFFCURVE",
"659 314 OFFCURVE",
"660 416 CURVE",
"507 416 LINE",
"507 366 OFFCURVE",
"498 322 OFFCURVE",
"484 285 CURVE",
"402 372 LINE",
"457 420 OFFCURVE",
"494 477 OFFCURVE",
"494 548 CURVE SMOOTH",
"494 670 OFFCURVE",
"388 719 OFFCURVE",
"285 719 CURVE SMOOTH",
"166 719 OFFCURVE",
"77 652 OFFCURVE",
"77 536 CURVE SMOOTH",
"77 487 OFFCURVE",
"93 451 OFFCURVE",
"135 399 CURVE",
"81 355 OFFCURVE",
"35 297 OFFCURVE",
"35 216 CURVE SMOOTH",
"35 106 OFFCURVE",
"120 -10 OFFCURVE",
"285 -10 CURVE SMOOTH",
"347 -10 OFFCURVE",
"411 6 OFFCURVE",
"468 40 CURVE",
"506 0 LINE"
);
},
{
closed = 1;
nodes = (
"240 138 OFFCURVE",
"217 188 OFFCURVE",
"217 216 CURVE SMOOTH",
"217 236 OFFCURVE",
"229 254 OFFCURVE",
"251 272 CURVE",
"364 151 LINE",
"344 142 OFFCURVE",
"324 138 OFFCURVE",
"305 138 CURVE SMOOTH"
);
},
{
closed = 1;
nodes = (
"249 565 OFFCURVE",
"262 581 OFFCURVE",
"285 581 CURVE SMOOTH",
"306 581 OFFCURVE",
"320 568 OFFCURVE",
"320 546 CURVE SMOOTH",
"320 525 OFFCURVE",
"309 513 OFFCURVE",
"282 495 CURVE",
"258 518 OFFCURVE",
"249 527 OFFCURVE",
"249 544 CURVE SMOOTH"
);
}
);
width = 749;
}
);
leftKerningGroup = ampersand;
rightKerningGroup = ampersand;
unicode = 0026;
},
{
color = 4;
glyphname = apostrophe;
lastChange = "2014-12-08 16:28:01 +0000";
layers = (
{
layerId = "5C573416-F98A-4FCE-B5D6-0256B247F272";
name = Bold;
paths = (
{
closed = 1;
nodes = (
"233 565 LINE",
"130 565 LINE SMOOTH",
"185 731 LINE",
"320 731 LINE"
);
}
);
width = 518;
}
);
leftKerningGroup = apostrophe;
unicode = 02BC;
},
{
color = 4;
glyphname = aringacute;
lastChange = "2014-12-09 09:39:51 +0000";
layers = (
{
components = (
{
name = a;
transform = "{1, 0, 0, 1, 0, 0}";
},
{
name = ring;
transform = "{1, 0, 0, 1, 160, 0}";
}
);
layerId = "5C573416-F98A-4FCE-B5D6-0256B247F272";
name = Bold;
paths = (
{
closed = 1;
nodes = (
"496 901 LINE",
"327 901 LINE",
"231 752 LINE",
"351 752 LINE"
);
}
);
width = 584;
}
);
leftKerningGroup = a;
rightKerningGroup = a;
unicode = 01FB;
},
{
glyphname = asciicircum;
layers = (
{
layerId = "5C573416-F98A-4FCE-B5D6-0256B247F272";
name = Bold;
paths = (
{
closed = 1;
nodes = (
"187 303 LINE",
"313 556 LINE",
"436 303 LINE",
"589 303 LINE",
"392 710 LINE",
"234 710 LINE",
"36 303 LINE"
);
}
);
width = 625;
}
);
unicode = 005E;
},
{
glyphname = asciitilde;
layers = (
{
layerId = "5C573416-F98A-4FCE-B5D6-0256B247F272";
name = Bold;
paths = (
{
closed = 1;
nodes = (
"146 216 LINE",
"146 218 OFFCURVE",
"148 264 OFFCURVE",
"210 264 CURVE SMOOTH",
"274 264 OFFCURVE",
"322 216 OFFCURVE",
"399 216 CURVE SMOOTH",
"529 216 OFFCURVE",
"569 353 OFFCURVE",
"569 374 CURVE",
"469 374 LINE",
"469 370 OFFCURVE",
"460 323 OFFCURVE",
"400 323 CURVE SMOOTH",
"337 323 OFFCURVE",
"292 374 OFFCURVE",
"211 374 CURVE SMOOTH",
"84 374 OFFCURVE",
"45 249 OFFCURVE",
"45 216 CURVE"
);
}
);
width = 610;
}
);
unicode = 007E;
},
{
glyphname = asterisk;
layers = (
{
layerId = "5C573416-F98A-4FCE-B5D6-0256B247F272";
name = Bold;
paths = (
{
closed = 1;
nodes = (
"134 454 LINE",
"182 537 LINE",
"230 454 LINE",
"299 499 LINE",
"250 577 LINE",
"322 598 LINE",
"298 675 LINE",
"223 639 LINE",
"230 721 LINE",
"134 721 LINE",
"141 639 LINE",
"66 675 LINE",
"42 598 LINE",
"114 577 LINE",
"65 499 LINE"
);
}
);
width = 364;
}
);
leftKerningGroup = asterisk;
rightKerningGroup = asterisk;
unicode = 002A;
},
{
glyphname = at;
layers = (
{
layerId = "5C573416-F98A-4FCE-B5D6-0256B247F272";
name = Bold;
paths = (
{
closed = 1;
nodes = (
"220 603 OFFCURVE",
"37 476 OFFCURVE",
"37 231 CURVE SMOOTH",
"37 0 OFFCURVE",
"200 -146 OFFCURVE",
"400 -146 CURVE SMOOTH",
"460 -146 OFFCURVE",
"524 -133 OFFCURVE",
"581 -106 CURVE",
"561 -38 LINE",
"511 -57 OFFCURVE",
"472 -76 OFFCURVE",
"403 -76 CURVE SMOOTH",
"217 -76 OFFCURVE",
"111 61 OFFCURVE",
"111 229 CURVE SMOOTH",
"111 405 OFFCURVE",
"226 533 OFFCURVE",
"419 533 CURVE SMOOTH",
"613 533 OFFCURVE",
"734 404 OFFCURVE",
"734 225 CURVE SMOOTH",
"734 182 OFFCURVE",
"727 64 OFFCURVE",
"664 64 CURVE SMOOTH",
"617 64 OFFCURVE",
"615 129 OFFCURVE",
"615 188 CURVE SMOOTH",
"615 255 LINE SMOOTH",
"615 342 OFFCURVE",
"611 468 OFFCURVE",
"418 468 CURVE SMOOTH",
"352 468 OFFCURVE",
"291 453 OFFCURVE",
"240 419 CURVE",
"272 322 LINE",
"299 347 OFFCURVE",
"343 363 OFFCURVE",
"399 363 CURVE SMOOTH",
"483 363 OFFCURVE",
"505 326 OFFCURVE",
"505 272 CURVE",
"487 281 OFFCURVE",
"453 292 OFFCURVE",
"403 292 CURVE SMOOTH",
"310 292 OFFCURVE",
"217 254 OFFCURVE",
"217 138 CURVE SMOOTH",
"217 51 OFFCURVE",
"270 -6 OFFCURVE",
"372 -6 CURVE SMOOTH",
"434 -6 OFFCURVE",
"496 15 OFFCURVE",
"541 57 CURVE",
"546 27 OFFCURVE",
"570 -16 OFFCURVE",
"645 -16 CURVE SMOOTH",
"799 -16 OFFCURVE",
"807 166 OFFCURVE",
"807 221 CURVE SMOOTH",
"807 487 OFFCURVE",
"621 603 OFFCURVE",
"425 603 CURVE SMOOTH"
);
},
{
closed = 1;
nodes = (
"439 86 OFFCURVE",
"403 83 OFFCURVE",
"385 83 CURVE SMOOTH",
"344 83 OFFCURVE",
"326 101 OFFCURVE",
"326 139 CURVE SMOOTH",
"326 185 OFFCURVE",
"350 208 OFFCURVE",
"405 208 CURVE SMOOTH",
"443 208 OFFCURVE",
"484 197 OFFCURVE",
"504 189 CURVE",
"504 148 LINE SMOOTH",
"504 126 OFFCURVE",
"482 109 OFFCURVE",
"465 100 CURVE SMOOTH"
);
}
);
width = 852;
}
);
leftKerningGroup = at;
rightKerningGroup = at;
unicode = 0040;
},
{
glyphname = b;
layers = (
{
layerId = "5C573416-F98A-4FCE-B5D6-0256B247F272";
name = Bold;
paths = (
{
closed = 1;
nodes = (
"523 -10 OFFCURVE",
"627 105 OFFCURVE",
"627 261 CURVE SMOOTH",
"627 419 OFFCURVE",
"531 536 OFFCURVE",
"402 536 CURVE SMOOTH",
"326 536 OFFCURVE",
"268 505 OFFCURVE",
"238 448 CURVE",
"238 730 LINE",
"48 730 LINE",
"48 0 LINE",
"213 0 LINE",
"213 82 LINE",
"246 22 OFFCURVE",
"304 -10 OFFCURVE",
"383 -10 CURVE SMOOTH"
);
},
{
closed = 1;
nodes = (
"292 150 OFFCURVE",
"263 168 OFFCURVE",
"238 204 CURVE",
"238 298 LINE",
"256 344 OFFCURVE",
"296 376 OFFCURVE",
"336 376 CURVE SMOOTH",
"391 376 OFFCURVE",
"432 324 OFFCURVE",
"432 260 CURVE SMOOTH",
"432 194 OFFCURVE",
"390 150 OFFCURVE",
"328 150 CURVE SMOOTH"
);
}
);
width = 647;
}
);
leftKerningGroup = b;
rightKerningGroup = b;
unicode = 0062;
},
{
color = 6;
glyphname = backslash;
lastChange = "2015-01-03 11:05:12 +0000";
layers = (
{
layerId = "5C573416-F98A-4FCE-B5D6-0256B247F272";
name = Bold;
paths = (
{
closed = 1;
nodes = (
"324 -63 LINE",
"496 0 LINE",
"177 745 LINE",
"6 684 LINE"
);
}
);
width = 500;
}
);
leftKerningGroup = backslash;
rightKerningGroup = backslash;
unicode = 005C;
},
{
glyphname = bar;
layers = (
{
layerId = "5C573416-F98A-4FCE-B5D6-0256B247F272";
name = Bold;
paths = (
{
closed = 1;
nodes = (
"236 -130 LINE",
"236 775 LINE",
"76 775 LINE",
"76 -130 LINE"
);
}
);
width = 312;
}
);
unicode = 007C;
},
{
glyphname = braceleft;
layers = (
{
layerId = "5C573416-F98A-4FCE-B5D6-0256B247F272";
name = Bold;
paths = (
{
closed = 1;
nodes = (
"320 590 LINE",
"320 740 LINE",
"118 740 LINE SMOOTH",
"110 740 OFFCURVE",
"95 734 OFFCURVE",
"95 710 CURVE SMOOTH",
"95 501 LINE SMOOTH",
"95 464 OFFCURVE",
"63 426 OFFCURVE",
"35 426 CURVE",
"35 296 LINE",
"63 290 OFFCURVE",
"95 261 OFFCURVE",
"95 219 CURVE SMOOTH",
"95 -1 LINE SMOOTH",
"95 -26 OFFCURVE",
"110 -31 OFFCURVE",
"118 -31 CURVE SMOOTH",
"320 -31 LINE",
"320 119 LINE",
"265 119 LINE",
"265 284 LINE SMOOTH",
"265 320 OFFCURVE",
"244 342 OFFCURVE",
"224 360 CURVE",
"245 379 OFFCURVE",
"265 399 OFFCURVE",
"265 436 CURVE SMOOTH",
"265 590 LINE"
);
}
);
width = 374;
}
);
rightKerningGroup = braceleft;
unicode = 007B;
},
{
glyphname = braceright;
layers = (
{
layerId = "5C573416-F98A-4FCE-B5D6-0256B247F272";
name = Bold;
paths = (
{
closed = 1;
nodes = (
"109 590 LINE",
"109 436 LINE SMOOTH",
"109 399 OFFCURVE",
"129 379 OFFCURVE",
"150 360 CURVE",
"130 342 OFFCURVE",
"109 320 OFFCURVE",
"109 284 CURVE SMOOTH",
"109 119 LINE",
"54 119 LINE",
"54 -31 LINE",
"256 -31 LINE SMOOTH",
"264 -31 OFFCURVE",
"279 -26 OFFCURVE",
"279 -1 CURVE SMOOTH",
"279 219 LINE SMOOTH",
"279 261 OFFCURVE",
"311 290 OFFCURVE",
"339 296 CURVE",
"339 426 LINE",
"311 426 OFFCURVE",
"279 464 OFFCURVE",
"279 501 CURVE SMOOTH",
"279 710 LINE SMOOTH",
"279 734 OFFCURVE",
"264 740 OFFCURVE",
"256 740 CURVE SMOOTH",
"54 740 LINE",
"54 590 LINE"
);
}
);
width = 374;
}
);
leftKerningGroup = braceright;
unicode = 007D;
},
{
glyphname = bracketleft;
layers = (
{
layerId = "5C573416-F98A-4FCE-B5D6-0256B247F272";
name = Bold;
paths = (
{
closed = 1;
nodes = (
"324 -40 LINE",
"324 110 LINE",
"254 110 LINE",
"254 590 LINE",
"324 590 LINE",
"324 740 LINE",
"79 740 LINE",
"79 -40 LINE"
);
}
);
width = 371;
}
);
rightKerningGroup = bracketleft;
unicode = 005B;
},
{
glyphname = bracketright;
layers = (
{
layerId = "5C573416-F98A-4FCE-B5D6-0256B247F272";
name = Bold;
paths = (
{
closed = 1;
nodes = (
"292 -40 LINE",
"292 740 LINE",
"47 740 LINE",
"47 590 LINE",
"117 590 LINE",
"117 110 LINE",
"47 110 LINE",
"47 -40 LINE"
);
}
);
width = 371;
}
);
leftKerningGroup = bracketright;
unicode = 005D;
},
{
glyphname = brokenbar;
layers = (
{
layerId = "5C573416-F98A-4FCE-B5D6-0256B247F272";
name = Bold;
paths = (
{
closed = 1;
nodes = (
"78 254 LINE",
"78 -130 LINE",
"238 -130 LINE",
"238 254 LINE"
);
},
{
closed = 1;
nodes = (
"78 775 LINE",
"78 391 LINE",
"238 391 LINE",
"238 775 LINE"
);
}
);
width = 316;
}
);
unicode = 00A6;
},
{
color = 4;
glyphname = bullet;
lastChange = "2014-12-08 16:17:55 +0000";
layers = (
{
layerId = "5C573416-F98A-4FCE-B5D6-0256B247F272";
name = Bold;
paths = (
{
closed = 1;
nodes = (
"307 420 OFFCURVE",
"253 475 OFFCURVE",
"185 475 CURVE SMOOTH",
"118 475 OFFCURVE",
"63 420 OFFCURVE",
"63 353 CURVE SMOOTH",
"63 285 OFFCURVE",
"118 231 OFFCURVE",
"185 231 CURVE SMOOTH",
"253 231 OFFCURVE",
"307 285 OFFCURVE",
"307 353 CURVE SMOOTH"
);
}
);
width = 371;
}
);
unicode = 2022;
},
{
glyphname = c;
lastChange = "2014-12-09 09:40:07 +0000";
layers = (
{
anchors = (
{
name = bottom;
position = "{289, 0}";
},
{
name = top;
position = "{301, 526}";
}
);
layerId = "5C573416-F98A-4FCE-B5D6-0256B247F272";
name = Bold;
paths = (
{
closed = 1;
nodes = (
"19 119 OFFCURVE",
"122 -10 OFFCURVE",
"308 -10 CURVE SMOOTH",
"435 -10 OFFCURVE",
"522 49 OFFCURVE",
"565 133 CURVE",
"380 189 LINE",
"363 164 OFFCURVE",
"338 150 OFFCURVE",
"307 150 CURVE SMOOTH",
"255 150 OFFCURVE",
"214 192 OFFCURVE",
"214 263 CURVE SMOOTH",
"214 334 OFFCURVE",
"255 376 OFFCURVE",
"307 376 CURVE SMOOTH",
"338 376 OFFCURVE",
"363 362 OFFCURVE",
"380 337 CURVE",
"565 393 LINE",
"522 477 OFFCURVE",
"435 536 OFFCURVE",
"308 536 CURVE SMOOTH",
"122 536 OFFCURVE",
"19 407 OFFCURVE",
"19 263 CURVE SMOOTH"
);
}
);
width = 577;
}
);
leftKerningGroup = c;
rightKerningGroup = c;
unicode = 0063;
},
{
color = 4;
glyphname = caron.alt;
lastChange = "2014-12-09 10:41:42 +0000";
layers = (
{
anchors = (
{
name = _topright;
position = "{2, 526}";
}
);
layerId = "5C573416-F98A-4FCE-B5D6-0256B247F272";
name = Bold;
paths = (
{
closed = 1;
nodes = (
"269 730 LINE",
"109 730 LINE",
"63 567 LINE",
"205 567 LINE"
);
}
);
width = 284;
}
);
},
{
glyphname = ccedilla;
layers = (
{
layerId = "5C573416-F98A-4FCE-B5D6-0256B247F272";
name = Bold;
paths = (
{
closed = 1;
nodes = (
"181 -192 LINE",
"208 -203 OFFCURVE",
"246 -213 OFFCURVE",
"294 -213 CURVE SMOOTH",
"399 -213 OFFCURVE",
"446 -166 OFFCURVE",
"446 -110 CURVE SMOOTH",
"446 -54 OFFCURVE",
"400 -32 OFFCURVE",
"352 -32 CURVE SMOOTH",
"342 -32 OFFCURVE",
"333 -33 OFFCURVE",
"325 -34 CURVE",
"343 -8 LINE",
"451 1 OFFCURVE",
"526 57 OFFCURVE",
"565 133 CURVE",
"380 189 LINE",
"363 164 OFFCURVE",
"338 150 OFFCURVE",
"307 150 CURVE SMOOTH",
"255 150 OFFCURVE",
"214 192 OFFCURVE",
"214 263 CURVE SMOOTH",
"214 334 OFFCURVE",
"255 376 OFFCURVE",
"307 376 CURVE SMOOTH",
"338 376 OFFCURVE",
"363 362 OFFCURVE",
"380 337 CURVE",
"565 393 LINE",
"522 477 OFFCURVE",
"435 536 OFFCURVE",
"308 536 CURVE SMOOTH",
"122 536 OFFCURVE",
"19 407 OFFCURVE",
"19 263 CURVE SMOOTH",
"19 129 OFFCURVE",
"108 8 OFFCURVE",
"270 -8 CURVE",
"228 -96 LINE",
"243 -93 OFFCURVE",
"279 -87 OFFCURVE",
"307 -87 CURVE SMOOTH",
"340 -87 OFFCURVE",
"362 -95 OFFCURVE",
"362 -117 CURVE SMOOTH",
"362 -140 OFFCURVE",
"337 -148 OFFCURVE",
"306 -148 CURVE SMOOTH",
"270 -148 OFFCURVE",
"230 -137 OFFCURVE",
"216 -128 CURVE"
);
}
);
width = 577;
}
);
leftKerningGroup = c;
rightKerningGroup = c;
unicode = 00E7;
},
{
glyphname = cent;
layers = (
{
layerId = "5C573416-F98A-4FCE-B5D6-0256B247F272";
name = Bold;
paths = (
{
closed = 1;
nodes = (
"356 -120 LINE",
"356 -10 LINE",
"421 -10 OFFCURVE",
"538 37 OFFCURVE",
"583 133 CURVE",
"398 189 LINE",
"390 176 OFFCURVE",
"377 164 OFFCURVE",
"356 155 CURVE",
"356 370 LINE",
"370 367 OFFCURVE",
"389 353 OFFCURVE",
"398 337 CURVE",
"583 393 LINE",
"534 486 OFFCURVE",
"444 531 OFFCURVE",
"356 534 CURVE",
"356 645 LINE",
"276 645 LINE",
"276 534 LINE",
"116 505 OFFCURVE",
"36 393 OFFCURVE",
"36 258 CURVE SMOOTH",
"36 131 OFFCURVE",
"136 2 OFFCURVE",
"276 -9 CURVE",
"276 -120 LINE"
);
},
{
closed = 1;
nodes = (
"232 307 OFFCURVE",
"249 346 OFFCURVE",
"276 361 CURVE",
"276 164 LINE",
"246 186 OFFCURVE",
"232 221 OFFCURVE",
"232 258 CURVE SMOOTH"
);
}
);
width = 618;
}
);
unicode = 00A2;
},
{
color = 4;
glyphname = colon;
lastChange = "2014-12-08 16:20:16 +0000";
layers = (
{
layerId = "5C573416-F98A-4FCE-B5D6-0256B247F272";
name = Bold;
paths = (
{
closed = 1;
nodes = (
"218 -9 OFFCURVE",
"260 32 OFFCURVE",
"260 82 CURVE SMOOTH",
"260 131 OFFCURVE",
"218 173 OFFCURVE",
"168 173 CURVE SMOOTH",
"119 173 OFFCURVE",
"78 131 OFFCURVE",
"78 82 CURVE SMOOTH",
"78 32 OFFCURVE",
"119 -9 OFFCURVE",
"168 -9 CURVE SMOOTH"
);
},
{
closed = 1;
nodes = (
"218 336 OFFCURVE",
"260 377 OFFCURVE",
"260 427 CURVE SMOOTH",
"260 476 OFFCURVE",
"218 518 OFFCURVE",
"168 518 CURVE SMOOTH",
"119 518 OFFCURVE",
"78 476 OFFCURVE",
"78 427 CURVE SMOOTH",
"78 377 OFFCURVE",
"119 336 OFFCURVE",
"168 336 CURVE SMOOTH"
);
}
);
width = 304;
}
);
leftKerningGroup = colon;
rightKerningGroup = colon;
unicode = 003A;
},
{
color = 4;
glyphname = comma;
lastChange = "2014-12-08 16:15:25 +0000";
layers = (
{
guideLines = (
{
position = "{97, -157}";
}
);
layerId = "5C573416-F98A-4FCE-B5D6-0256B247F272";
name = Bold;
paths = (
{
closed = 1;
nodes = (
"150 -141 LINE",
"15 -141 LINE SMOOTH",
"101 152 LINE",
"265 152 LINE"
);
}
);
width = 257;
}
);
leftKerningGroup = comma;
rightKerningGroup = comma;
unicode = 002C;
},
{
glyphname = copyright;
layers = (
{
layerId = "5C573416-F98A-4FCE-B5D6-0256B247F272";
name = Bold;
paths = (
{
closed = 1;
nodes = (
"644 -7 OFFCURVE",
"810 148 OFFCURVE",
"810 355 CURVE SMOOTH",
"810 561 OFFCURVE",
"644 715 OFFCURVE",
"419 715 CURVE SMOOTH",
"200 715 OFFCURVE",
"38 561 OFFCURVE",
"38 355 CURVE SMOOTH",
"38 148 OFFCURVE",
"200 -7 OFFCURVE",
"419 -7 CURVE SMOOTH"
);
},
{
closed = 1;
nodes = (
"241 57 OFFCURVE",
"108 189 OFFCURVE",
"108 355 CURVE SMOOTH",
"108 519 OFFCURVE",
"242 651 OFFCURVE",
"419 651 CURVE SMOOTH",
"603 651 OFFCURVE",
"740 519 OFFCURVE",
"740 355 CURVE SMOOTH",
"740 179 OFFCURVE",
"599 57 OFFCURVE",
"419 57 CURVE SMOOTH"
);
},
{
closed = 1;
nodes = (
"551 111 OFFCURVE",
"635 170 OFFCURVE",
"676 254 CURVE",
"491 310 LINE",
"476 285 OFFCURVE",
"455 271 OFFCURVE",
"428 271 CURVE SMOOTH",
"388 271 OFFCURVE",
"355 301 OFFCURVE",
"355 354 CURVE SMOOTH",
"355 407 OFFCURVE",
"388 437 OFFCURVE",
"428 437 CURVE SMOOTH",
"455 437 OFFCURVE",
"476 423 OFFCURVE",
"491 398 CURVE",
"676 454 LINE",
"635 538 OFFCURVE",
"551 597 OFFCURVE",
"429 597 CURVE SMOOTH",
"255 597 OFFCURVE",
"160 483 OFFCURVE",
"160 354 CURVE SMOOTH",
"160 225 OFFCURVE",
"255 111 OFFCURVE",
"429 111 CURVE SMOOTH"
);
}
);
width = 847;
}
);
leftKerningGroup = copyright;
unicode = 00A9;
},
{
color = 4;
glyphname = d;
lastChange = "2014-12-09 10:43:27 +0000";
layers = (
{
anchors = (
{
name = center;
position = "{324, 263}";
},
{
name = topright;
position = "{578, 506}";
}
);
layerId = "5C573416-F98A-4FCE-B5D6-0256B247F272";
name = Bold;
paths = (
{
closed = 1;
nodes = (
"599 0 LINE",
"599 730 LINE",
"409 730 LINE",
"409 448 LINE",
"379 503 OFFCURVE",
"319 536 OFFCURVE",
"249 536 CURVE SMOOTH",
"116 536 OFFCURVE",
"20 419 OFFCURVE",
"20 264 CURVE SMOOTH",
"20 103 OFFCURVE",
"123 -10 OFFCURVE",
"268 -10 CURVE SMOOTH",
"337 -10 OFFCURVE",
"380 16 OFFCURVE",
"410 69 CURVE",
"410 0 LINE"
);
},
{
closed = 1;
nodes = (
"410 204 LINE",
"385 168 OFFCURVE",
"357 150 OFFCURVE",
"319 150 CURVE SMOOTH",
"259 150 OFFCURVE",
"216 194 OFFCURVE",
"216 260 CURVE SMOOTH",
"216 323 OFFCURVE",
"257 376 OFFCURVE",
"311 376 CURVE SMOOTH",
"351 376 OFFCURVE",
"391 346 OFFCURVE",
"410 298 CURVE"
);
}
);
width = 647;
}
);
leftKerningGroup = a.alt;
rightKerningGroup = d.alt;
unicode = 0064;
},
{
glyphname = d.alt;
layers = (
{
layerId = "5C573416-F98A-4FCE-B5D6-0256B247F272";
name = Bold;
paths = (
{
closed = 1;
nodes = (
"337 -10 OFFCURVE",
"403 18 OFFCURVE",
"439 82 CURVE",
"443 63 LINE SMOOTH",
"453 14 OFFCURVE",
"491 -10 OFFCURVE",
"555 -10 CURVE SMOOTH",
"575 -10 OFFCURVE",
"601 -7 OFFCURVE",
"635 0 CURVE",
"635 160 LINE",
"608 162 OFFCURVE",
"599 174 OFFCURVE",
"599 210 CURVE SMOOTH",
"599 730 LINE",
"409 730 LINE",
"409 448 LINE",
"379 503 OFFCURVE",
"318 536 OFFCURVE",
"250 536 CURVE SMOOTH",
"115 536 OFFCURVE",
"20 419 OFFCURVE",
"20 264 CURVE SMOOTH",
"20 103 OFFCURVE",
"123 -10 OFFCURVE",
"268 -10 CURVE SMOOTH"
);
},
{
closed = 1;
nodes = (
"258 150 OFFCURVE",
"216 194 OFFCURVE",
"216 260 CURVE SMOOTH",
"216 324 OFFCURVE",
"257 376 OFFCURVE",
"312 376 CURVE SMOOTH",
"352 376 OFFCURVE",
"392 344 OFFCURVE",
"410 298 CURVE",
"410 204 LINE",
"385 168 OFFCURVE",
"356 150 OFFCURVE",
"320 150 CURVE SMOOTH"
);
}
);
width = 665;
}
);
leftKerningGroup = a.alt;
rightKerningGroup = d;
},
{
glyphname = dagger;
layers = (
{
layerId = "5C573416-F98A-4FCE-B5D6-0256B247F272";
name = Bold;
paths = (
{
closed = 1;
nodes = (
"345 -130 LINE",
"345 186 LINE",
"476 186 LINE",
"476 356 LINE",
"345 356 LINE",
"345 775 LINE",
"165 775 LINE",
"165 356 LINE",
"33 356 LINE",
"33 186 LINE",
"165 186 LINE",
"165 -130 LINE"
);
}
);
width = 509;
}
);
unicode = 2020;
},
{
glyphname = daggerdbl;
layers = (
{
layerId = "5C573416-F98A-4FCE-B5D6-0256B247F272";
name = Bold;
paths = (
{
closed = 1;
nodes = (
"359 -130 LINE",
"359 53 LINE",
"490 53 LINE",
"490 223 LINE",
"359 223 LINE",
"359 336 LINE",
"490 336 LINE",
"490 506 LINE",
"359 506 LINE",
"359 775 LINE",
"179 775 LINE",
"179 506 LINE",
"47 506 LINE",
"47 336 LINE",
"179 336 LINE",
"179 223 LINE",
"47 223 LINE",
"47 53 LINE",
"179 53 LINE",
"179 -130 LINE"
);
}
);
width = 537;
}
);
unicode = 2021;
},
{
color = 4;
glyphname = dcroat;
lastChange = "2015-01-03 11:02:43 +0000";
layers = (
{
layerId = "5C573416-F98A-4FCE-B5D6-0256B247F272";
name = Bold;
paths = (
{
closed = 1;
nodes = (
"337 -10 OFFCURVE",
"403 18 OFFCURVE",
"439 82 CURVE",
"449 0 LINE",
"599 0 LINE",
"599 579 LINE",
"657 579 LINE",
"657 688 LINE",
"599 688 LINE",
"599 730 LINE",
"409 730 LINE",
"409 688 LINE",
"322 688 LINE",
"322 579 LINE",
"409 579 LINE",
"409 448 LINE",
"379 503 OFFCURVE",
"318 536 OFFCURVE",
"250 536 CURVE SMOOTH",
"115 536 OFFCURVE",
"20 419 OFFCURVE",
"20 264 CURVE SMOOTH",
"20 103 OFFCURVE",
"123 -10 OFFCURVE",
"268 -10 CURVE SMOOTH"
);
},
{
closed = 1;
nodes = (
"258 150 OFFCURVE",
"216 194 OFFCURVE",
"216 260 CURVE SMOOTH",
"216 324 OFFCURVE",
"257 376 OFFCURVE",
"312 376 CURVE SMOOTH",
"352 376 OFFCURVE",
"392 344 OFFCURVE",
"410 298 CURVE",
"410 204 LINE",
"385 168 OFFCURVE",
"356 150 OFFCURVE",
"320 150 CURVE SMOOTH"
);
}
);
width = 665;
}
);
leftKerningGroup = a.alt;
rightKerningGroup = d;
unicode = 0111;
},
{
glyphname = degree;
layers = (
{
layerId = "5C573416-F98A-4FCE-B5D6-0256B247F272";
name = Bold;
paths = (
{
closed = 1;
nodes = (
"31 537 OFFCURVE",
"80 486 OFFCURVE",
"150 486 CURVE SMOOTH",
"220 486 OFFCURVE",
"269 534 OFFCURVE",
"269 610 CURVE SMOOTH",
"269 675 OFFCURVE",
"220 724 OFFCURVE",
"150 724 CURVE SMOOTH",
"80 724 OFFCURVE",
"31 675 OFFCURVE",
"31 610 CURVE SMOOTH"
);
},
{
closed = 1;
nodes = (
"133 633 OFFCURVE",
"141 636 OFFCURVE",
"150 636 CURVE SMOOTH",
"158 636 OFFCURVE",
"167 634 OFFCURVE",
"172 627 CURVE",
"178 622 OFFCURVE",
"181 614 OFFCURVE",
"181 605 CURVE SMOOTH",
"181 598 OFFCURVE",
"178 588 OFFCURVE",
"172 583 CURVE",
"167 577 OFFCURVE",
"158 573 OFFCURVE",
"150 573 CURVE SMOOTH",
"141 573 OFFCURVE",
"133 577 OFFCURVE",
"127 583 CURVE SMOOTH",
"122 588 OFFCURVE",
"118 597 OFFCURVE",
"118 605 CURVE SMOOTH",
"118 614 OFFCURVE",
"122 622 OFFCURVE",
"127 627 CURVE SMOOTH"
);
}
);
width = 300;
}
);
unicode = 00B0;
},
{
color = 4;
glyphname = divide;
lastChange = "2015-01-03 10:46:07 +0000";
layers = (
{
layerId = "5C573416-F98A-4FCE-B5D6-0256B247F272";
name = Bold;
paths = (
{
closed = 1;
nodes = (
"445 235 LINE",
"445 385 LINE",
"41 385 LINE",
"41 235 LINE"
);
},
{
closed = 1;
nodes = (
"293 5 OFFCURVE",
"335 46 OFFCURVE",
"335 96 CURVE SMOOTH",
"335 145 OFFCURVE",
"293 187 OFFCURVE",
"243 187 CURVE SMOOTH",
"194 187 OFFCURVE",
"153 145 OFFCURVE",
"153 96 CURVE SMOOTH",
"153 46 OFFCURVE",
"194 5 OFFCURVE",
"243 5 CURVE SMOOTH"
);
},
{
closed = 1;
nodes = (
"293 435 OFFCURVE",
"335 476 OFFCURVE",
"335 526 CURVE SMOOTH",
"335 575 OFFCURVE",
"293 617 OFFCURVE",
"243 617 CURVE SMOOTH",
"194 617 OFFCURVE",
"153 575 OFFCURVE",
"153 526 CURVE SMOOTH",
"153 476 OFFCURVE",
"194 435 OFFCURVE",
"243 435 CURVE SMOOTH"
);
}
);
width = 485;
}
);
unicode = 00F7;
},
{
glyphname = dollar;
layers = (
{
layerId = "5C573416-F98A-4FCE-B5D6-0256B247F272";
name = Bold;
paths = (
{
closed = 1;
nodes = (
"594 639 LINE",
"539 666 OFFCURVE",
"458 703 OFFCURVE",
"371 713 CURVE",
"371 815 LINE",
"291 815 LINE",
"291 714 LINE",
"166 700 OFFCURVE",
"63 619 OFFCURVE",
"63 476 CURVE SMOOTH",
"63 372 OFFCURVE",
"118 319 OFFCURVE",
"243 277 CURVE SMOOTH",
"265 269 OFFCURVE",
"285 263 OFFCURVE",
"305 258 CURVE",
"305 170 LINE",
"209 184 OFFCURVE",
"116 245 OFFCURVE",
"116 245 CURVE",
"32 74 LINE",
"103 32 OFFCURVE",
"200 2 OFFCURVE",
"291 -6 CURVE",
"291 -129 LINE",
"371 -129 LINE",
"371 -8 LINE",
"493 0 OFFCURVE",
"611 59 OFFCURVE",
"611 217 CURVE SMOOTH",
"611 350 OFFCURVE",
"528 396 OFFCURVE",
"397 437 CURVE",
"382 441 OFFCURVE",
"369 446 OFFCURVE",
"357 449 CURVE",
"357 539 LINE",
"432 526 OFFCURVE",
"510 478 OFFCURVE",
"510 478 CURVE"
);
},
{
closed = 1;
nodes = (
"401 181 OFFCURVE",
"389 170 OFFCURVE",
"357 167 CURVE",
"357 241 LINE",
"384 230 OFFCURVE",
"401 217 OFFCURVE",
"401 198 CURVE SMOOTH"
);
},
{
closed = 1;
nodes = (
"265 528 OFFCURVE",
"280 539 OFFCURVE",
"305 542 CURVE",
"305 466 LINE",
"279 477 OFFCURVE",
"265 488 OFFCURVE",
"265 508 CURVE SMOOTH"
);
}
);
width = 649;
}
);
unicode = 0024;
},
{
glyphname = dotlessi;
lastChange = "2014-12-09 09:40:31 +0000";
layers = (
{
anchors = (
{
name = ogonek;
position = "{257, 10}";
},
{
name = top;
position = "{148, 526}";
}
);
layerId = "5C573416-F98A-4FCE-B5D6-0256B247F272";
name = Bold;
paths = (
{
closed = 1;
nodes = (
"238 0 LINE",
"238 526 LINE",
"48 526 LINE",
"48 0 LINE"
);
}
);
width = 286;
}
);
leftKerningGroup = dotlessi;
rightKerningGroup = dotlessi;
unicode = 0131;
},
{
color = 4;
glyphname = dotlessj;
lastChange = "2014-12-09 10:30:05 +0000";
layers = (
{
anchors = (
{
name = top;
position = "{143, 526}";
}
);
layerId = "5C573416-F98A-4FCE-B5D6-0256B247F272";
name = Bold;
paths = (
{
closed = 1;
nodes = (
"48 -213 LINE",
"238 -213 LINE",
"238 526 LINE",
"48 526 LINE"
);
}
);
width = 286;
}
);
leftKerningGroup = dotlessi;
rightKerningGroup = dotlessi;
unicode = 0237;
},
{
glyphname = e;
lastChange = "2014-12-09 09:40:16 +0000";
layers = (
{
anchors = (
{
name = bottom;
position = "{305, 0}";
},
{
name = ogonek;
position = "{548, 10}";
},
{
name = top;
position = "{305, 526}";
}
);
layerId = "5C573416-F98A-4FCE-B5D6-0256B247F272";
name = Bold;
paths = (
{
closed = 1;
nodes = (
"435 -10 OFFCURVE",
"526 49 OFFCURVE",
"569 133 CURVE",
"408 179 LINE",
"396 146 OFFCURVE",
"354 126 OFFCURVE",
"313 126 CURVE SMOOTH",
"269 126 OFFCURVE",
"225 149 OFFCURVE",
"221 205 CURVE",
"590 205 LINE",
"593 221 OFFCURVE",
"595 243 OFFCURVE",
"595 263 CURVE SMOOTH",
"595 408 OFFCURVE",
"495 536 OFFCURVE",
"307 536 CURVE SMOOTH",
"119 536 OFFCURVE",
"19 408 OFFCURVE",
"19 256 CURVE SMOOTH",
"19 115 OFFCURVE",
"122 -10 OFFCURVE",
"307 -10 CURVE SMOOTH"
);
},
{
closed = 1;
nodes = (
"217 319 LINE",
"223 370 OFFCURVE",
"256 401 OFFCURVE",
"304 401 CURVE SMOOTH",
"352 401 OFFCURVE",
"385 370 OFFCURVE",
"391 319 CURVE"
);
}
);
width = 609;
}
);
leftKerningGroup = c;
rightKerningGroup = ae;
unicode = 0065;
},
{
glyphname = eight;
lastChange = "2014-12-09 13:59:13 +0000";
layers = (
{
layerId = "5C573416-F98A-4FCE-B5D6-0256B247F272";
name = Bold;
paths = (
{
closed = 1;
nodes = (
"573 296 OFFCURVE",
"527 349 OFFCURVE",
"487 379 CURVE",
"525 401 OFFCURVE",
"554 455 OFFCURVE",
"554 501 CURVE SMOOTH",
"554 638 OFFCURVE",
"415 710 OFFCURVE",
"305 710 CURVE SMOOTH",
"195 710 OFFCURVE",
"57 636 OFFCURVE",
"57 499 CURVE SMOOTH",
"57 453 OFFCURVE",
"85 402 OFFCURVE",
"123 379 CURVE",
"84 350 OFFCURVE",
"37 298 OFFCURVE",
"37 227 CURVE SMOOTH",
"37 82 OFFCURVE",
"164 -10 OFFCURVE",
"305 -10 CURVE SMOOTH",
"453 -10 OFFCURVE",
"573 82 OFFCURVE",
"573 221 CURVE SMOOTH"
);
},
{
closed = 1;
nodes = (
"380 194 OFFCURVE",
"349 163 OFFCURVE",
"305 163 CURVE SMOOTH",
"263 163 OFFCURVE",
"230 193 OFFCURVE",
"230 232 CURVE SMOOTH",
"230 274 OFFCURVE",
"261 301 OFFCURVE",
"305 301 CURVE SMOOTH",
"348 301 OFFCURVE",
"380 276 OFFCURVE",
"380 232 CURVE SMOOTH"
);
},
{
closed = 1;
nodes = (
"250 521 OFFCURVE",
"272 543 OFFCURVE",
"305 543 CURVE SMOOTH",
"338 543 OFFCURVE",
"361 521 OFFCURVE",
"361 495 CURVE SMOOTH",
"361 459 OFFCURVE",
"332 442 OFFCURVE",
"305 442 CURVE SMOOTH",
"278 442 OFFCURVE",
"250 459 OFFCURVE",
"250 495 CURVE SMOOTH"
);
}
);
width = 611;
}
);
unicode = 0038;
},
{
glyphname = eightinferior;
layers = (
{
layerId = "5C573416-F98A-4FCE-B5D6-0256B247F272";
name = Bold;
paths = (
{
closed = 1;
nodes = (
"412 92 OFFCURVE",
"379 122 OFFCURVE",
"333 145 CURVE",
"369 161 OFFCURVE",
"396 188 OFFCURVE",
"396 227 CURVE SMOOTH",
"396 299 OFFCURVE",
"302 350 OFFCURVE",
"219 350 CURVE SMOOTH",
"136 350 OFFCURVE",
"44 298 OFFCURVE",
"44 225 CURVE SMOOTH",
"44 184 OFFCURVE",
"73 159 OFFCURVE",
"106 145 CURVE",
"63 123 OFFCURVE",
"27 97 OFFCURVE",
"27 45 CURVE SMOOTH",
"27 -36 OFFCURVE",
"115 -96 OFFCURVE",
"220 -96 CURVE SMOOTH",
"324 -96 OFFCURVE",
"412 -37 OFFCURVE",
"412 43 CURVE SMOOTH"
);
},
{
closed = 1;
nodes = (
"302 31 OFFCURVE",
"263 13 OFFCURVE",
"220 13 CURVE SMOOTH",
"179 13 OFFCURVE",
"137 30 OFFCURVE",
"137 55 CURVE SMOOTH",
"137 79 OFFCURVE",
"174 96 OFFCURVE",
"219 96 CURVE SMOOTH",
"262 96 OFFCURVE",
"302 80 OFFCURVE",
"302 55 CURVE SMOOTH"
);
},
{
closed = 1;
nodes = (
"152 233 OFFCURVE",
"183 245 OFFCURVE",
"219 245 CURVE SMOOTH",
"255 245 OFFCURVE",
"287 233 OFFCURVE",
"287 215 CURVE SMOOTH",
"287 196 OFFCURVE",
"251 185 OFFCURVE",
"219 185 CURVE SMOOTH",
"187 185 OFFCURVE",
"152 196 OFFCURVE",
"152 215 CURVE SMOOTH"
);
}
);
width = 439;
}
);
unicode = 2088;
},
{
glyphname = eightsuperior;
layers = (
{
layerId = "5C573416-F98A-4FCE-B5D6-0256B247F272";
name = Bold;
paths = (
{
closed = 1;
nodes = (
"412 562 OFFCURVE",
"379 592 OFFCURVE",
"333 615 CURVE",
"369 631 OFFCURVE",
"396 658 OFFCURVE",
"396 697 CURVE SMOOTH",
"396 769 OFFCURVE",
"302 820 OFFCURVE",
"219 820 CURVE SMOOTH",
"136 820 OFFCURVE",
"44 768 OFFCURVE",
"44 695 CURVE SMOOTH",
"44 654 OFFCURVE",
"73 629 OFFCURVE",
"106 615 CURVE",
"63 593 OFFCURVE",
"27 567 OFFCURVE",
"27 515 CURVE SMOOTH",
"27 434 OFFCURVE",
"115 374 OFFCURVE",
"220 374 CURVE SMOOTH",
"324 374 OFFCURVE",
"412 433 OFFCURVE",
"412 513 CURVE SMOOTH"
);
},
{
closed = 1;
nodes = (
"302 501 OFFCURVE",
"263 483 OFFCURVE",
"220 483 CURVE SMOOTH",
"179 483 OFFCURVE",
"137 500 OFFCURVE",
"137 525 CURVE SMOOTH",
"137 549 OFFCURVE",
"174 566 OFFCURVE",
"219 566 CURVE SMOOTH",
"262 566 OFFCURVE",
"302 550 OFFCURVE",
"302 525 CURVE SMOOTH"
);
},
{
closed = 1;
nodes = (
"152 703 OFFCURVE",
"183 715 OFFCURVE",
"219 715 CURVE SMOOTH",
"255 715 OFFCURVE",
"287 703 OFFCURVE",
"287 685 CURVE SMOOTH",
"287 666 OFFCURVE",
"251 655 OFFCURVE",
"219 655 CURVE SMOOTH",
"187 655 OFFCURVE",
"152 666 OFFCURVE",
"152 685 CURVE SMOOTH"
);
}
);
width = 439;
}
);
unicode = 2078;
},
{
color = 4;
glyphname = ellipsis;
lastChange = "2015-01-03 10:44:33 +0000";
layers = (
{
layerId = "5C573416-F98A-4FCE-B5D6-0256B247F272";
name = Bold;
paths = (
{
closed = 1;
nodes = (
"721 -12 OFFCURVE",
"767 33 OFFCURVE",
"767 87 CURVE SMOOTH",
"767 140 OFFCURVE",
"721 186 OFFCURVE",
"667 186 CURVE SMOOTH",
"614 186 OFFCURVE",
"569 140 OFFCURVE",
"569 87 CURVE SMOOTH",
"569 33 OFFCURVE",
"614 -12 OFFCURVE",
"667 -12 CURVE SMOOTH"
);
},
{
closed = 1;
nodes = (
"453 -11 OFFCURVE",
"499 34 OFFCURVE",
"499 88 CURVE SMOOTH",
"499 141 OFFCURVE",
"453 187 OFFCURVE",
"399 187 CURVE SMOOTH",
"346 187 OFFCURVE",
"301 141 OFFCURVE",
"301 88 CURVE SMOOTH",
"301 34 OFFCURVE",
"346 -11 OFFCURVE",
"399 -11 CURVE SMOOTH"
);
},
{
closed = 1;
nodes = (
"186 -11 OFFCURVE",
"232 34 OFFCURVE",
"232 88 CURVE SMOOTH",
"232 141 OFFCURVE",
"186 187 OFFCURVE",
"132 187 CURVE SMOOTH",
"79 187 OFFCURVE",
"34 141 OFFCURVE",
"34 88 CURVE SMOOTH",
"34 34 OFFCURVE",
"79 -11 OFFCURVE",
"132 -11 CURVE SMOOTH"
);
}
);
width = 780;
}
);
leftKerningGroup = comma;
unicode = 2026;
},
{
glyphname = emdash;
layers = (
{
layerId = "5C573416-F98A-4FCE-B5D6-0256B247F272";
name = Bold;
paths = (
{
closed = 1;
nodes = (
"898 191 LINE",
"898 361 LINE",
"50 361 LINE",
"50 191 LINE"
);
}
);
width = 948;
}
);
leftKerningGroup = emdash;
rightKerningGroup = emdash;
unicode = 2014;
},
{
glyphname = endash;
layers = (
{
layerId = "5C573416-F98A-4FCE-B5D6-0256B247F272";
name = Bold;
paths = (
{
closed = 1;
nodes = (
"579 191 LINE",
"579 361 LINE",
"50 361 LINE",
"50 191 LINE"
);
}
);
width = 629;
}
);
leftKerningGroup = emdash;
rightKerningGroup = emdash;
unicode = 2013;
},
{
glyphname = eng;
layers = (
{
layerId = "5C573416-F98A-4FCE-B5D6-0256B247F272";
name = Bold;
paths = (
{
closed = 1;
nodes = (
"489 -209 OFFCURVE",
"576 -119 OFFCURVE",
"576 12 CURVE SMOOTH",
"576 346 LINE SMOOTH",
"576 418 OFFCURVE",
"561 536 OFFCURVE",
"417 536 CURVE SMOOTH",
"326 536 OFFCURVE",
"256 505 OFFCURVE",
"219 448 CURVE",
"219 526 LINE",
"48 526 LINE",
"48 0 LINE",
"238 0 LINE",
"238 295 LINE",
"255 339 OFFCURVE",
"297 370 OFFCURVE",
"329 370 CURVE SMOOTH",
"360 370 OFFCURVE",
"387 348 OFFCURVE",
"387 296 CURVE SMOOTH",
"387 -3 LINE SMOOTH",
"387 -30 OFFCURVE",
"371 -46 OFFCURVE",
"346 -46 CURVE SMOOTH",
"328 -46 OFFCURVE",
"310 -38 OFFCURVE",
"299 -26 CURVE",
"221 -155 LINE",
"262 -190 OFFCURVE",
"315 -209 OFFCURVE",
"370 -209 CURVE SMOOTH"
);
}
);
width = 620;
}
);
leftKerningGroup = eng;
rightKerningGroup = eng;
unicode = 014B;
},
{
glyphname = equal;
layers = (
{
layerId = "5C573416-F98A-4FCE-B5D6-0256B247F272";
name = Bold;
paths = (
{
closed = 1;
nodes = (
"378 101 LINE",
"378 221 LINE",
"55 221 LINE",
"55 101 LINE"
);
},
{
closed = 1;
nodes = (
"378 331 LINE",
"378 451 LINE",
"55 451 LINE",
"55 331 LINE"
);
}
);
width = 433;
}
);
unicode = 003D;
},
{
glyphname = eth;
layers = (
{
layerId = "5C573416-F98A-4FCE-B5D6-0256B247F272";
name = Bold;
paths = (
{
closed = 1;
nodes = (
"499 712 LINE",
"427 674 LINE",
"399 698 OFFCURVE",
"369 716 OFFCURVE",
"338 730 CURVE",
"108 730 LINE",
"180 694 OFFCURVE",
"238 656 OFFCURVE",
"283 615 CURVE",
"216 581 LINE",
"268 510 LINE",
"344 548 LINE",
"372 510 OFFCURVE",
"391 469 OFFCURVE",
"403 425 CURVE",
"365 454 OFFCURVE",
"313 471 OFFCURVE",
"260 471 CURVE SMOOTH",
"126 471 OFFCURVE",
"22 367 OFFCURVE",
"22 234 CURVE SMOOTH",
"22 91 OFFCURVE",
"141 -10 OFFCURVE",
"310 -10 CURVE SMOOTH",
"489 -10 OFFCURVE",
"598 103 OFFCURVE",
"598 291 CURVE SMOOTH",
"598 407 OFFCURVE",
"556 522 OFFCURVE",
"489 609 CURVE",
"551 641 LINE"
);
},
{
closed = 1;
nodes = (
"217 286 OFFCURVE",
"254 320 OFFCURVE",
"310 320 CURVE SMOOTH",
"366 320 OFFCURVE",
"403 286 OFFCURVE",
"403 235 CURVE SMOOTH",
"403 184 OFFCURVE",
"366 150 OFFCURVE",
"310 150 CURVE SMOOTH",
"254 150 OFFCURVE",
"217 184 OFFCURVE",
"217 235 CURVE SMOOTH"
);
}
);
width = 621;
}
);
leftKerningGroup = eth;
rightKerningGroup = eth;
unicode = 00F0;
},
{
color = 4;
glyphname = exclam;
lastChange = "2014-12-08 16:21:26 +0000";
layers = (
{
layerId = "5C573416-F98A-4FCE-B5D6-0256B247F272";
name = Bold;
paths = (
{
closed = 1;
nodes = (
"276 300 LINE",
"276 717 LINE",
"86 717 LINE",
"86 300 LINE"
);
},
{
closed = 1;
nodes = (
"236 -9 OFFCURVE",
"284 38 OFFCURVE",
"284 94 CURVE SMOOTH",
"284 149 OFFCURVE",
"236 196 OFFCURVE",
"180 196 CURVE SMOOTH",
"125 196 OFFCURVE",
"78 149 OFFCURVE",
"78 94 CURVE SMOOTH",
"78 38 OFFCURVE",
"125 -9 OFFCURVE",
"180 -9 CURVE SMOOTH"
);
}
);
width = 362;
}
);
leftKerningGroup = exclam;
unicode = 0021;
},
{
color = 4;
glyphname = exclamdown;
lastChange = "2014-12-08 16:21:22 +0000";
layers = (
{
layerId = "5C573416-F98A-4FCE-B5D6-0256B247F272";
name = Bold;
paths = (
{
closed = 1;
nodes = (
"85 410 LINE",
"85 -7 LINE",
"275 -7 LINE",
"275 410 LINE"
);
},
{
closed = 1;
nodes = (
"236 514 OFFCURVE",
"284 561 OFFCURVE",
"284 617 CURVE SMOOTH",
"284 672 OFFCURVE",
"236 719 OFFCURVE",
"180 719 CURVE SMOOTH",
"125 719 OFFCURVE",
"78 672 OFFCURVE",
"78 617 CURVE SMOOTH",
"78 561 OFFCURVE",
"125 514 OFFCURVE",
"180 514 CURVE SMOOTH"
);
}
);
width = 360;
}
);
rightKerningGroup = exclamdown;
unicode = 00A1;
},
{
glyphname = f;
layers = (
{
layerId = "5C573416-F98A-4FCE-B5D6-0256B247F272";
name = Bold;
paths = (
{
closed = 1;
nodes = (
"275 0 LINE",
"275 322 LINE",
"390 322 LINE",
"390 465 LINE",
"275 465 LINE",
"275 529 LINE SMOOTH",
"275 563 OFFCURVE",
"290 580 OFFCURVE",
"321 580 CURVE SMOOTH",
"341 580 OFFCURVE",
"370 574 OFFCURVE",
"392 566 CURVE",
"424 710 LINE",
"371 730 OFFCURVE",
"323 740 OFFCURVE",
"278 740 CURVE SMOOTH",
"162 740 OFFCURVE",
"85 654 OFFCURVE",
"85 522 CURVE SMOOTH",
"85 465 LINE",
"20 465 LINE",
"20 322 LINE",
"85 322 LINE",
"85 0 LINE"
);
}
);
width = 402;
}
);
leftKerningGroup = f;
rightKerningGroup = f;
unicode = 0066;
},
{
color = 6;
glyphname = f_f;
lastChange = "2015-01-03 10:49:53 +0000";
layers = (
{
layerId = "5C573416-F98A-4FCE-B5D6-0256B247F272";
name = Bold;
paths = (
{
closed = 1;
nodes = (
"630 580 OFFCURVE",
"659 574 OFFCURVE",
"681 566 CURVE",
"713 710 LINE",
"660 730 OFFCURVE",
"611 740 OFFCURVE",
"570 740 CURVE SMOOTH",
"506 740 OFFCURVE",
"457 716 OFFCURVE",
"423 676 CURVE",
"370 696 OFFCURVE",
"322 706 OFFCURVE",
"281 706 CURVE SMOOTH",
"161 706 OFFCURVE",
"85 620 OFFCURVE",
"85 488 CURVE SMOOTH",
"85 465 LINE",
"20 465 LINE",
"20 322 LINE",
"85 322 LINE",
"85 0 LINE",
"275 0 LINE",
"275 322 LINE",
"374 322 LINE",
"374 0 LINE",
"564 0 LINE",
"564 322 LINE",
"679 322 LINE",
"679 465 LINE",
"564 465 LINE",
"564 529 LINE SMOOTH",
"564 563 OFFCURVE",
"579 580 OFFCURVE",
"611 580 CURVE SMOOTH"
);
},
{
closed = 1;
nodes = (
"374 465 LINE",
"275 465 LINE",
"275 495 LINE SMOOTH",
"275 529 OFFCURVE",
"290 546 OFFCURVE",
"321 546 CURVE SMOOTH",
"336 546 OFFCURVE",
"356 542 OFFCURVE",
"374 537 CURVE"
);
}
);
width = 691;
}
);
leftKerningGroup = f;
rightKerningGroup = f;
unicode = FB00;
},
{
color = 6;
glyphname = f_f_i;
lastChange = "2015-01-03 10:49:53 +0000";
layers = (
{
layerId = "5C573416-F98A-4FCE-B5D6-0256B247F272";
name = Bold;
paths = (
{
closed = 1;
nodes = (
"85 0 LINE",
"275 0 LINE",
"275 322 LINE",
"374 322 LINE",
"374 0 LINE",
"564 0 LINE",
"564 322 LINE",
"673 322 LINE",
"673 0 LINE",
"864 0 LINE",
"864 465 LINE",
"564 465 LINE",
"564 529 LINE SMOOTH",
"564 563 OFFCURVE",
"585 580 OFFCURVE",
"631 580 CURVE SMOOTH",
"671 580 OFFCURVE",
"701 564 OFFCURVE",
"744 526 CURVE",
"836 648 LINE",
"753 710 OFFCURVE",
"678 740 OFFCURVE",
"610 740 CURVE SMOOTH",
"530 740 OFFCURVE",
"465 716 OFFCURVE",
"423 676 CURVE",
"370 696 OFFCURVE",
"322 706 OFFCURVE",
"281 706 CURVE SMOOTH",
"161 706 OFFCURVE",
"85 620 OFFCURVE",
"85 488 CURVE SMOOTH",
"85 465 LINE",
"20 465 LINE",
"20 322 LINE",
"85 322 LINE"
);
},
{
closed = 1;
nodes = (
"275 465 LINE",
"275 495 LINE SMOOTH",
"275 529 OFFCURVE",
"290 546 OFFCURVE",
"321 546 CURVE SMOOTH",
"336 546 OFFCURVE",
"356 542 OFFCURVE",
"374 537 CURVE",
"374 465 LINE"
);
}
);
width = 911;
}
);
leftKerningGroup = f;
rightKerningGroup = dotlessi;
unicode = FB03;
},
{
color = 6;
glyphname = f_f_l;
lastChange = "2015-01-03 10:49:53 +0000";
layers = (
{
layerId = "5C573416-F98A-4FCE-B5D6-0256B247F272";
name = Bold;
paths = (
{
closed = 1;
nodes = (
"927 -9 OFFCURVE",
"1005 21 OFFCURVE",
"1008 24 CURVE",
"985 176 LINE",
"983 176 OFFCURVE",
"950 160 OFFCURVE",
"928 160 CURVE SMOOTH",
"896 160 OFFCURVE",
"885 192 OFFCURVE",
"885 217 CURVE SMOOTH",
"885 510 LINE SMOOTH",
"885 650 OFFCURVE",
"806 740 OFFCURVE",
"625 740 CURVE SMOOTH",
"539 740 OFFCURVE",
"468 720 OFFCURVE",
"424 676 CURVE",
"371 696 OFFCURVE",
"323 706 OFFCURVE",
"278 706 CURVE SMOOTH",
"162 706 OFFCURVE",
"85 620 OFFCURVE",
"85 488 CURVE SMOOTH",
"85 465 LINE",
"20 465 LINE",
"20 322 LINE",
"85 322 LINE",
"85 0 LINE",
"275 0 LINE",
"275 322 LINE",
"373 322 LINE",
"373 0 LINE",
"563 0 LINE",
"563 322 LINE",
"632 322 LINE",
"632 465 LINE",
"563 465 LINE",
"563 494 LINE SMOOTH",
"563 540 OFFCURVE",
"579 580 OFFCURVE",
"627 580 CURVE SMOOTH",
"687 580 OFFCURVE",
"695 541 OFFCURVE",
"695 483 CURVE SMOOTH",
"695 117 LINE SMOOTH",
"695 49 OFFCURVE",
"755 -9 OFFCURVE",
"855 -9 CURVE SMOOTH"
);
},
{
closed = 1;
nodes = (
"275 465 LINE",
"275 495 LINE SMOOTH",
"275 529 OFFCURVE",
"290 546 OFFCURVE",
"321 546 CURVE SMOOTH",
"335 546 OFFCURVE",
"355 543 OFFCURVE",
"373 538 CURVE",
"373 465 LINE"
);
}
);
width = 1006;
}
);
leftKerningGroup = f;
rightKerningGroup = f_f_l;
unicode = FB04;
},
{
color = 6;
glyphname = f_i;
lastChange = "2015-01-03 10:49:53 +0000";
layers = (
{
layerId = "5C573416-F98A-4FCE-B5D6-0256B247F272";
name = Bold;
paths = (
{
closed = 1;
nodes = (
"85 0 LINE",
"275 0 LINE",
"275 322 LINE",
"384 322 LINE",
"384 0 LINE",
"574 0 LINE",
"574 465 LINE",
"275 465 LINE",
"275 529 LINE SMOOTH",
"275 563 OFFCURVE",
"298 580 OFFCURVE",
"337 580 CURVE SMOOTH",
"383 580 OFFCURVE",
"436 556 OFFCURVE",
"482 516 CURVE",
"554 660 LINE",
"470 714 OFFCURVE",
"401 740 OFFCURVE",
"324 740 CURVE SMOOTH",
"184 740 OFFCURVE",
"85 654 OFFCURVE",
"85 522 CURVE SMOOTH",
"85 465 LINE",
"20 465 LINE",
"20 322 LINE",
"85 322 LINE"
);
}
);
width = 621;
}
);
leftKerningGroup = f;
rightKerningGroup = dotlessi;
unicode = FB01;
},
{
color = 6;
glyphname = f_l;
lastChange = "2015-01-03 10:49:53 +0000";
layers = (
{
layerId = "5C573416-F98A-4FCE-B5D6-0256B247F272";
name = Bold;
paths = (
{
closed = 1;
nodes = (
"697 176 LINE",
"695 176 OFFCURVE",
"662 160 OFFCURVE",
"640 160 CURVE SMOOTH",
"608 160 OFFCURVE",
"597 192 OFFCURVE",
"597 217 CURVE SMOOTH",
"597 510 LINE SMOOTH",
"597 650 OFFCURVE",
"518 740 OFFCURVE",
"337 740 CURVE SMOOTH",
"188 740 OFFCURVE",
"85 679 OFFCURVE",
"85 540 CURVE SMOOTH",
"85 465 LINE",
"20 465 LINE",
"20 322 LINE",
"85 322 LINE",
"85 0 LINE",
"275 0 LINE",
"275 322 LINE",
"344 322 LINE",
"344 465 LINE",
"275 465 LINE",
"275 494 LINE SMOOTH",
"275 545 OFFCURVE",
"291 580 OFFCURVE",
"345 580 CURVE SMOOTH",
"399 580 OFFCURVE",
"407 545 OFFCURVE",
"407 473 CURVE SMOOTH",
"407 117 LINE SMOOTH",
"407 49 OFFCURVE",
"467 -9 OFFCURVE",
"567 -9 CURVE SMOOTH",
"639 -9 OFFCURVE",
"717 21 OFFCURVE",
"720 24 CURVE"
);
}
);
width = 718;
}
);
leftKerningGroup = f;
rightKerningGroup = f_f_l;
unicode = FB02;
},
{
glyphname = five;
lastChange = "2014-12-09 13:59:16 +0000";
layers = (
{
layerId = "5C573416-F98A-4FCE-B5D6-0256B247F272";
name = Bold;
paths = (
{
closed = 1;
nodes = (
"278 466 OFFCURVE",
"264 461 OFFCURVE",
"264 461 CURVE",
"275 538 LINE",
"494 538 LINE",
"494 711 LINE",
"138 711 LINE",
"54 269 LINE",
"217 269 LINE",
"229 290 OFFCURVE",
"254 304 OFFCURVE",
"282 304 CURVE SMOOTH",
"323 304 OFFCURVE",
"351 275 OFFCURVE",
"351 231 CURVE SMOOTH",
"351 186 OFFCURVE",
"321 157 OFFCURVE",
"272 157 CURVE SMOOTH",
"227 157 OFFCURVE",
"176 182 OFFCURVE",
"138 223 CURVE",
"34 103 LINE",
"79 32 OFFCURVE",
"167 -9 OFFCURVE",
"271 -9 CURVE SMOOTH",
"434 -9 OFFCURVE",
"546 91 OFFCURVE",
"546 235 CURVE SMOOTH",
"546 371 OFFCURVE",
"448 466 OFFCURVE",
"310 466 CURVE SMOOTH"
);
}
);
width = 582;
}
);
unicode = 0035;
},
{
glyphname = fiveeighths;
layers = (
{
layerId = "5C573416-F98A-4FCE-B5D6-0256B247F272";
name = Bold;
paths = (
{
closed = 1;
nodes = (
"306 -10 LINE",
"569 337 LINE",
"840 646 LINE",
"757 721 LINE",
"506 384 LINE",
"223 65 LINE"
);
},
{
closed = 1;
nodes = (
"1036 182 OFFCURVE",
"1003 212 OFFCURVE",
"957 235 CURVE",
"993 251 OFFCURVE",
"1020 278 OFFCURVE",
"1020 317 CURVE SMOOTH",
"1020 389 OFFCURVE",
"926 440 OFFCURVE",
"843 440 CURVE SMOOTH",
"760 440 OFFCURVE",
"668 388 OFFCURVE",
"668 315 CURVE SMOOTH",
"668 274 OFFCURVE",
"697 249 OFFCURVE",
"730 235 CURVE",
"687 213 OFFCURVE",
"651 187 OFFCURVE",
"651 135 CURVE SMOOTH",
"651 54 OFFCURVE",
"739 -6 OFFCURVE",
"844 -6 CURVE SMOOTH",
"948 -6 OFFCURVE",
"1036 53 OFFCURVE",
"1036 133 CURVE SMOOTH"
);
},
{
closed = 1;
nodes = (
"926 121 OFFCURVE",
"887 103 OFFCURVE",
"844 103 CURVE SMOOTH",
"803 103 OFFCURVE",
"761 120 OFFCURVE",
"761 145 CURVE SMOOTH",
"761 169 OFFCURVE",
"798 186 OFFCURVE",
"843 186 CURVE SMOOTH",
"886 186 OFFCURVE",
"926 170 OFFCURVE",
"926 145 CURVE SMOOTH"
);
},
{
closed = 1;
nodes = (
"776 323 OFFCURVE",
"807 335 OFFCURVE",
"843 335 CURVE SMOOTH",
"879 335 OFFCURVE",
"911 323 OFFCURVE",
"911 305 CURVE SMOOTH",
"911 286 OFFCURVE",
"875 275 OFFCURVE",
"843 275 CURVE SMOOTH",
"811 275 OFFCURVE",
"776 286 OFFCURVE",
"776 305 CURVE SMOOTH"
);
},
{
closed = 1;
nodes = (
"196 579 OFFCURVE",
"177 573 OFFCURVE",
"168 571 CURVE",
"185 622 LINE",
"365 622 LINE",
"365 731 LINE",
"107 731 LINE",
"91 638 OFFCURVE",
"63 548 OFFCURVE",
"46 456 CURVE",
"140 456 LINE",
"153 481 OFFCURVE",
"191 499 OFFCURVE",
"221 499 CURVE SMOOTH",
"250 499 OFFCURVE",
"290 483 OFFCURVE",
"290 442 CURVE SMOOTH",
"290 402 OFFCURVE",
"254 389 OFFCURVE",
"210 389 CURVE SMOOTH",
"162 389 OFFCURVE",
"122 404 OFFCURVE",
"94 429 CURVE",
"32 353 LINE",
"65 310 OFFCURVE",
"130 284 OFFCURVE",
"203 284 CURVE SMOOTH",
"319 284 OFFCURVE",
"401 347 OFFCURVE",
"401 436 CURVE SMOOTH",
"401 520 OFFCURVE",
"327 579 OFFCURVE",
"228 579 CURVE SMOOTH"
);
}
);
width = 1070;
}
);
unicode = 215D;
},
{
glyphname = fivesuperior;
layers = (
{
layerId = "5C573416-F98A-4FCE-B5D6-0256B247F272";
name = Bold;
paths = (
{
closed = 1;
nodes = (
"184 669 OFFCURVE",
"165 663 OFFCURVE",
"156 661 CURVE",
"173 712 LINE",
"353 712 LINE",
"353 821 LINE",
"95 821 LINE",
"79 728 OFFCURVE",
"51 638 OFFCURVE",
"34 546 CURVE",
"128 546 LINE",
"141 571 OFFCURVE",
"179 589 OFFCURVE",
"209 589 CURVE SMOOTH",
"238 589 OFFCURVE",
"278 573 OFFCURVE",
"278 532 CURVE SMOOTH",
"278 492 OFFCURVE",
"242 479 OFFCURVE",
"198 479 CURVE SMOOTH",
"150 479 OFFCURVE",
"110 494 OFFCURVE",
"82 519 CURVE",
"20 443 LINE",
"53 400 OFFCURVE",
"118 374 OFFCURVE",
"191 374 CURVE SMOOTH",
"307 374 OFFCURVE",
"389 437 OFFCURVE",
"389 526 CURVE SMOOTH",
"389 610 OFFCURVE",
"315 669 OFFCURVE",
"216 669 CURVE SMOOTH"
);
}
);
width = 412;
}
);
unicode = 2075;
},
{
glyphname = fraction;
layers = (
{
layerId = "5C573416-F98A-4FCE-B5D6-0256B247F272";
name = Bold;
paths = (
{
closed = 1;
nodes = (
"-106 -10 LINE",
"157 337 LINE",
"428 646 LINE",
"345 721 LINE",
"94 384 LINE",
"-189 65 LINE"
);
}
);
width = 240;
}
);
unicode = 2044;
},
{
glyphname = fiveinferior;
layers = (
{
layerId = "5C573416-F98A-4FCE-B5D6-0256B247F272";
name = Bold;
paths = (
{
closed = 1;
nodes = (
"183 199 OFFCURVE",
"164 193 OFFCURVE",
"155 191 CURVE",
"172 242 LINE",
"352 242 LINE",
"352 351 LINE",
"94 351 LINE",
"78 258 OFFCURVE",
"50 168 OFFCURVE",
"33 76 CURVE",
"127 76 LINE",
"140 101 OFFCURVE",
"178 119 OFFCURVE",
"208 119 CURVE SMOOTH",
"237 119 OFFCURVE",
"277 103 OFFCURVE",
"277 62 CURVE SMOOTH",
"277 22 OFFCURVE",
"241 9 OFFCURVE",
"197 9 CURVE SMOOTH",
"149 9 OFFCURVE",
"109 24 OFFCURVE",
"81 49 CURVE",
"19 -27 LINE",
"52 -70 OFFCURVE",
"117 -96 OFFCURVE",
"190 -96 CURVE SMOOTH",
"306 -96 OFFCURVE",
"388 -33 OFFCURVE",
"388 56 CURVE SMOOTH",
"388 140 OFFCURVE",
"314 199 OFFCURVE",
"215 199 CURVE SMOOTH"
);
}
);
width = 411;
}
);
unicode = 2085;
},
{
glyphname = florin;
layers = (
{
layerId = "5C573416-F98A-4FCE-B5D6-0256B247F272";
name = Bold;
paths = (
{
closed = 1;
nodes = (
"295 -209 OFFCURVE",
"383 -123 OFFCURVE",
"383 2 CURVE SMOOTH",
"383 322 LINE",
"498 322 LINE",
"498 465 LINE",
"383 465 LINE",
"383 529 LINE SMOOTH",
"383 563 OFFCURVE",
"398 580 OFFCURVE",
"429 580 CURVE SMOOTH",
"449 580 OFFCURVE",
"478 574 OFFCURVE",
"500 566 CURVE",
"532 710 LINE",
"479 730 OFFCURVE",
"431 740 OFFCURVE",
"386 740 CURVE SMOOTH",
"270 740 OFFCURVE",
"193 654 OFFCURVE",
"193 522 CURVE SMOOTH",
"193 465 LINE",
"128 465 LINE",
"128 322 LINE",
"193 322 LINE",
"193 -3 LINE SMOOTH",
"193 -30 OFFCURVE",
"178 -46 OFFCURVE",
"153 -46 CURVE SMOOTH",
"135 -46 OFFCURVE",
"117 -38 OFFCURVE",
"106 -26 CURVE",
"28 -155 LINE",
"69 -190 OFFCURVE",
"122 -209 OFFCURVE",
"177 -209 CURVE SMOOTH"
);
}
);
width = 565;
}
);
unicode = 0192;
},
{
glyphname = four;
lastChange = "2014-12-09 13:59:18 +0000";
layers = (
{
layerId = "5C573416-F98A-4FCE-B5D6-0256B247F272";
name = Bold;
paths = (
{
closed = 1;
nodes = (
"472 1 LINE",
"472 137 LINE",
"560 137 LINE",
"560 307 LINE",
"472 307 LINE",
"472 711 LINE",
"342 711 LINE",
"25 307 LINE",
"25 137 LINE",
"282 137 LINE",
"282 1 LINE"
);
},
{
closed = 1;
nodes = (
"304 427 LINE",
"304 307 LINE",
"212 307 LINE"
);
}
);
width = 597;
}
);
leftKerningGroup = four.lnum;
rightKerningGroup = four.lnum;
unicode = 0034;
},
{
glyphname = fourinferior;
layers = (
{
layerId = "5C573416-F98A-4FCE-B5D6-0256B247F272";
name = Bold;
paths = (
{
closed = 1;
nodes = (
"342 -89 LINE",
"342 -6 LINE",
"406 -6 LINE",
"406 101 LINE",
"342 101 LINE",
"342 351 LINE",
"268 351 LINE",
"19 101 LINE",
"19 -6 LINE",
"234 -6 LINE",
"234 -89 LINE"
);
},
{
closed = 1;
nodes = (
"238 222 LINE",
"238 101 LINE",
"120 101 LINE"
);
}
);
width = 431;
}
);
unicode = 2084;
},
{
glyphname = foursuperior;
layers = (
{
layerId = "5C573416-F98A-4FCE-B5D6-0256B247F272";
name = Bold;
paths = (
{
closed = 1;
nodes = (
"342 381 LINE",
"342 464 LINE",
"406 464 LINE",
"406 571 LINE",
"342 571 LINE",
"342 821 LINE",
"268 821 LINE",
"19 571 LINE",
"19 464 LINE",
"234 464 LINE",
"234 381 LINE"
);
},
{
closed = 1;
nodes = (
"238 692 LINE",
"238 571 LINE",
"120 571 LINE"
);
}
);
width = 431;
}
);
unicode = 2074;
},
{
glyphname = g;
lastChange = "2014-12-09 09:46:05 +0000";
layers = (
{
anchors = (
{
name = top;
position = "{264, 526}";
}
);
layerId = "5C573416-F98A-4FCE-B5D6-0256B247F272";
name = Bold;
paths = (
{
closed = 1;
nodes = (
"317 0 OFFCURVE",
"379 27 OFFCURVE",
"409 82 CURVE",
"409 48 LINE SMOOTH",
"409 -46 OFFCURVE",
"348 -82 OFFCURVE",
"279 -82 CURVE SMOOTH",
"218 -82 OFFCURVE",
"161 -54 OFFCURVE",
"123 -18 CURVE",
"23 -122 LINE",
"87 -187 OFFCURVE",
"168 -223 OFFCURVE",
"279 -223 CURVE SMOOTH",
"471 -223 OFFCURVE",
"599 -116 OFFCURVE",
"599 48 CURVE SMOOTH",
"599 526 LINE",
"434 526 LINE",
"434 448 LINE",
"401 505 OFFCURVE",
"341 536 OFFCURVE",
"266 536 CURVE SMOOTH",
"122 536 OFFCURVE",
"21 421 OFFCURVE",
"21 264 CURVE SMOOTH",
"21 115 OFFCURVE",
"113 0 OFFCURVE",
"250 0 CURVE SMOOTH"
);
},
{
closed = 1;
nodes = (
"258 150 OFFCURVE",
"215 194 OFFCURVE",
"215 259 CURVE SMOOTH",
"215 323 OFFCURVE",
"256 376 OFFCURVE",
"310 376 CURVE SMOOTH",
"350 376 OFFCURVE",
"390 346 OFFCURVE",
"409 298 CURVE",
"409 204 LINE",
"384 168 OFFCURVE",
"356 150 OFFCURVE",
"318 150 CURVE SMOOTH"
);
}
);
width = 647;
}
);
leftKerningGroup = a.alt;
rightKerningGroup = a.alt;
unicode = 0067;
},
{
color = 4;
glyphname = gbreve;
lastChange = "2014-12-09 09:46:29 +0000";
layers = (
{
components = (
{
name = g;
transform = "{1, 0, 0, 1, 0, 0}";
}
);
layerId = "5C573416-F98A-4FCE-B5D6-0256B247F272";
name = Bold;
paths = (
{
closed = 1;
nodes = (
"310 649 OFFCURVE",
"282 686 OFFCURVE",
"282 730 CURVE",
"184 730 LINE",
"184 635 OFFCURVE",
"249 568 OFFCURVE",
"343 568 CURVE SMOOTH",
"437 568 OFFCURVE",
"502 635 OFFCURVE",
"502 730 CURVE",
"404 730 LINE",
"400 683 OFFCURVE",
"374 649 OFFCURVE",
"343 649 CURVE SMOOTH"
);
}
);
width = 647;
}
);
leftKerningGroup = a.alt;
rightKerningGroup = a.alt;
unicode = 011F;
},
{
color = 4;
glyphname = gcircumflex;
lastChange = "2014-12-09 10:30:25 +0000";
layers = (
{
components = (
{
name = g;
transform = "{1, 0, 0, 1, 0, 0}";
}
);
layerId = "5C573416-F98A-4FCE-B5D6-0256B247F272";
name = Bold;
paths = (
{
closed = 1;
nodes = (
"401 730 LINE",
"273 730 LINE",
"128 581 LINE",
"297 581 LINE",
"337 643 LINE",
"377 581 LINE",
"546 581 LINE"
);
}
);
width = 647;
}
);
leftKerningGroup = a.alt;
rightKerningGroup = a.alt;
unicode = 011D;
},
{
color = 4;
glyphname = gcommaaccent;
layers = (
{
anchors = (
{
name = top;
position = "{264, 526}";
}
);
components = (
{
name = g;
transform = "{1, 0, 0, 1, 0, 0}";
}
);
layerId = "5C573416-F98A-4FCE-B5D6-0256B247F272";
name = Bold;
paths = (
{
closed = 1;
nodes = (
"342 749 LINE",
"445 749 LINE SMOOTH",
"390 583 LINE",
"255 583 LINE"
);
}
);
width = 647;
}
);
leftKerningGroup = a.alt;
rightKerningGroup = a.alt;
unicode = 0123;
},
{
color = 4;
glyphname = gdotaccent;
lastChange = "2014-12-09 10:47:16 +0000";
layers = (
{
components = (
{
name = g;
transform = "{1, 0, 0, 1, 0, 0}";
}
);
layerId = "5C573416-F98A-4FCE-B5D6-0256B247F272";
name = Bold;
paths = (
{
closed = 1;
nodes = (
"370 561 OFFCURVE",
"408 599 OFFCURVE",
"408 646 CURVE SMOOTH",
"408 692 OFFCURVE",
"370 731 OFFCURVE",
"323 731 CURVE SMOOTH",
"277 731 OFFCURVE",
"239 692 OFFCURVE",
"239 646 CURVE SMOOTH",
"239 599 OFFCURVE",
"277 561 OFFCURVE",
"323 561 CURVE SMOOTH"
);
}
);
width = 647;
}
);
leftKerningGroup = a.alt;
rightKerningGroup = a.alt;
unicode = 0121;
},
{
glyphname = germandbls;
layers = (
{
layerId = "5C573416-F98A-4FCE-B5D6-0256B247F272";
name = Bold;
paths = (
{
closed = 1;
nodes = (
"254 -6 LINE",
"389 -6 OFFCURVE",
"544 40 OFFCURVE",
"544 213 CURVE SMOOTH",
"544 309 OFFCURVE",
"496 374 OFFCURVE",
"421 403 CURVE",
"458 422 OFFCURVE",
"492 479 OFFCURVE",
"492 546 CURVE SMOOTH",
"492 653 OFFCURVE",
"406 714 OFFCURVE",
"288 714 CURVE SMOOTH",
"153 714 OFFCURVE",
"48 635 OFFCURVE",
"48 529 CURVE SMOOTH",
"48 0 LINE",
"228 0 LINE",
"228 494 LINE SMOOTH",
"228 507 OFFCURVE",
"228 554 OFFCURVE",
"269 554 CURVE SMOOTH",
"271 554 OFFCURVE",
"312 554 OFFCURVE",
"312 512 CURVE SMOOTH",
"312 490 OFFCURVE",
"301 473 OFFCURVE",
"273 473 CURVE SMOOTH",
"252 473 LINE",
"252 303 LINE",
"275 303 LINE SMOOTH",
"298 303 OFFCURVE",
"344 285 OFFCURVE",
"344 237 CURVE SMOOTH",
"344 192 OFFCURVE",
"303 168 OFFCURVE",
"254 168 CURVE"
);
}
);
width = 563;
}
);
leftKerningGroup = b;
rightKerningGroup = germandbls;
unicode = 00DF;
},
{
glyphname = greater;
layers = (
{
layerId = "5C573416-F98A-4FCE-B5D6-0256B247F272";
name = Bold;
paths = (
{
closed = 1;
nodes = (
"490 298 LINE",
"66 556 LINE",
"66 354 LINE",
"214 259 LINE",
"66 172 LINE",
"66 -40 LINE",
"490 210 LINE"
);
}
);
width = 521;
}
);
unicode = 003E;
},
{
glyphname = guillemotleft;
layers = (
{
layerId = "5C573416-F98A-4FCE-B5D6-0256B247F272";
name = Bold;
paths = (
{
closed = 1;
nodes = (
"30 210 LINE",
"307 30 LINE",
"307 182 LINE",
"179 259 LINE",
"307 344 LINE",
"307 496 LINE",
"30 298 LINE"
);
},
{
closed = 1;
nodes = (
"381 210 LINE",
"658 30 LINE",
"658 182 LINE",
"530 259 LINE",
"658 344 LINE",
"658 496 LINE",
"381 298 LINE"
);
}
);
width = 713;
}
);
leftKerningGroup = guillemotleft;
rightKerningGroup = guillemotleft;
unicode = 00AB;
},
{
glyphname = guillemotright;
layers = (
{
layerId = "5C573416-F98A-4FCE-B5D6-0256B247F272";
name = Bold;
paths = (
{
closed = 1;
nodes = (
"683 298 LINE",
"406 496 LINE",
"406 344 LINE",
"534 259 LINE",
"406 182 LINE",
"406 30 LINE",
"683 210 LINE"
);
},
{
closed = 1;
nodes = (
"332 298 LINE",
"55 496 LINE",
"55 344 LINE",
"183 259 LINE",
"55 182 LINE",
"55 30 LINE",
"332 210 LINE"
);
}
);
width = 713;
}
);
leftKerningGroup = guillemotright;
rightKerningGroup = guillemotright;
unicode = 00BB;
},
{
glyphname = guilsinglleft;
layers = (
{
layerId = "5C573416-F98A-4FCE-B5D6-0256B247F272";
name = Bold;
paths = (
{
closed = 1;
nodes = (
"30 210 LINE",
"307 30 LINE",
"307 182 LINE",
"179 259 LINE",
"307 344 LINE",
"307 496 LINE",
"30 298 LINE"
);
}
);
width = 362;
}
);
leftKerningGroup = guillemotleft;
rightKerningGroup = guillemotleft;
unicode = 2039;
},
{
glyphname = guilsinglright;
layers = (
{
layerId = "5C573416-F98A-4FCE-B5D6-0256B247F272";
name = Bold;
paths = (
{
closed = 1;
nodes = (
"332 298 LINE",
"55 496 LINE",
"55 344 LINE",
"183 259 LINE",
"55 182 LINE",
"55 30 LINE",
"332 210 LINE"
);
}
);
width = 362;
}
);
leftKerningGroup = guillemotright;
rightKerningGroup = guillemotright;
unicode = 203A;
},
{
glyphname = h;
lastChange = "2014-12-09 10:28:15 +0000";
layers = (
{
anchors = (
{
name = center;
position = "{311, 263}";
},
{
name = top;
position = "{327, 733}";
}
);
layerId = "5C573416-F98A-4FCE-B5D6-0256B247F272";
name = Bold;
paths = (
{
closed = 1;
nodes = (
"577 346 LINE SMOOTH",
"577 423 OFFCURVE",
"560 536 OFFCURVE",
"412 536 CURVE SMOOTH",
"338 536 OFFCURVE",
"275 505 OFFCURVE",
"238 448 CURVE",
"238 730 LINE",
"48 730 LINE",
"48 0 LINE",
"238 0 LINE",
"238 295 LINE",
"256 341 OFFCURVE",
"301 370 OFFCURVE",
"326 370 CURVE SMOOTH",
"361 370 OFFCURVE",
"387 348 OFFCURVE",
"387 296 CURVE SMOOTH",
"387 0 LINE",
"577 0 LINE"
);
}
);
width = 621;
}
);
leftKerningGroup = b;
rightKerningGroup = h;
unicode = 0068;
},
{
glyphname = hbar;
layers = (
{
layerId = "5C573416-F98A-4FCE-B5D6-0256B247F272";
name = Bold;
paths = (
{
closed = 1;
nodes = (
"577 346 LINE SMOOTH",
"577 423 OFFCURVE",
"560 536 OFFCURVE",
"412 536 CURVE SMOOTH",
"338 536 OFFCURVE",
"275 505 OFFCURVE",
"238 448 CURVE",
"238 579 LINE",
"353 579 LINE",
"353 688 LINE",
"238 688 LINE",
"238 730 LINE",
"48 730 LINE",
"48 688 LINE",
"18 688 LINE",
"18 579 LINE",
"48 579 LINE",
"48 0 LINE",
"238 0 LINE",
"238 295 LINE",
"256 341 OFFCURVE",
"301 370 OFFCURVE",
"326 370 CURVE SMOOTH",
"361 370 OFFCURVE",
"387 348 OFFCURVE",
"387 296 CURVE SMOOTH",
"387 0 LINE",
"577 0 LINE"
);
}
);
width = 621;
}
);
leftKerningGroup = b;
rightKerningGroup = h;
unicode = 0127;
},
{
glyphname = hyphen;
layers = (
{
layerId = "5C573416-F98A-4FCE-B5D6-0256B247F272";
name = Bold;
paths = (
{
closed = 1;
nodes = (
"363 191 LINE",
"363 361 LINE",
"50 361 LINE",
"50 191 LINE"
);
}
);
width = 413;
}
);
leftKerningGroup = emdash;
rightKerningGroup = emdash;
unicode = 002D;
},
{
color = 4;
glyphname = ij;
lastChange = "2014-12-09 11:31:54 +0000";
layers = (
{
components = (
{
name = i;
transform = "{1, 0, 0, 1, 0, 0}";
}
);
layerId = "5C573416-F98A-4FCE-B5D6-0256B247F272";
name = Bold;
paths = (
{
closed = 1;
nodes = (
"337 -213 LINE",
"527 -213 LINE",
"527 526 LINE",
"337 526 LINE"
);
},
{
closed = 1;
nodes = (
"477 561 OFFCURVE",
"513 596 OFFCURVE",
"513 640 CURVE SMOOTH",
"513 684 OFFCURVE",
"477 720 OFFCURVE",
"433 720 CURVE SMOOTH",
"390 720 OFFCURVE",
"354 684 OFFCURVE",
"354 640 CURVE",
"354 596 OFFCURVE",
"390 561 OFFCURVE",
"433 561 CURVE SMOOTH"
);
}
);
width = 576;
}
);
leftKerningGroup = dotlessi;
rightKerningGroup = dotlessi;
unicode = 0133;
},
{
glyphname = j;
lastChange = "2015-01-03 10:58:19 +0000";
layers = (
{
components = (
{
name = dotaccent;
transform = "{1, 0, 0, 1, 0, 0}";
}
);
layerId = "5C573416-F98A-4FCE-B5D6-0256B247F272";
name = Bold;
paths = (
{
closed = 1;
nodes = (
"48 -213 LINE",
"238 -213 LINE",
"238 525 LINE",
"48 525 LINE"
);
}
);
width = 286;
}
);
leftKerningGroup = dotlessi;
rightKerningGroup = dotlessi;
unicode = 006A;
},
{
glyphname = k;
lastChange = "2014-12-09 11:24:15 +0000";
layers = (
{
anchors = (
{
name = bottom;
position = "{313, 0}";
}
);
layerId = "5C573416-F98A-4FCE-B5D6-0256B247F272";
name = Bold;
paths = (
{
closed = 1;
nodes = (
"596 0 LINE",
"397 296 LINE",
"578 526 LINE",
"378 526 LINE",
"238 331 LINE",
"238 730 LINE",
"48 730 LINE",
"48 0 LINE",
"238 0 LINE",
"238 150 LINE",
"276 192 LINE",
"395 0 LINE"
);
}
);
width = 582;
}
);
leftKerningGroup = b;
rightKerningGroup = k;
unicode = 006B;
},
{
glyphname = kgreenlandic;
layers = (
{
layerId = "5C573416-F98A-4FCE-B5D6-0256B247F272";
name = Bold;
paths = (
{
closed = 1;
nodes = (
"596 0 LINE",
"397 296 LINE",
"578 526 LINE",
"378 526 LINE",
"238 331 LINE",
"238 526 LINE",
"48 526 LINE",
"48 0 LINE",
"238 0 LINE",
"238 150 LINE",
"276 192 LINE",
"395 0 LINE"
);
}
);
width = 582;
}
);
unicode = 0138;
},
{
color = 4;
glyphname = l;
lastChange = "2014-12-09 11:24:29 +0000";
layers = (
{
anchors = (
{
name = bottom;
position = "{155, 0}";
},
{
name = top;
position = "{143, 710}";
},
{
name = topright;
position = "{223, 508}";
}
);
layerId = "5C573416-F98A-4FCE-B5D6-0256B247F272";
name = Bold;
paths = (
{
closed = 1;
nodes = (
"48 0 LINE",
"238 0 LINE",
"238 730 LINE",
"48 730 LINE"
);
}
);
width = 286;
}
);
leftKerningGroup = l.alt;
rightKerningGroup = l.alt;
unicode = 006C;
},
{
glyphname = l.alt;
layers = (
{
layerId = "5C573416-F98A-4FCE-B5D6-0256B247F272";
name = Bold;
paths = (
{
closed = 1;
nodes = (
"44 142 LINE SMOOTH",
"44 44 OFFCURVE",
"101 -10 OFFCURVE",
"202 -10 CURVE SMOOTH",
"252 -10 OFFCURVE",
"314 3 OFFCURVE",
"359 24 CURVE",
"335 164 LINE",
"319 155 OFFCURVE",
"299 149 OFFCURVE",
"283 149 CURVE SMOOTH",
"251 149 OFFCURVE",
"234 170 OFFCURVE",
"234 209 CURVE SMOOTH",
"234 730 LINE",
"44 730 LINE"
);
}
);
width = 355;
}
);
leftKerningGroup = l;
rightKerningGroup = f_f_l;
},
{
color = 4;
glyphname = ldot;
lastChange = "2014-12-09 11:29:45 +0000";
layers = (
{
anchors = (
{
name = middleright;
position = "{255, 326}";
}
);
components = (
{
name = l;
transform = "{1, 0, 0, 1, 0, 0}";
}
);
layerId = "5C573416-F98A-4FCE-B5D6-0256B247F272";
name = Bold;
paths = (
{
closed = 1;
nodes = (
"438 272 OFFCURVE",
"484 317 OFFCURVE",
"484 371 CURVE SMOOTH",
"484 424 OFFCURVE",
"438 470 OFFCURVE",
"384 470 CURVE SMOOTH",
"331 470 OFFCURVE",
"286 424 OFFCURVE",
"286 371 CURVE SMOOTH",
"286 317 OFFCURVE",
"331 272 OFFCURVE",
"384 272 CURVE SMOOTH"
);
}
);
width = 490;
}
);
leftKerningGroup = l;
unicode = 0140;
},
{
glyphname = less;
layers = (
{
layerId = "5C573416-F98A-4FCE-B5D6-0256B247F272";
name = Bold;
paths = (
{
closed = 1;
nodes = (
"31 210 LINE",
"455 -40 LINE",
"455 172 LINE",
"307 259 LINE",
"455 354 LINE",
"455 556 LINE",
"31 298 LINE"
);
}
);
width = 521;
}
);
unicode = 003C;
},
{
glyphname = logicalnot;
layers = (
{
layerId = "5C573416-F98A-4FCE-B5D6-0256B247F272";
name = Bold;
paths = (
{
closed = 1;
nodes = (
"49 431 LINE",
"49 261 LINE",
"418 261 LINE",
"418 89 LINE",
"578 89 LINE",
"578 431 LINE"
);
}
);
width = 637;
}
);
unicode = 00AC;
},
{
glyphname = lslash;
layers = (
{
layerId = "5C573416-F98A-4FCE-B5D6-0256B247F272";
name = Bold;
paths = (
{
closed = 1;
nodes = (
"72 142 LINE SMOOTH",
"72 44 OFFCURVE",
"129 -10 OFFCURVE",
"230 -10 CURVE SMOOTH",
"280 -10 OFFCURVE",
"342 3 OFFCURVE",
"387 24 CURVE",
"363 164 LINE",
"347 155 OFFCURVE",
"327 149 OFFCURVE",
"311 149 CURVE SMOOTH",
"279 149 OFFCURVE",
"262 170 OFFCURVE",
"262 209 CURVE SMOOTH",
"262 364 LINE",
"388 426 LINE",
"345 527 LINE",
"262 486 LINE",
"262 730 LINE",
"72 730 LINE",
"72 393 LINE",
"-11 353 LINE",
"32 252 LINE",
"72 271 LINE"
);
}
);
width = 387;
}
);
leftKerningGroup = l;
rightKerningGroup = f_f_l;
unicode = 0142;
},
{
glyphname = m;
layers = (
{
layerId = "5C573416-F98A-4FCE-B5D6-0256B247F272";
name = Bold;
paths = (
{
closed = 1;
nodes = (
"896 346 LINE SMOOTH",
"896 418 OFFCURVE",
"879 536 OFFCURVE",
"741 536 CURVE SMOOTH",
"659 536 OFFCURVE",
"591 502 OFFCURVE",
"554 445 CURVE",
"539 492 OFFCURVE",
"498 536 OFFCURVE",
"412 536 CURVE SMOOTH",
"323 536 OFFCURVE",
"256 505 OFFCURVE",
"219 448 CURVE",
"219 526 LINE",
"48 526 LINE",
"48 0 LINE",
"238 0 LINE",
"238 295 LINE",
"254 339 OFFCURVE",
"294 370 OFFCURVE",
"324 370 CURVE SMOOTH",
"353 370 OFFCURVE",
"377 348 OFFCURVE",
"377 296 CURVE SMOOTH",
"377 0 LINE",
"567 0 LINE",
"567 295 LINE",
"583 339 OFFCURVE",
"623 370 OFFCURVE",
"653 370 CURVE SMOOTH",
"682 370 OFFCURVE",
"706 348 OFFCURVE",
"706 296 CURVE SMOOTH",
"706 0 LINE",
"896 0 LINE"
);
}
);
width = 940;
}
);
leftKerningGroup = eng;
rightKerningGroup = eng;
unicode = 006D;
},
{
glyphname = minus;
layers = (
{
layerId = "5C573416-F98A-4FCE-B5D6-0256B247F272";
name = Bold;
paths = (
{
closed = 1;
nodes = (
"459 280 LINE",
"459 430 LINE",
"55 430 LINE",
"55 280 LINE"
);
}
);
width = 514;
}
);
unicode = 2212;
},
{
color = 4;
glyphname = mu;
lastChange = "2014-12-08 15:59:46 +0000";
layers = (
{
layerId = "5C573416-F98A-4FCE-B5D6-0256B247F272";
name = Bold;
paths = (
{
closed = 1;
nodes = (
"75 -213 LINE",
"253 -213 LINE",
"253 26 LINE",
"266 0 OFFCURVE",
"287 -11 OFFCURVE",
"310 -11 CURVE SMOOTH",
"362 -11 OFFCURVE",
"427 41 OFFCURVE",
"444 82 CURVE",
"450 0 LINE",
"604 0 LINE",
"604 526 LINE",
"414 526 LINE",
"414 204 LINE",
"383 159 OFFCURVE",
"351 150 OFFCURVE",
"327 150 CURVE SMOOTH",
"285 150 OFFCURVE",
"265 177 OFFCURVE",
"265 223 CURVE SMOOTH",
"265 526 LINE",
"75 526 LINE"
);
}
);
width = 708;
}
);
unicode = 00B5;
},
{
glyphname = multiply;
layers = (
{
layerId = "5C573416-F98A-4FCE-B5D6-0256B247F272";
name = Bold;
paths = (
{
closed = 1;
nodes = (
"363 278 LINE",
"443 358 LINE",
"326 476 LINE",
"246 396 LINE",
"166 476 LINE",
"47 358 LINE",
"127 277 LINE",
"41 191 LINE",
"158 73 LINE",
"245 160 LINE",
"332 73 LINE",
"451 191 LINE"
);
}
);
width = 492;
}
);
unicode = 00D7;
},
{
glyphname = n;
lastChange = "2014-12-09 11:24:40 +0000";
layers = (
{
anchors = (
{
name = bottom;
position = "{317, 0}";
},
{
name = top;
position = "{311, 526}";
}
);
layerId = "5C573416-F98A-4FCE-B5D6-0256B247F272";
name = Bold;
paths = (
{
closed = 1;
nodes = (
"577 346 LINE SMOOTH",
"577 418 OFFCURVE",
"560 536 OFFCURVE",
"417 536 CURVE SMOOTH",
"326 536 OFFCURVE",
"256 505 OFFCURVE",
"219 448 CURVE",
"219 526 LINE",
"48 526 LINE",
"48 0 LINE",
"238 0 LINE",
"238 295 LINE",
"255 339 OFFCURVE",
"297 370 OFFCURVE",
"329 370 CURVE SMOOTH",
"360 370 OFFCURVE",
"387 348 OFFCURVE",
"387 296 CURVE SMOOTH",
"387 0 LINE",
"577 0 LINE"
);
}
);
width = 621;
}
);
leftKerningGroup = eng;
rightKerningGroup = eng;
unicode = 006E;
},
{
glyphname = nine;
lastChange = "2014-12-09 13:59:21 +0000";
layers = (
{
layerId = "5C573416-F98A-4FCE-B5D6-0256B247F272";
name = Bold;
paths = (
{
closed = 1;
nodes = (
"36 333 OFFCURVE",
"143 233 OFFCURVE",
"286 233 CURVE SMOOTH",
"333 233 OFFCURVE",
"368 244 OFFCURVE",
"394 267 CURVE",
"391 196 OFFCURVE",
"351 154 OFFCURVE",
"286 154 CURVE SMOOTH",
"241 154 OFFCURVE",
"197 173 OFFCURVE",
"162 208 CURVE",
"57 86 LINE",
"120 23 OFFCURVE",
"197 -10 OFFCURVE",
"283 -10 CURVE SMOOTH",
"461 -10 OFFCURVE",
"569 132 OFFCURVE",
"569 366 CURVE SMOOTH",
"569 587 OFFCURVE",
"472 716 OFFCURVE",
"302 716 CURVE SMOOTH",
"150 716 OFFCURVE",
"36 606 OFFCURVE",
"36 466 CURVE SMOOTH"
);
},
{
closed = 1;
nodes = (
"347 557 OFFCURVE",
"387 515 OFFCURVE",
"387 466 CURVE SMOOTH",
"387 419 OFFCURVE",
"349 382 OFFCURVE",
"302 382 CURVE SMOOTH",
"255 382 OFFCURVE",
"217 419 OFFCURVE",
"217 466 CURVE SMOOTH",
"217 515 OFFCURVE",
"257 557 OFFCURVE",
"302 557 CURVE SMOOTH"
);
}
);
width = 608;
}
);
unicode = 0039;
},
{
glyphname = nineinferior;
layers = (
{
layerId = "5C573416-F98A-4FCE-B5D6-0256B247F272";
name = Bold;
paths = (
{
closed = 1;
nodes = (
"25 116 OFFCURVE",
"102 54 OFFCURVE",
"213 54 CURVE SMOOTH",
"247 54 OFFCURVE",
"291 60 OFFCURVE",
"312 74 CURVE",
"310 32 OFFCURVE",
"270 7 OFFCURVE",
"209 7 CURVE SMOOTH",
"168 7 OFFCURVE",
"129 19 OFFCURVE",
"106 40 CURVE",
"44 -37 LINE",
"84 -76 OFFCURVE",
"142 -96 OFFCURVE",
"205 -96 CURVE SMOOTH",
"334 -96 OFFCURVE",
"412 -8 OFFCURVE",
"412 135 CURVE SMOOTH",
"412 274 OFFCURVE",
"339 354 OFFCURVE",
"219 354 CURVE SMOOTH",
"108 354 OFFCURVE",
"25 286 OFFCURVE",
"25 199 CURVE SMOOTH"
);
},
{
closed = 1;
nodes = (
"266 254 OFFCURVE",
"307 228 OFFCURVE",
"307 199 CURVE SMOOTH",
"307 171 OFFCURVE",
"267 149 OFFCURVE",
"218 149 CURVE SMOOTH",
"169 149 OFFCURVE",
"129 171 OFFCURVE",
"129 199 CURVE SMOOTH",
"129 228 OFFCURVE",
"169 254 OFFCURVE",
"217 254 CURVE SMOOTH"
);
}
);
width = 441;
}
);
unicode = 2089;
},
{
glyphname = ninesuperior;
layers = (
{
layerId = "5C573416-F98A-4FCE-B5D6-0256B247F272";
name = Bold;
paths = (
{
closed = 1;
nodes = (
"25 582 OFFCURVE",
"102 520 OFFCURVE",
"213 520 CURVE SMOOTH",
"247 520 OFFCURVE",
"291 526 OFFCURVE",
"312 540 CURVE",
"310 498 OFFCURVE",
"270 473 OFFCURVE",
"209 473 CURVE SMOOTH",
"168 473 OFFCURVE",
"129 485 OFFCURVE",
"106 506 CURVE",
"44 429 LINE",
"84 390 OFFCURVE",
"142 370 OFFCURVE",
"205 370 CURVE SMOOTH",
"334 370 OFFCURVE",
"412 458 OFFCURVE",
"412 601 CURVE SMOOTH",
"412 740 OFFCURVE",
"339 820 OFFCURVE",
"219 820 CURVE SMOOTH",
"108 820 OFFCURVE",
"25 752 OFFCURVE",
"25 665 CURVE SMOOTH"
);
},
{
closed = 1;
nodes = (
"266 720 OFFCURVE",
"307 694 OFFCURVE",
"307 665 CURVE SMOOTH",
"307 637 OFFCURVE",
"267 615 OFFCURVE",
"218 615 CURVE SMOOTH",
"169 615 OFFCURVE",
"129 637 OFFCURVE",
"129 665 CURVE SMOOTH",
"129 694 OFFCURVE",
"169 720 OFFCURVE",
"217 720 CURVE SMOOTH"
);
}
);
width = 441;
}
);
unicode = 2079;
},
{
glyphname = numbersign;
layers = (
{
layerId = "5C573416-F98A-4FCE-B5D6-0256B247F272";
name = Bold;
paths = (
{
closed = 1;
nodes = (
"721 527 LINE",
"594 527 LINE",
"640 710 LINE",
"489 710 LINE",
"444 527 LINE",
"384 527 LINE",
"430 710 LINE",
"279 710 LINE",
"234 527 LINE",
"87 527 LINE",
"87 397 LINE",
"202 397 LINE",
"182 310 LINE",
"36 310 LINE",
"36 170 LINE",
"148 170 LINE",
"106 0 LINE",
"257 0 LINE",
"298 170 LINE",
"358 170 LINE",
"316 0 LINE",
"467 0 LINE",
"508 170 LINE",
"670 170 LINE",
"670 310 LINE",
"542 310 LINE",
"562 397 LINE",
"721 397 LINE"
);
},
{
closed = 1;
nodes = (
"332 310 LINE",
"352 397 LINE",
"412 397 LINE",
"392 310 LINE"
);
}
);
width = 757;
}
);
unicode = 0023;
},
{
glyphname = o;
lastChange = "2014-12-09 09:41:07 +0000";
layers = (
{
anchors = (
{
name = top;
position = "{307, 526}";
}
);
layerId = "5C573416-F98A-4FCE-B5D6-0256B247F272";
name = Bold;
paths = (
{
closed = 1;
nodes = (
"495 -10 OFFCURVE",
"595 119 OFFCURVE",
"595 263 CURVE SMOOTH",
"595 408 OFFCURVE",
"495 536 OFFCURVE",
"307 536 CURVE SMOOTH",
"119 536 OFFCURVE",
"19 408 OFFCURVE",
"19 263 CURVE SMOOTH",
"19 119 OFFCURVE",
"119 -10 OFFCURVE",
"307 -10 CURVE SMOOTH"
);
},
{
closed = 1;
nodes = (
"214 333 OFFCURVE",
"253 376 OFFCURVE",
"307 376 CURVE SMOOTH",
"361 376 OFFCURVE",
"400 333 OFFCURVE",
"400 263 CURVE SMOOTH",
"400 193 OFFCURVE",
"361 150 OFFCURVE",
"307 150 CURVE SMOOTH",
"253 150 OFFCURVE",
"214 193 OFFCURVE",
"214 263 CURVE SMOOTH"
);
}
);
width = 614;
}
);
leftKerningGroup = c;
rightKerningGroup = o;
unicode = 006F;
},
{
glyphname = oe;
layers = (
{
layerId = "5C573416-F98A-4FCE-B5D6-0256B247F272";
name = Bold;
paths = (
{
closed = 1;
nodes = (
"375 -10 OFFCURVE",
"423 10 OFFCURVE",
"497 70 CURVE",
"571 11 OFFCURVE",
"621 -10 OFFCURVE",
"692 -10 CURVE SMOOTH",
"807 -10 OFFCURVE",
"905 44 OFFCURVE",
"951 133 CURVE",
"795 179 LINE",
"782 146 OFFCURVE",
"741 122 OFFCURVE",
"698 122 CURVE SMOOTH",
"646 122 OFFCURVE",
"606 157 OFFCURVE",
"603 205 CURVE",
"972 205 LINE",
"975 221 OFFCURVE",
"977 243 OFFCURVE",
"977 263 CURVE SMOOTH",
"977 422 OFFCURVE",
"859 536 OFFCURVE",
"693 536 CURVE SMOOTH",
"616 536 OFFCURVE",
"559 511 OFFCURVE",
"497 450 CURVE",
"443 509 OFFCURVE",
"383 536 OFFCURVE",
"303 536 CURVE SMOOTH",
"137 536 OFFCURVE",
"19 423 OFFCURVE",
"19 263 CURVE SMOOTH",
"19 103 OFFCURVE",
"137 -10 OFFCURVE",
"305 -10 CURVE SMOOTH"
);
},
{
closed = 1;
nodes = (
"251 150 OFFCURVE",
"214 195 OFFCURVE",
"214 263 CURVE SMOOTH",
"214 331 OFFCURVE",
"251 376 OFFCURVE",
"307 376 CURVE SMOOTH",
"363 376 OFFCURVE",
"400 331 OFFCURVE",
"400 263 CURVE SMOOTH",
"400 195 OFFCURVE",
"363 150 OFFCURVE",
"307 150 CURVE SMOOTH"
);
},
{
closed = 1;
nodes = (
"597 319 LINE",
"602 369 OFFCURVE",
"637 401 OFFCURVE",
"687 401 CURVE SMOOTH",
"736 401 OFFCURVE",
"771 369 OFFCURVE",
"777 319 CURVE"
);
}
);
width = 991;
}
);
leftKerningGroup = c;
rightKerningGroup = ae;
unicode = 0153;
},
{
glyphname = one;
lastChange = "2014-12-09 14:02:07 +0000";
layers = (
{
layerId = "5C573416-F98A-4FCE-B5D6-0256B247F272";
name = Bold;
paths = (
{
closed = 1;
nodes = (
"438 0 LINE",
"438 715 LINE",
"244 715 LINE",
"51 608 LINE",
"119 467 LINE",
"244 532 LINE",
"244 0 LINE"
);
}
);
width = 550;
}
);
rightKerningGroup = one.lnum;
unicode = 0031;
},
{
color = 4;
glyphname = oneeighth;
lastChange = "2014-12-09 14:04:09 +0000";
layers = (
{
layerId = "5C573416-F98A-4FCE-B5D6-0256B247F272";
name = Bold;
paths = (
{
closed = 1;
nodes = (
"260 -10 LINE",
"523 337 LINE",
"794 646 LINE",
"711 721 LINE",
"460 384 LINE",
"177 65 LINE"
);
},
{
closed = 1;
nodes = (
"244 395 LINE",
"244 731 LINE",
"134 731 LINE",
"133 729 OFFCURVE",
"82 672 OFFCURVE",
"41 672 CURVE",
"41 563 LINE",
"72 563 OFFCURVE",
"120 597 OFFCURVE",
"134 616 CURVE",
"134 395 LINE",
"58 395 LINE",
"58 288 LINE",
"311 288 LINE",
"311 395 LINE"
);
},
{
closed = 1;
nodes = (
"1003 182 OFFCURVE",
"970 212 OFFCURVE",
"924 235 CURVE",
"960 251 OFFCURVE",
"987 278 OFFCURVE",
"987 317 CURVE SMOOTH",
"987 389 OFFCURVE",
"893 440 OFFCURVE",
"810 440 CURVE SMOOTH",
"727 440 OFFCURVE",
"635 388 OFFCURVE",
"635 315 CURVE SMOOTH",
"635 274 OFFCURVE",
"664 249 OFFCURVE",
"697 235 CURVE",
"654 213 OFFCURVE",
"618 187 OFFCURVE",
"618 135 CURVE SMOOTH",
"618 54 OFFCURVE",
"706 -6 OFFCURVE",
"811 -6 CURVE SMOOTH",
"915 -6 OFFCURVE",
"1003 53 OFFCURVE",
"1003 133 CURVE SMOOTH"
);
},
{
closed = 1;
nodes = (
"893 121 OFFCURVE",
"854 103 OFFCURVE",
"811 103 CURVE SMOOTH",
"770 103 OFFCURVE",
"728 120 OFFCURVE",
"728 145 CURVE SMOOTH",
"728 169 OFFCURVE",
"765 186 OFFCURVE",
"810 186 CURVE SMOOTH",
"853 186 OFFCURVE",
"893 170 OFFCURVE",
"893 145 CURVE SMOOTH"
);
},
{
closed = 1;
nodes = (
"743 323 OFFCURVE",
"774 335 OFFCURVE",
"810 335 CURVE SMOOTH",
"846 335 OFFCURVE",
"878 323 OFFCURVE",
"878 305 CURVE SMOOTH",
"878 286 OFFCURVE",
"842 275 OFFCURVE",
"810 275 CURVE SMOOTH",
"778 275 OFFCURVE",
"743 286 OFFCURVE",
"743 305 CURVE SMOOTH"
);
}
);
width = 1036;
}
);
unicode = 215B;
},
{
color = 4;
glyphname = onesuperior;
lastChange = "2014-12-09 14:04:05 +0000";
layers = (
{
layerId = "5C573416-F98A-4FCE-B5D6-0256B247F272";
name = Bold;
paths = (
{
closed = 1;
nodes = (
"260 378 LINE",
"260 821 LINE",
"150 821 LINE",
"33 750 LINE",
"81 666 LINE",
"150 706 LINE",
"150 378 LINE"
);
}
);
width = 321;
}
);
unicode = 00B9;
},
{
color = 4;
glyphname = onehalf;
lastChange = "2014-12-09 14:04:05 +0000";
layers = (
{
components = (
{
name = onesuperior;
transform = "{1, 0, 0, 1, -20, -91}";
}
);
layerId = "5C573416-F98A-4FCE-B5D6-0256B247F272";
name = Bold;
paths = (
{
closed = 1;
nodes = (
"254 -10 LINE",
"517 337 LINE",
"788 646 LINE",
"705 721 LINE",
"454 384 LINE",
"171 65 LINE"
);
},
{
closed = 1;
nodes = (
"996 0 LINE",
"996 107 LINE",
"790 107 LINE",
"790 133 OFFCURVE",
"822 146 OFFCURVE",
"870 159 CURVE SMOOTH",
"921 173 OFFCURVE",
"995 210 OFFCURVE",
"995 300 CURVE SMOOTH",
"995 396 OFFCURVE",
"930 445 OFFCURVE",
"816 445 CURVE SMOOTH",
"714 445 OFFCURVE",
"640 413 OFFCURVE",
"611 375 CURVE",
"679 295 LINE",
"705 318 OFFCURVE",
"748 339 OFFCURVE",
"799 339 CURVE SMOOTH",
"843 339 OFFCURVE",
"871 331 OFFCURVE",
"871 301 CURVE SMOOTH",
"871 257 OFFCURVE",
"807 237 OFFCURVE",
"744 210 CURVE SMOOTH",
"636 165 OFFCURVE",
"609 114 OFFCURVE",
"609 0 CURVE"
);
}
);
width = 1033;
}
);
unicode = 00BD;
},
{
glyphname = twoinferior;
layers = (
{
layerId = "5C573416-F98A-4FCE-B5D6-0256B247F272";
name = Bold;
paths = (
{
closed = 1;
nodes = (
"413 -90 LINE",
"413 17 LINE",
"207 17 LINE",
"207 43 OFFCURVE",
"239 56 OFFCURVE",
"287 69 CURVE SMOOTH",
"338 83 OFFCURVE",
"412 120 OFFCURVE",
"412 210 CURVE SMOOTH",
"412 306 OFFCURVE",
"347 355 OFFCURVE",
"233 355 CURVE SMOOTH",
"131 355 OFFCURVE",
"57 323 OFFCURVE",
"28 285 CURVE",
"96 205 LINE",
"122 228 OFFCURVE",
"165 249 OFFCURVE",
"216 249 CURVE SMOOTH",
"260 249 OFFCURVE",
"288 241 OFFCURVE",
"288 211 CURVE SMOOTH",
"288 167 OFFCURVE",
"224 147 OFFCURVE",
"161 120 CURVE SMOOTH",
"53 75 OFFCURVE",
"26 24 OFFCURVE",
"26 -90 CURVE"
);
}
);
width = 447;
}
);
unicode = 2082;
},
{
color = 4;
glyphname = oneinferior;
lastChange = "2014-12-09 14:04:01 +0000";
layers = (
{
layerId = "5C573416-F98A-4FCE-B5D6-0256B247F272";
name = Bold;
paths = (
{
closed = 1;
nodes = (
"260 -90 LINE",
"260 353 LINE",
"150 353 LINE",
"33 282 LINE",
"81 198 LINE",
"150 238 LINE",
"150 -90 LINE"
);
}
);
width = 370;
}
);
unicode = 2081;
},
{
glyphname = onequarter;
lastChange = "2014-12-09 14:04:26 +0000";
layers = (
{
components = (
{
name = onesuperior;
transform = "{1, 0, 0, 1, -18, -91}";
}
);
layerId = "5C573416-F98A-4FCE-B5D6-0256B247F272";
name = Bold;
paths = (
{
closed = 1;
nodes = (
"297 -10 LINE",
"560 337 LINE",
"831 646 LINE",
"748 721 LINE",
"497 384 LINE",
"214 65 LINE"
);
},
{
closed = 1;
nodes = (
"922 1 LINE",
"922 84 LINE",
"986 84 LINE",
"986 191 LINE",
"922 191 LINE",
"922 441 LINE",
"848 441 LINE",
"599 191 LINE",
"599 84 LINE",
"814 84 LINE",
"814 1 LINE"
);
},
{
closed = 1;
nodes = (
"818 312 LINE",
"818 191 LINE",
"700 191 LINE"
);
}
);
width = 1020;
}
);
unicode = 00BC;
},
{
glyphname = onethird;
lastChange = "2014-12-09 14:04:36 +0000";
layers = (
{
components = (
{
name = onesuperior;
transform = "{1, 0, 0, 1, -17, -91}";
}
);
layerId = "5C573416-F98A-4FCE-B5D6-0256B247F272";
name = Bold;
paths = (
{
closed = 1;
nodes = (
"247 -10 LINE",
"510 337 LINE",
"781 646 LINE",
"698 721 LINE",
"447 384 LINE",
"164 65 LINE"
);
},
{
closed = 1;
nodes = (
"907 -6 OFFCURVE",
"1008 29 OFFCURVE",
"1008 122 CURVE SMOOTH",
"1008 178 OFFCURVE",
"967 227 OFFCURVE",
"900 236 CURVE",
"960 245 OFFCURVE",
"998 278 OFFCURVE",
"998 326 CURVE SMOOTH",
"998 394 OFFCURVE",
"919 446 OFFCURVE",
"814 446 CURVE SMOOTH",
"745 446 OFFCURVE",
"671 427 OFFCURVE",
"636 390 CURVE",
"705 301 LINE",
"733 327 OFFCURVE",
"763 345 OFFCURVE",
"815 345 CURVE SMOOTH",
"839 345 OFFCURVE",
"882 341 OFFCURVE",
"882 319 CURVE SMOOTH",
"882 289 OFFCURVE",
"825 279 OFFCURVE",
"748 279 CURVE SMOOTH",
"724 279 LINE",
"724 180 LINE",
"749 180 LINE SMOOTH",
"842 180 OFFCURVE",
"897 170 OFFCURVE",
"897 139 CURVE SMOOTH",
"897 113 OFFCURVE",
"855 104 OFFCURVE",
"807 104 CURVE SMOOTH",
"753 104 OFFCURVE",
"721 125 OFFCURVE",
"695 149 CURVE",
"638 65 LINE",
"664 16 OFFCURVE",
"726 -6 OFFCURVE",
"809 -6 CURVE SMOOTH"
);
}
);
width = 1041;
}
);
unicode = 2153;
},
{
glyphname = threeinferior;
layers = (
{
layerId = "5C573416-F98A-4FCE-B5D6-0256B247F272";
name = Bold;
paths = (
{
closed = 1;
nodes = (
"292 -96 OFFCURVE",
"393 -61 OFFCURVE",
"393 32 CURVE SMOOTH",
"393 88 OFFCURVE",
"352 137 OFFCURVE",
"285 146 CURVE",
"345 155 OFFCURVE",
"383 188 OFFCURVE",
"383 236 CURVE SMOOTH",
"383 304 OFFCURVE",
"304 356 OFFCURVE",
"199 356 CURVE SMOOTH",
"130 356 OFFCURVE",
"56 337 OFFCURVE",
"21 300 CURVE",
"90 211 LINE",
"118 237 OFFCURVE",
"148 255 OFFCURVE",
"200 255 CURVE SMOOTH",
"224 255 OFFCURVE",
"267 251 OFFCURVE",
"267 229 CURVE SMOOTH",
"267 199 OFFCURVE",
"210 189 OFFCURVE",
"133 189 CURVE SMOOTH",
"109 189 LINE",
"109 90 LINE",
"134 90 LINE SMOOTH",
"227 90 OFFCURVE",
"282 80 OFFCURVE",
"282 49 CURVE SMOOTH",
"282 23 OFFCURVE",
"240 14 OFFCURVE",
"192 14 CURVE SMOOTH",
"139 14 OFFCURVE",
"105 35 OFFCURVE",
"80 59 CURVE",
"23 -25 LINE",
"49 -74 OFFCURVE",
"111 -96 OFFCURVE",
"194 -96 CURVE SMOOTH"
);
}
);
width = 422;
}
);
unicode = 2083;
},
{
color = 6;
glyphname = ordfeminine;
lastChange = "2015-01-03 10:50:55 +0000";
layers = (
{
layerId = "5C573416-F98A-4FCE-B5D6-0256B247F272";
name = Bold;
paths = (
{
closed = 1;
nodes = (
"200 333 OFFCURVE",
"241 355 OFFCURVE",
"272 398 CURVE",
"284 340 LINE",
"381 340 LINE",
"381 558 LINE SMOOTH",
"381 662 OFFCURVE",
"318 715 OFFCURVE",
"206 715 CURVE SMOOTH",
"146 715 OFFCURVE",
"95 700 OFFCURVE",
"48 668 CURVE",
"86 586 LINE",
"123 612 OFFCURVE",
"154 626 OFFCURVE",
"193 626 CURVE SMOOTH",
"235 626 OFFCURVE",
"251 609 OFFCURVE",
"251 574 CURVE SMOOTH",
"251 563 LINE",
"234 572 OFFCURVE",
"210 577 OFFCURVE",
"183 577 CURVE SMOOTH",
"95 577 OFFCURVE",
"33 525 OFFCURVE",
"33 451 CURVE SMOOTH",
"33 383 OFFCURVE",
"85 333 OFFCURVE",
"155 333 CURVE SMOOTH"
);
},
{
closed = 1;
nodes = (
"172 428 OFFCURVE",
"155 443 OFFCURVE",
"155 463 CURVE SMOOTH",
"155 487 OFFCURVE",
"177 505 OFFCURVE",
"206 505 CURVE SMOOTH",
"219 505 OFFCURVE",
"238 501 OFFCURVE",
"251 495 CURVE",
"251 468 LINE SMOOTH",
"251 459 OFFCURVE",
"245 449 OFFCURVE",
"235 442 CURVE SMOOTH",
"224 434 OFFCURVE",
"207 428 OFFCURVE",
"194 428 CURVE SMOOTH"
);
}
);
width = 451;
}
);
leftKerningGroup = ordfeminine;
unicode = 00AA;
},
{
glyphname = ordmasculine;
layers = (
{
layerId = "5C573416-F98A-4FCE-B5D6-0256B247F272";
name = Bold;
paths = (
{
closed = 1;
nodes = (
"345 333 OFFCURVE",
"410 423 OFFCURVE",
"410 524 CURVE SMOOTH",
"410 626 OFFCURVE",
"345 715 OFFCURVE",
"219 715 CURVE SMOOTH",
"94 715 OFFCURVE",
"28 626 OFFCURVE",
"28 524 CURVE SMOOTH",
"28 423 OFFCURVE",
"94 333 OFFCURVE",
"219 333 CURVE SMOOTH"
);
},
{
closed = 1;
nodes = (
"161 573 OFFCURVE",
"185 603 OFFCURVE",
"219 603 CURVE SMOOTH",
"253 603 OFFCURVE",
"277 573 OFFCURVE",
"277 524 CURVE SMOOTH",
"277 475 OFFCURVE",
"253 445 OFFCURVE",
"219 445 CURVE SMOOTH",
"185 445 OFFCURVE",
"161 475 OFFCURVE",
"161 524 CURVE SMOOTH"
);
}
);
width = 438;
}
);
leftKerningGroup = ordmasculine;
unicode = 00BA;
},
{
glyphname = oslash;
lastChange = "2014-12-09 09:41:17 +0000";
layers = (
{
anchors = (
{
name = top;
position = "{307, 526}";
}
);
layerId = "5C573416-F98A-4FCE-B5D6-0256B247F272";
name = Bold;
paths = (
{
closed = 1;
nodes = (
"114 -6 LINE",
"146 30 LINE",
"189 5 OFFCURVE",
"243 -10 OFFCURVE",
"307 -10 CURVE SMOOTH",
"495 -10 OFFCURVE",
"595 119 OFFCURVE",
"595 263 CURVE SMOOTH",
"595 335 OFFCURVE",
"570 404 OFFCURVE",
"521 454 CURVE",
"591 532 LINE",
"490 532 LINE",
"461 500 LINE",
"419 523 OFFCURVE",
"368 536 OFFCURVE",
"307 536 CURVE SMOOTH",
"119 536 OFFCURVE",
"19 408 OFFCURVE",
"19 263 CURVE SMOOTH",
"19 193 OFFCURVE",
"42 127 OFFCURVE",
"88 77 CURVE",
"14 -6 LINE"
);
},
{
closed = 1;
nodes = (
"289 150 OFFCURVE",
"273 154 OFFCURVE",
"259 163 CURVE",
"392 313 LINE",
"397 299 OFFCURVE",
"400 282 OFFCURVE",
"400 263 CURVE SMOOTH",
"400 193 OFFCURVE",
"361 150 OFFCURVE",
"307 150 CURVE SMOOTH"
);
},
{
closed = 1;
nodes = (
"214 333 OFFCURVE",
"253 376 OFFCURVE",
"307 376 CURVE SMOOTH",
"322 376 OFFCURVE",
"336 372 OFFCURVE",
"349 366 CURVE",
"219 220 LINE",
"216 233 OFFCURVE",
"214 247 OFFCURVE",
"214 263 CURVE SMOOTH"
);
}
);
width = 614;
}
);
leftKerningGroup = c;
rightKerningGroup = o;
unicode = 00F8;
},
{
glyphname = p;
layers = (
{
layerId = "5C573416-F98A-4FCE-B5D6-0256B247F272";
name = Bold;
paths = (
{
closed = 1;
nodes = (
"531 -10 OFFCURVE",
"626 107 OFFCURVE",
"626 265 CURVE SMOOTH",
"626 421 OFFCURVE",
"523 536 OFFCURVE",
"383 536 CURVE SMOOTH",
"304 536 OFFCURVE",
"250 504 OFFCURVE",
"213 447 CURVE",
"213 526 LINE",
"48 526 LINE",
"48 -213 LINE",
"238 -213 LINE",
"238 78 LINE",
"268 21 OFFCURVE",
"326 -10 OFFCURVE",
"402 -10 CURVE SMOOTH"
);
},
{
closed = 1;
nodes = (
"296 150 OFFCURVE",
"256 185 OFFCURVE",
"238 231 CURVE",
"238 322 LINE",
"263 358 OFFCURVE",
"292 376 OFFCURVE",
"328 376 CURVE SMOOTH",
"390 376 OFFCURVE",
"432 332 OFFCURVE",
"432 266 CURVE SMOOTH",
"432 202 OFFCURVE",
"391 150 OFFCURVE",
"336 150 CURVE SMOOTH"
);
}
);
width = 647;
}
);
leftKerningGroup = eng;
rightKerningGroup = b;
unicode = 0070;
},
{
glyphname = paragraph;
layers = (
{
layerId = "5C573416-F98A-4FCE-B5D6-0256B247F272";
name = Bold;
paths = (
{
closed = 1;
nodes = (
"34 293 OFFCURVE",
"116 188 OFFCURVE",
"236 188 CURVE",
"236 -80 LINE",
"396 -80 LINE",
"396 188 LINE",
"427 188 LINE",
"427 -80 LINE",
"587 -80 LINE",
"587 570 LINE",
"657 570 LINE",
"657 710 LINE",
"316 710 LINE SMOOTH",
"137 710 OFFCURVE",
"34 614 OFFCURVE",
"34 445 CURVE SMOOTH"
);
},
{
closed = 1;
nodes = (
"191 515 OFFCURVE",
"210 565 OFFCURVE",
"236 570 CURVE",
"236 328 LINE",
"210 333 OFFCURVE",
"191 384 OFFCURVE",
"191 450 CURVE SMOOTH"
);
},
{
closed = 1;
nodes = (
"427 328 LINE",
"396 328 LINE",
"396 570 LINE",
"427 570 LINE"
);
}
);
width = 705;
}
);
unicode = 00B6;
},
{
glyphname = parenleft;
layers = (
{
layerId = "5C573416-F98A-4FCE-B5D6-0256B247F272";
name = Bold;
paths = (
{
closed = 1;
nodes = (
"25 205 OFFCURVE",
"101 57 OFFCURVE",
"183 -66 CURVE",
"321 1 LINE",
"254 127 OFFCURVE",
"202 236 OFFCURVE",
"202 345 CURVE SMOOTH",
"202 490 OFFCURVE",
"295 664 OFFCURVE",
"326 714 CURVE",
"181 772 LINE",
"93 622 OFFCURVE",
"25 483 OFFCURVE",
"25 348 CURVE SMOOTH"
);
}
);
width = 342;
}
);
rightKerningGroup = parenleft;
unicode = 0028;
},
{
glyphname = parenright;
layers = (
{
layerId = "5C573416-F98A-4FCE-B5D6-0256B247F272";
name = Bold;
paths = (
{
closed = 1;
nodes = (
"316 483 OFFCURVE",
"248 622 OFFCURVE",
"160 772 CURVE",
"15 714 LINE",
"46 664 OFFCURVE",
"139 490 OFFCURVE",
"139 345 CURVE SMOOTH",
"139 236 OFFCURVE",
"87 127 OFFCURVE",
"20 1 CURVE",
"158 -66 LINE",
"240 57 OFFCURVE",
"316 205 OFFCURVE",
"316 348 CURVE SMOOTH"
);
}
);
width = 341;
}
);
leftKerningGroup = parenright;
unicode = 0029;
},
{
glyphname = percent;
layers = (
{
layerId = "5C573416-F98A-4FCE-B5D6-0256B247F272";
name = Bold;
paths = (
{
closed = 1;
nodes = (
"311 404 OFFCURVE",
"389 474 OFFCURVE",
"389 562 CURVE SMOOTH",
"389 650 OFFCURVE",
"311 720 OFFCURVE",
"211 720 CURVE SMOOTH",
"111 720 OFFCURVE",
"33 650 OFFCURVE",
"33 562 CURVE SMOOTH",
"33 474 OFFCURVE",
"111 404 OFFCURVE",
"211 404 CURVE SMOOTH"
);
},
{
closed = 1;
nodes = (
"185 494 OFFCURVE",
"163 525 OFFCURVE",
"163 562 CURVE SMOOTH",
"163 599 OFFCURVE",
"185 630 OFFCURVE",
"211 630 CURVE SMOOTH",
"237 630 OFFCURVE",
"259 599 OFFCURVE",
"259 562 CURVE SMOOTH",
"259 525 OFFCURVE",
"237 494 OFFCURVE",
"211 494 CURVE SMOOTH"
);
},
{
closed = 1;
nodes = (
"740 -10 OFFCURVE",
"818 60 OFFCURVE",
"818 148 CURVE SMOOTH",
"818 236 OFFCURVE",
"740 306 OFFCURVE",
"640 306 CURVE SMOOTH",
"540 306 OFFCURVE",
"462 236 OFFCURVE",
"462 148 CURVE SMOOTH",
"462 60 OFFCURVE",
"540 -10 OFFCURVE",
"640 -10 CURVE SMOOTH"
);
},
{
closed = 1;
nodes = (
"614 80 OFFCURVE",
"592 111 OFFCURVE",
"592 148 CURVE SMOOTH",
"592 185 OFFCURVE",
"614 216 OFFCURVE",
"640 216 CURVE SMOOTH",
"666 216 OFFCURVE",
"688 185 OFFCURVE",
"688 148 CURVE SMOOTH",
"688 111 OFFCURVE",
"666 80 OFFCURVE",
"640 80 CURVE SMOOTH"
);
},
{
closed = 1;
nodes = (
"200 -10 LINE",
"463 337 LINE",
"734 646 LINE",
"651 721 LINE",
"400 384 LINE",
"117 65 LINE"
);
}
);
width = 851;
}
);
unicode = 0025;
},
{
color = 4;
glyphname = period;
lastChange = "2014-12-08 16:17:21 +0000";
layers = (
{
layerId = "5C573416-F98A-4FCE-B5D6-0256B247F272";
name = Bold;
paths = (
{
closed = 1;
nodes = (
"186 -11 OFFCURVE",
"232 34 OFFCURVE",
"232 88 CURVE SMOOTH",
"232 141 OFFCURVE",
"186 187 OFFCURVE",
"132 187 CURVE SMOOTH",
"79 187 OFFCURVE",
"34 141 OFFCURVE",
"34 88 CURVE SMOOTH",
"34 34 OFFCURVE",
"79 -11 OFFCURVE",
"132 -11 CURVE SMOOTH"
);
}
);
width = 254;
}
);
leftKerningGroup = comma;
rightKerningGroup = comma;
unicode = 002E;
},
{
glyphname = perthousand;
layers = (
{
layerId = "5C573416-F98A-4FCE-B5D6-0256B247F272";
name = Bold;
paths = (
{
closed = 1;
nodes = (
"314 404 OFFCURVE",
"392 474 OFFCURVE",
"392 562 CURVE SMOOTH",
"392 650 OFFCURVE",
"314 720 OFFCURVE",
"214 720 CURVE SMOOTH",
"114 720 OFFCURVE",
"36 650 OFFCURVE",
"36 562 CURVE SMOOTH",
"36 474 OFFCURVE",
"114 404 OFFCURVE",
"214 404 CURVE SMOOTH"
);
},
{
closed = 1;
nodes = (
"188 494 OFFCURVE",
"166 525 OFFCURVE",
"166 562 CURVE SMOOTH",
"166 599 OFFCURVE",
"188 630 OFFCURVE",
"214 630 CURVE SMOOTH",
"240 630 OFFCURVE",
"262 599 OFFCURVE",
"262 562 CURVE SMOOTH",
"262 525 OFFCURVE",
"240 494 OFFCURVE",
"214 494 CURVE SMOOTH"
);
},
{
closed = 1;
nodes = (
"743 -10 OFFCURVE",
"821 60 OFFCURVE",
"821 148 CURVE SMOOTH",
"821 236 OFFCURVE",
"743 306 OFFCURVE",
"643 306 CURVE SMOOTH",
"543 306 OFFCURVE",
"465 236 OFFCURVE",
"465 148 CURVE SMOOTH",
"465 60 OFFCURVE",
"543 -10 OFFCURVE",
"643 -10 CURVE SMOOTH"
);
},
{
closed = 1;
nodes = (
"617 80 OFFCURVE",
"595 111 OFFCURVE",
"595 148 CURVE SMOOTH",
"595 185 OFFCURVE",
"617 216 OFFCURVE",
"643 216 CURVE SMOOTH",
"669 216 OFFCURVE",
"691 185 OFFCURVE",
"691 148 CURVE SMOOTH",
"691 111 OFFCURVE",
"669 80 OFFCURVE",
"643 80 CURVE SMOOTH"
);
},
{
closed = 1;
nodes = (
"1149 -10 OFFCURVE",
"1227 60 OFFCURVE",
"1227 148 CURVE SMOOTH",
"1227 236 OFFCURVE",
"1149 306 OFFCURVE",
"1049 306 CURVE SMOOTH",
"949 306 OFFCURVE",
"871 236 OFFCURVE",
"871 148 CURVE SMOOTH",
"871 60 OFFCURVE",
"949 -10 OFFCURVE",
"1049 -10 CURVE SMOOTH"
);
},
{
closed = 1;
nodes = (
"1023 80 OFFCURVE",
"1001 111 OFFCURVE",
"1001 148 CURVE SMOOTH",
"1001 185 OFFCURVE",
"1023 216 OFFCURVE",
"1049 216 CURVE SMOOTH",
"1075 216 OFFCURVE",
"1097 185 OFFCURVE",
"1097 148 CURVE SMOOTH",
"1097 111 OFFCURVE",
"1075 80 OFFCURVE",
"1049 80 CURVE SMOOTH"
);
},
{
closed = 1;
nodes = (
"203 -10 LINE",
"466 337 LINE",
"737 646 LINE",
"654 721 LINE",
"403 384 LINE",
"120 65 LINE"
);
}
);
width = 1258;
}
);
unicode = 2030;
},
{
glyphname = plus;
layers = (
{
layerId = "5C573416-F98A-4FCE-B5D6-0256B247F272";
name = Bold;
paths = (
{
closed = 1;
nodes = (
"299 430 LINE",
"299 525 LINE",
"129 525 LINE",
"129 430 LINE",
"44 430 LINE",
"44 280 LINE",
"129 280 LINE",
"129 185 LINE",
"299 185 LINE",
"299 280 LINE",
"384 280 LINE",
"384 430 LINE"
);
}
);
width = 428;
}
);
unicode = 002B;
},
{
glyphname = plusminus;
layers = (
{
layerId = "5C573416-F98A-4FCE-B5D6-0256B247F272";
name = Bold;
paths = (
{
closed = 1;
nodes = (
"429 1 LINE",
"429 151 LINE",
"49 151 LINE",
"49 1 LINE"
);
},
{
closed = 1;
nodes = (
"325 462 LINE",
"325 577 LINE",
"155 577 LINE",
"155 462 LINE",
"50 462 LINE",
"50 312 LINE",
"155 312 LINE",
"155 197 LINE",
"325 197 LINE",
"325 312 LINE",
"430 312 LINE",
"430 462 LINE"
);
}
);
width = 480;
}
);
unicode = 00B1;
},
{
color = 4;
glyphname = q;
lastChange = "2014-12-08 16:00:19 +0000";
layers = (
{
layerId = "5C573416-F98A-4FCE-B5D6-0256B247F272";
name = Bold;
paths = (
{
closed = 1;
nodes = (
"321 -10 OFFCURVE",
"379 21 OFFCURVE",
"409 78 CURVE",
"409 -214 LINE",
"599 -214 LINE",
"599 526 LINE",
"434 526 LINE",
"434 445 LINE",
"397 502 OFFCURVE",
"343 536 OFFCURVE",
"264 536 CURVE SMOOTH",
"124 536 OFFCURVE",
"21 421 OFFCURVE",
"21 265 CURVE SMOOTH",
"21 107 OFFCURVE",
"116 -10 OFFCURVE",
"245 -10 CURVE SMOOTH"
);
},
{
closed = 1;
nodes = (
"257 150 OFFCURVE",
"215 194 OFFCURVE",
"215 260 CURVE SMOOTH",
"215 324 OFFCURVE",
"256 376 OFFCURVE",
"311 376 CURVE SMOOTH",
"351 376 OFFCURVE",
"391 344 OFFCURVE",
"409 298 CURVE",
"409 204 LINE",
"384 168 OFFCURVE",
"355 150 OFFCURVE",
"319 150 CURVE SMOOTH"
);
}
);
width = 647;
}
);
leftKerningGroup = a.alt;
rightKerningGroup = a.alt;
unicode = 0071;
},
{
glyphname = q.alt;
layers = (
{
layerId = "5C573416-F98A-4FCE-B5D6-0256B247F272";
name = Bold;
paths = (
{
closed = 1;
nodes = (
"321 -10 OFFCURVE",
"379 21 OFFCURVE",
"409 78 CURVE",
"409 -96 LINE SMOOTH",
"409 -167 OFFCURVE",
"469 -213 OFFCURVE",
"540 -213 CURVE SMOOTH",
"569 -213 OFFCURVE",
"612 -209 OFFCURVE",
"645 -203 CURVE",
"645 -43 LINE",
"610 -41 OFFCURVE",
"599 -29 OFFCURVE",
"599 7 CURVE SMOOTH",
"599 526 LINE",
"434 526 LINE",
"434 445 LINE",
"397 502 OFFCURVE",
"343 536 OFFCURVE",
"264 536 CURVE SMOOTH",
"124 536 OFFCURVE",
"21 421 OFFCURVE",
"21 265 CURVE SMOOTH",
"21 107 OFFCURVE",
"116 -10 OFFCURVE",
"245 -10 CURVE SMOOTH"
);
},
{
closed = 1;
nodes = (
"257 150 OFFCURVE",
"215 194 OFFCURVE",
"215 260 CURVE SMOOTH",
"215 324 OFFCURVE",
"256 376 OFFCURVE",
"311 376 CURVE SMOOTH",
"351 376 OFFCURVE",
"391 344 OFFCURVE",
"409 298 CURVE",
"409 204 LINE",
"384 168 OFFCURVE",
"355 150 OFFCURVE",
"319 150 CURVE SMOOTH"
);
}
);
width = 647;
}
);
leftKerningGroup = a.alt;
rightKerningGroup = a.alt;
},
{
color = 4;
glyphname = question;
lastChange = "2014-12-08 16:22:39 +0000";
layers = (
{
layerId = "5C573416-F98A-4FCE-B5D6-0256B247F272";
name = Bold;
paths = (
{
closed = 1;
nodes = (
"250 259 LINE",
"250 303 OFFCURVE",
"324 318 OFFCURVE",
"382 358 CURVE SMOOTH",
"441 398 OFFCURVE",
"462 451 OFFCURVE",
"462 515 CURVE SMOOTH",
"462 665 OFFCURVE",
"346 719 OFFCURVE",
"244 719 CURVE SMOOTH",
"148 719 OFFCURVE",
"68 671 OFFCURVE",
"34 590 CURVE",
"155 504 LINE",
"170 523 OFFCURVE",
"189 566 OFFCURVE",
"237 566 CURVE SMOOTH",
"269 566 OFFCURVE",
"297 546 OFFCURVE",
"297 516 CURVE SMOOTH",
"297 461 OFFCURVE",
"204 422 OFFCURVE",
"174 406 CURVE SMOOTH",
"101 368 OFFCURVE",
"95 316 OFFCURVE",
"95 259 CURVE"
);
},
{
closed = 1;
nodes = (
"227 -9 OFFCURVE",
"272 35 OFFCURVE",
"272 87 CURVE SMOOTH",
"272 139 OFFCURVE",
"227 183 OFFCURVE",
"174 183 CURVE SMOOTH",
"122 183 OFFCURVE",
"78 139 OFFCURVE",
"78 87 CURVE SMOOTH",
"78 35 OFFCURVE",
"122 -9 OFFCURVE",
"174 -9 CURVE SMOOTH"
);
}
);
width = 495;
}
);
unicode = 003F;
},
{
color = 4;
glyphname = questiondown;
lastChange = "2014-12-08 16:22:41 +0000";
layers = (
{
layerId = "5C573416-F98A-4FCE-B5D6-0256B247F272";
name = Bold;
paths = (
{
closed = 1;
nodes = (
"240 247 LINE",
"240 203 OFFCURVE",
"166 188 OFFCURVE",
"108 148 CURVE SMOOTH",
"49 108 OFFCURVE",
"28 55 OFFCURVE",
"28 -9 CURVE SMOOTH",
"28 -159 OFFCURVE",
"144 -213 OFFCURVE",
"246 -213 CURVE SMOOTH",
"342 -213 OFFCURVE",
"422 -165 OFFCURVE",
"456 -84 CURVE",
"335 2 LINE",
"320 -17 OFFCURVE",
"301 -60 OFFCURVE",
"253 -60 CURVE SMOOTH",
"221 -60 OFFCURVE",
"193 -40 OFFCURVE",
"193 -10 CURVE SMOOTH",
"193 45 OFFCURVE",
"286 84 OFFCURVE",
"316 100 CURVE SMOOTH",
"389 138 OFFCURVE",
"395 190 OFFCURVE",
"395 247 CURVE"
);
},
{
closed = 1;
nodes = (
"368 319 OFFCURVE",
"413 363 OFFCURVE",
"413 415 CURVE SMOOTH",
"413 467 OFFCURVE",
"368 511 OFFCURVE",
"315 511 CURVE SMOOTH",
"263 511 OFFCURVE",
"219 467 OFFCURVE",
"219 415 CURVE SMOOTH",
"219 363 OFFCURVE",
"263 319 OFFCURVE",
"315 319 CURVE SMOOTH"
);
}
);
width = 487;
}
);
rightKerningGroup = questiondown;
unicode = 00BF;
},
{
glyphname = quotedbl;
layers = (
{
layerId = "5C573416-F98A-4FCE-B5D6-0256B247F272";
name = Bold;
paths = (
{
closed = 1;
nodes = (
"213 496 LINE",
"213 730 LINE",
"53 730 LINE",
"53 496 LINE"
);
},
{
closed = 1;
nodes = (
"423 496 LINE",
"423 730 LINE",
"263 730 LINE",
"263 496 LINE"
);
}
);
width = 476;
}
);
leftKerningGroup = quotedbl;
rightKerningGroup = quotedbl;
unicode = 0022;
},
{
color = 4;
glyphname = quotedblbase;
lastChange = "2014-12-09 14:09:42 +0000";
layers = (
{
layerId = "5C573416-F98A-4FCE-B5D6-0256B247F272";
name = Bold;
paths = (
{
closed = 1;
nodes = (
"401 -141 LINE",
"266 -141 LINE SMOOTH",
"352 152 LINE",
"516 152 LINE"
);
},
{
closed = 1;
nodes = (
"150 -141 LINE",
"15 -141 LINE SMOOTH",
"101 152 LINE",
"265 152 LINE"
);
}
);
width = 534;
}
);
leftKerningGroup = comma;
rightKerningGroup = comma;
unicode = 201E;
},
{
color = 4;
glyphname = quotesinglbase;
lastChange = "2014-12-09 14:09:42 +0000";
layers = (
{
layerId = "5C573416-F98A-4FCE-B5D6-0256B247F272";
name = Bold;
paths = (
{
closed = 1;
nodes = (
"150 -141 LINE",
"15 -141 LINE SMOOTH",
"101 152 LINE",
"265 152 LINE"
);
}
);
width = 297;
}
);
leftKerningGroup = comma;
rightKerningGroup = comma;
unicode = 201A;
},
{
color = 4;
glyphname = quotedblleft;
lastChange = "2014-12-09 14:10:38 +0000";
layers = (
{
layerId = "5C573416-F98A-4FCE-B5D6-0256B247F272";
name = Bold;
paths = (
{
closed = 1;
nodes = (
"128 731 LINE",
"263 731 LINE SMOOTH",
"177 438 LINE",
"13 438 LINE"
);
},
{
closed = 1;
nodes = (
"379 731 LINE",
"514 731 LINE SMOOTH",
"428 438 LINE",
"264 438 LINE"
);
}
);
width = 542;
}
);
leftKerningGroup = quotedblleft;
rightKerningGroup = quotedblleft;
unicode = 201C;
},
{
color = 4;
glyphname = quoteleft;
lastChange = "2014-12-09 14:09:39 +0000";
layers = (
{
layerId = "5C573416-F98A-4FCE-B5D6-0256B247F272";
name = Bold;
paths = (
{
closed = 1;
nodes = (
"136 732 LINE",
"271 732 LINE SMOOTH",
"185 439 LINE",
"21 439 LINE"
);
}
);
width = 293;
}
);
leftKerningGroup = quotedblleft;
rightKerningGroup = quotedblleft;
unicode = 2018;
},
{
color = 4;
glyphname = quotedblright;
lastChange = "2014-12-09 14:10:16 +0000";
layers = (
{
layerId = "5C573416-F98A-4FCE-B5D6-0256B247F272";
name = Bold;
paths = (
{
closed = 1;
nodes = (
"403 451 LINE",
"268 451 LINE SMOOTH",
"354 744 LINE",
"518 744 LINE"
);
},
{
closed = 1;
nodes = (
"152 451 LINE",
"17 451 LINE SMOOTH",
"103 744 LINE",
"267 744 LINE"
);
}
);
width = 531;
}
);
leftKerningGroup = quotedblright;
rightKerningGroup = quotedblright;
unicode = 201D;
},
{
color = 4;
glyphname = quoteright;
lastChange = "2014-12-09 14:11:11 +0000";
layers = (
{
layerId = "5C573416-F98A-4FCE-B5D6-0256B247F272";
name = Bold;
paths = (
{
closed = 1;
nodes = (
"154 454 LINE",
"19 454 LINE SMOOTH",
"105 747 LINE",
"269 747 LINE"
);
}
);
width = 282;
}
);
leftKerningGroup = quotedblright;
rightKerningGroup = quotedblright;
unicode = 2019;
},
{
color = 4;
glyphname = quotesingle;
lastChange = "2014-12-09 14:12:19 +0000";
layers = (
{
layerId = "5C573416-F98A-4FCE-B5D6-0256B247F272";
name = Bold;
paths = (
{
closed = 1;
nodes = (
"213 482 LINE",
"213 730 LINE",
"53 730 LINE",
"53 482 LINE"
);
}
);
width = 266;
}
);
leftKerningGroup = quotedbl;
rightKerningGroup = quotedbl;
unicode = 0027;
},
{
glyphname = r;
lastChange = "2014-12-09 11:24:51 +0000";
layers = (
{
anchors = (
{
name = bottom;
position = "{150, 0}";
},
{
name = top;
position = "{140, 526}";
}
);
layerId = "5C573416-F98A-4FCE-B5D6-0256B247F272";
name = Bold;
paths = (
{
closed = 1;
nodes = (
"405 535 LINE",
"400 536 OFFCURVE",
"395 536 OFFCURVE",
"381 536 CURVE SMOOTH",
"318 536 OFFCURVE",
"259 496 OFFCURVE",
"222 426 CURVE",
"222 526 LINE",
"48 526 LINE",
"48 0 LINE",
"238 0 LINE",
"238 312 LINE",
"267 349 OFFCURVE",
"332 364 OFFCURVE",
"405 364 CURVE"
);
}
);
width = 416;
}
);
leftKerningGroup = eng;
rightKerningGroup = r;
unicode = 0072;
},
{
color = 4;
glyphname = rcaron;
lastChange = "2014-12-09 10:45:24 +0000";
layers = (
{
components = (
{
name = r;
transform = "{1, 0, 0, 1, 0, 0}";
}
);
layerId = "5C573416-F98A-4FCE-B5D6-0256B247F272";
name = Bold;
paths = (
{
closed = 1;
nodes = (
"240 730 LINE",
"200 668 LINE",
"160 730 LINE",
"-9 730 LINE",
"136 581 LINE",
"264 581 LINE",
"409 730 LINE"
);
}
);
width = 416;
}
);
leftKerningGroup = eng;
rightKerningGroup = r;
unicode = 0159;
},
{
glyphname = registered;
layers = (
{
layerId = "5C573416-F98A-4FCE-B5D6-0256B247F272";
name = Bold;
paths = (
{
closed = 1;
nodes = (
"643 -7 OFFCURVE",
"810 148 OFFCURVE",
"810 355 CURVE SMOOTH",
"810 561 OFFCURVE",
"643 715 OFFCURVE",
"421 715 CURVE SMOOTH",
"199 715 OFFCURVE",
"38 561 OFFCURVE",
"38 355 CURVE SMOOTH",
"38 148 OFFCURVE",
"199 -7 OFFCURVE",
"421 -7 CURVE SMOOTH"
);
},
{
closed = 1;
nodes = (
"240 56 OFFCURVE",
"112 189 OFFCURVE",
"112 354 CURVE SMOOTH",
"112 519 OFFCURVE",
"240 651 OFFCURVE",
"422 651 CURVE SMOOTH",
"603 651 OFFCURVE",
"736 519 OFFCURVE",
"736 352 CURVE SMOOTH",
"736 182 OFFCURVE",
"599 56 OFFCURVE",
"422 56 CURVE SMOOTH"
);
},
{
closed = 1;
nodes = (
"251 144 LINE",
"383 144 LINE",
"383 275 LINE",
"401 275 LINE",
"482 144 LINE",
"629 144 LINE",
"533 301 LINE",
"570 328 OFFCURVE",
"595 375 OFFCURVE",
"595 422 CURVE SMOOTH",
"595 495 OFFCURVE",
"534 572 OFFCURVE",
"450 572 CURVE SMOOTH",
"251 572 LINE"
);
},
{
closed = 1;
nodes = (
"383 387 LINE",
"383 457 LINE",
"434 457 LINE SMOOTH",
"448 457 OFFCURVE",
"465 453 OFFCURVE",
"465 422 CURVE SMOOTH",
"465 394 OFFCURVE",
"451 387 OFFCURVE",
"436 387 CURVE SMOOTH"
);
}
);
width = 847;
}
);
leftKerningGroup = registered;
unicode = 00AE;
},
{
glyphname = s;
lastChange = "2014-12-09 09:41:49 +0000";
layers = (
{
anchors = (
{
name = bottom;
position = "{251, 0}";
},
{
name = top;
position = "{251, 526}";
}
);
layerId = "5C573416-F98A-4FCE-B5D6-0256B247F272";
name = Bold;
paths = (
{
closed = 1;
nodes = (
"400 -10 OFFCURVE",
"484 57 OFFCURVE",
"484 165 CURVE SMOOTH",
"484 251 OFFCURVE",
"435 292 OFFCURVE",
"282 333 CURVE SMOOTH",
"220 349 OFFCURVE",
"203 359 OFFCURVE",
"203 379 CURVE SMOOTH",
"203 397 OFFCURVE",
"219 406 OFFCURVE",
"242 406 CURVE SMOOTH",
"281 406 OFFCURVE",
"321 389 OFFCURVE",
"386 347 CURVE",
"458 461 LINE",
"387 522 OFFCURVE",
"320 537 OFFCURVE",
"242 537 CURVE SMOOTH",
"117 537 OFFCURVE",
"27 460 OFFCURVE",
"27 352 CURVE SMOOTH",
"27 273 OFFCURVE",
"77 238 OFFCURVE",
"225 195 CURVE SMOOTH",
"284 178 OFFCURVE",
"301 166 OFFCURVE",
"301 148 CURVE SMOOTH",
"301 131 OFFCURVE",
"288 123 OFFCURVE",
"261 123 CURVE SMOOTH",
"210 123 OFFCURVE",
"148 148 OFFCURVE",
"83 192 CURVE",
"18 78 LINE",
"79 21 OFFCURVE",
"174 -10 OFFCURVE",
"265 -10 CURVE SMOOTH"
);
}
);
width = 501;
}
);
leftKerningGroup = s;
rightKerningGroup = s;
unicode = 0073;
},
{
glyphname = schwa;
layers = (
{
layerId = "5C573416-F98A-4FCE-B5D6-0256B247F272";
name = Bold;
paths = (
{
closed = 1;
nodes = (
"490 -10 OFFCURVE",
"590 118 OFFCURVE",
"590 270 CURVE SMOOTH",
"590 411 OFFCURVE",
"487 536 OFFCURVE",
"302 536 CURVE SMOOTH",
"174 536 OFFCURVE",
"83 477 OFFCURVE",
"40 393 CURVE",
"201 347 LINE",
"213 380 OFFCURVE",
"255 400 OFFCURVE",
"296 400 CURVE SMOOTH",
"340 400 OFFCURVE",
"384 377 OFFCURVE",
"388 321 CURVE",
"19 321 LINE",
"16 305 OFFCURVE",
"14 283 OFFCURVE",
"14 263 CURVE SMOOTH",
"14 118 OFFCURVE",
"114 -10 OFFCURVE",
"302 -10 CURVE SMOOTH"
);
},
{
closed = 1;
nodes = (
"257 125 OFFCURVE",
"224 156 OFFCURVE",
"218 207 CURVE",
"392 207 LINE",
"386 156 OFFCURVE",
"353 125 OFFCURVE",
"305 125 CURVE SMOOTH"
);
}
);
width = 609;
}
);
leftKerningGroup = schwa;
rightKerningGroup = o;
unicode = 0259;
},
{
glyphname = section;
layers = (
{
layerId = "5C573416-F98A-4FCE-B5D6-0256B247F272";
name = Bold;
paths = (
{
closed = 1;
nodes = (
"491 240 OFFCURVE",
"501 268 OFFCURVE",
"501 306 CURVE SMOOTH",
"501 439 OFFCURVE",
"375 480 OFFCURVE",
"273 484 CURVE SMOOTH",
"251 485 OFFCURVE",
"230 487 OFFCURVE",
"230 513 CURVE SMOOTH",
"230 532 OFFCURVE",
"241 547 OFFCURVE",
"275 547 CURVE SMOOTH",
"316 547 OFFCURVE",
"338 524 OFFCURVE",
"353 500 CURVE",
"498 568 LINE",
"463 618 OFFCURVE",
"392 715 OFFCURVE",
"263 715 CURVE SMOOTH",
"130 715 OFFCURVE",
"38 613 OFFCURVE",
"38 510 CURVE SMOOTH",
"38 459 OFFCURVE",
"60 421 OFFCURVE",
"70 406 CURVE",
"69 397 OFFCURVE",
"58 381 OFFCURVE",
"58 341 CURVE SMOOTH",
"58 241 OFFCURVE",
"127 162 OFFCURVE",
"275 150 CURVE SMOOTH",
"293 149 OFFCURVE",
"315 147 OFFCURVE",
"315 125 CURVE SMOOTH",
"315 103 OFFCURVE",
"293 92 OFFCURVE",
"264 92 CURVE SMOOTH",
"232 92 OFFCURVE",
"198 105 OFFCURVE",
"164 143 CURVE",
"43 27 LINE",
"70 -8 OFFCURVE",
"158 -88 OFFCURVE",
"273 -88 CURVE SMOOTH",
"369 -88 OFFCURVE",
"513 -33 OFFCURVE",
"513 132 CURVE SMOOTH",
"513 182 OFFCURVE",
"500 214 OFFCURVE",
"488 232 CURVE"
);
},
{
closed = 1;
nodes = (
"242 324 OFFCURVE",
"246 333 OFFCURVE",
"251 337 CURVE",
"251 337 OFFCURVE",
"267 333 OFFCURVE",
"281 333 CURVE SMOOTH",
"297 333 OFFCURVE",
"321 325 OFFCURVE",
"321 300 CURVE SMOOTH",
"321 292 OFFCURVE",
"318 282 OFFCURVE",
"312 277 CURVE",
"291 284 OFFCURVE",
"242 277 OFFCURVE",
"242 314 CURVE SMOOTH"
);
}
);
width = 551;
}
);
unicode = 00A7;
},
{
color = 4;
glyphname = semicolon;
lastChange = "2014-12-08 16:14:50 +0000";
layers = (
{
layerId = "5C573416-F98A-4FCE-B5D6-0256B247F272";
name = Bold;
paths = (
{
closed = 1;
nodes = (
"157 -141 LINE",
"22 -141 LINE SMOOTH",
"108 152 LINE",
"272 152 LINE"
);
},
{
closed = 1;
nodes = (
"249 345 OFFCURVE",
"291 386 OFFCURVE",
"291 436 CURVE SMOOTH",
"291 485 OFFCURVE",
"249 527 OFFCURVE",
"199 527 CURVE SMOOTH",
"150 527 OFFCURVE",
"109 485 OFFCURVE",
"109 436 CURVE SMOOTH",
"109 386 OFFCURVE",
"150 345 OFFCURVE",
"199 345 CURVE SMOOTH"
);
}
);
width = 305;
}
);
leftKerningGroup = colon;
rightKerningGroup = colon;
unicode = 003B;
},
{
glyphname = seven;
lastChange = "2014-12-09 13:59:28 +0000";
layers = (
{
layerId = "5C573416-F98A-4FCE-B5D6-0256B247F272";
name = Bold;
paths = (
{
closed = 1;
nodes = (
"44 1 LINE",
"259 1 LINE",
"606 711 LINE",
"36 711 LINE",
"36 538 LINE",
"307 538 LINE"
);
}
);
width = 598;
}
);
leftKerningGroup = seven.lnum;
rightKerningGroup = seven.lnum;
unicode = 0037;
},
{
glyphname = seveneighths;
layers = (
{
layerId = "5C573416-F98A-4FCE-B5D6-0256B247F272";
name = Bold;
paths = (
{
closed = 1;
nodes = (
"199 -10 LINE",
"462 337 LINE",
"733 646 LINE",
"650 721 LINE",
"399 384 LINE",
"116 65 LINE"
);
},
{
closed = 1;
nodes = (
"960 182 OFFCURVE",
"927 212 OFFCURVE",
"881 235 CURVE",
"917 251 OFFCURVE",
"944 278 OFFCURVE",
"944 317 CURVE SMOOTH",
"944 389 OFFCURVE",
"850 440 OFFCURVE",
"767 440 CURVE SMOOTH",
"684 440 OFFCURVE",
"592 388 OFFCURVE",
"592 315 CURVE SMOOTH",
"592 274 OFFCURVE",
"621 249 OFFCURVE",
"654 235 CURVE",
"611 213 OFFCURVE",
"575 187 OFFCURVE",
"575 135 CURVE SMOOTH",
"575 54 OFFCURVE",
"663 -6 OFFCURVE",
"768 -6 CURVE SMOOTH",
"872 -6 OFFCURVE",
"960 53 OFFCURVE",
"960 133 CURVE SMOOTH"
);
},
{
closed = 1;
nodes = (
"850 121 OFFCURVE",
"811 103 OFFCURVE",
"768 103 CURVE SMOOTH",
"727 103 OFFCURVE",
"685 120 OFFCURVE",
"685 145 CURVE SMOOTH",
"685 169 OFFCURVE",
"722 186 OFFCURVE",
"767 186 CURVE SMOOTH",
"810 186 OFFCURVE",
"850 170 OFFCURVE",
"850 145 CURVE SMOOTH"
);
},
{
closed = 1;
nodes = (
"700 323 OFFCURVE",
"731 335 OFFCURVE",
"767 335 CURVE SMOOTH",
"803 335 OFFCURVE",
"835 323 OFFCURVE",
"835 305 CURVE SMOOTH",
"835 286 OFFCURVE",
"799 275 OFFCURVE",
"767 275 CURVE SMOOTH",
"735 275 OFFCURVE",
"700 286 OFFCURVE",
"700 305 CURVE SMOOTH"
);
},
{
closed = 1;
nodes = (
"58 291 LINE",
"181 291 LINE",
"440 731 LINE",
"40 731 LINE",
"40 622 LINE",
"270 622 LINE"
);
}
);
width = 993;
}
);
unicode = 215E;
},
{
glyphname = sevensuperior;
layers = (
{
layerId = "5C573416-F98A-4FCE-B5D6-0256B247F272";
name = Bold;
paths = (
{
closed = 1;
nodes = (
"41 381 LINE",
"164 381 LINE",
"423 821 LINE",
"23 821 LINE",
"23 712 LINE",
"253 712 LINE"
);
}
);
width = 417;
}
);
unicode = 2077;
},
{
glyphname = seveninferior;
layers = (
{
layerId = "5C573416-F98A-4FCE-B5D6-0256B247F272";
name = Bold;
paths = (
{
closed = 1;
nodes = (
"41 -89 LINE",
"164 -89 LINE",
"423 351 LINE",
"23 351 LINE",
"23 242 LINE",
"253 242 LINE"
);
}
);
width = 418;
}
);
unicode = 2087;
},
{
glyphname = six;
lastChange = "2014-12-09 13:59:30 +0000";
layers = (
{
layerId = "5C573416-F98A-4FCE-B5D6-0256B247F272";
name = Bold;
paths = (
{
closed = 1;
nodes = (
"572 373 OFFCURVE",
"465 473 OFFCURVE",
"322 473 CURVE SMOOTH",
"275 473 OFFCURVE",
"240 462 OFFCURVE",
"214 439 CURVE",
"217 510 OFFCURVE",
"257 552 OFFCURVE",
"322 552 CURVE SMOOTH",
"367 552 OFFCURVE",
"411 533 OFFCURVE",
"446 498 CURVE",
"551 620 LINE",
"488 683 OFFCURVE",
"411 716 OFFCURVE",
"325 716 CURVE SMOOTH",
"147 716 OFFCURVE",
"39 574 OFFCURVE",
"39 340 CURVE SMOOTH",
"39 119 OFFCURVE",
"136 -10 OFFCURVE",
"306 -10 CURVE SMOOTH",
"458 -10 OFFCURVE",
"572 100 OFFCURVE",
"572 240 CURVE SMOOTH"
);
},
{
closed = 1;
nodes = (
"261 149 OFFCURVE",
"221 191 OFFCURVE",
"221 240 CURVE SMOOTH",
"221 287 OFFCURVE",
"259 324 OFFCURVE",
"306 324 CURVE SMOOTH",
"353 324 OFFCURVE",
"391 287 OFFCURVE",
"391 240 CURVE SMOOTH",
"391 191 OFFCURVE",
"351 149 OFFCURVE",
"306 149 CURVE SMOOTH"
);
}
);
width = 609;
}
);
unicode = 0036;
},
{
glyphname = sixinferior;
layers = (
{
layerId = "5C573416-F98A-4FCE-B5D6-0256B247F272";
name = Bold;
paths = (
{
closed = 1;
nodes = (
"416 141 OFFCURVE",
"340 203 OFFCURVE",
"227 203 CURVE SMOOTH",
"195 203 OFFCURVE",
"151 198 OFFCURVE",
"129 184 CURVE",
"131 226 OFFCURVE",
"171 250 OFFCURVE",
"232 250 CURVE SMOOTH",
"273 250 OFFCURVE",
"312 239 OFFCURVE",
"335 218 CURVE",
"397 295 LINE",
"357 334 OFFCURVE",
"299 354 OFFCURVE",
"237 354 CURVE SMOOTH",
"108 354 OFFCURVE",
"29 266 OFFCURVE",
"29 122 CURVE SMOOTH",
"29 -17 OFFCURVE",
"102 -96 OFFCURVE",
"222 -96 CURVE SMOOTH",
"333 -96 OFFCURVE",
"416 -28 OFFCURVE",
"416 58 CURVE SMOOTH"
);
},
{
closed = 1;
nodes = (
"176 4 OFFCURVE",
"134 29 OFFCURVE",
"134 58 CURVE SMOOTH",
"134 87 OFFCURVE",
"174 109 OFFCURVE",
"224 109 CURVE SMOOTH",
"273 109 OFFCURVE",
"313 87 OFFCURVE",
"313 58 CURVE SMOOTH",
"313 29 OFFCURVE",
"272 4 OFFCURVE",
"224 4 CURVE SMOOTH"
);
}
);
width = 441;
}
);
unicode = 2086;
},
{
glyphname = sixsuperior;
layers = (
{
layerId = "5C573416-F98A-4FCE-B5D6-0256B247F272";
name = Bold;
paths = (
{
closed = 1;
nodes = (
"416 607 OFFCURVE",
"340 669 OFFCURVE",
"227 669 CURVE SMOOTH",
"195 669 OFFCURVE",
"151 664 OFFCURVE",
"129 650 CURVE",
"131 692 OFFCURVE",
"171 716 OFFCURVE",
"232 716 CURVE SMOOTH",
"273 716 OFFCURVE",
"312 705 OFFCURVE",
"335 684 CURVE",
"397 761 LINE",
"357 800 OFFCURVE",
"299 820 OFFCURVE",
"237 820 CURVE SMOOTH",
"108 820 OFFCURVE",
"29 732 OFFCURVE",
"29 588 CURVE SMOOTH",
"29 449 OFFCURVE",
"102 370 OFFCURVE",
"222 370 CURVE SMOOTH",
"333 370 OFFCURVE",
"416 438 OFFCURVE",
"416 524 CURVE SMOOTH"
);
},
{
closed = 1;
nodes = (
"176 470 OFFCURVE",
"134 495 OFFCURVE",
"134 524 CURVE SMOOTH",
"134 553 OFFCURVE",
"174 575 OFFCURVE",
"224 575 CURVE SMOOTH",
"273 575 OFFCURVE",
"313 553 OFFCURVE",
"313 524 CURVE SMOOTH",
"313 495 OFFCURVE",
"272 470 OFFCURVE",
"224 470 CURVE SMOOTH"
);
}
);
width = 441;
}
);
unicode = 2076;
},
{
glyphname = sterling;
layers = (
{
layerId = "5C573416-F98A-4FCE-B5D6-0256B247F272";
name = Bold;
paths = (
{
closed = 1;
nodes = (
"61 248 LINE",
"135 248 LINE",
"123 198 OFFCURVE",
"90 149 OFFCURVE",
"49 125 CURVE",
"87 -9 LINE",
"137 7 OFFCURVE",
"193 18 OFFCURVE",
"231 18 CURVE SMOOTH",
"298 18 OFFCURVE",
"370 -15 OFFCURVE",
"432 -15 CURVE SMOOTH",
"472 -15 OFFCURVE",
"521 -1 OFFCURVE",
"551 19 CURVE",
"505 159 LINE",
"481 150 OFFCURVE",
"464 146 OFFCURVE",
"442 146 CURVE SMOOTH",
"399 146 OFFCURVE",
"354 161 OFFCURVE",
"312 161 CURVE SMOOTH",
"290 161 OFFCURVE",
"266 157 OFFCURVE",
"234 146 CURVE",
"267 180 OFFCURVE",
"287 212 OFFCURVE",
"296 248 CURVE",
"474 248 LINE",
"474 388 LINE",
"285 388 LINE",
"267 436 OFFCURVE",
"242 475 OFFCURVE",
"242 510 CURVE SMOOTH",
"242 542 OFFCURVE",
"264 562 OFFCURVE",
"300 562 CURVE SMOOTH",
"343 562 OFFCURVE",
"401 532 OFFCURVE",
"435 493 CURVE",
"531 610 LINE",
"474 676 OFFCURVE",
"389 715 OFFCURVE",
"301 715 CURVE SMOOTH",
"174 715 OFFCURVE",
"74 634 OFFCURVE",
"74 531 CURVE SMOOTH",
"74 481 OFFCURVE",
"97 434 OFFCURVE",
"116 388 CURVE",
"61 388 LINE"
);
}
);
width = 586;
}
);
unicode = 00A3;
},
{
glyphname = t;
lastChange = "2014-12-09 10:45:07 +0000";
layers = (
{
anchors = (
{
name = bottom;
position = "{212, 0}";
},
{
name = center;
position = "{212, 263}";
},
{
name = topright;
position = "{248, 526}";
}
);
layerId = "5C573416-F98A-4FCE-B5D6-0256B247F272";
name = Bold;
paths = (
{
closed = 1;
nodes = (
"383 179 LINE",
"359 169 OFFCURVE",
"334 162 OFFCURVE",
"315 162 CURVE SMOOTH",
"290 162 OFFCURVE",
"274 174 OFFCURVE",
"274 209 CURVE SMOOTH",
"274 383 LINE",
"377 383 LINE",
"377 526 LINE",
"274 526 LINE",
"274 691 LINE",
"84 691 LINE",
"84 526 LINE",
"19 526 LINE",
"19 383 LINE",
"84 383 LINE",
"84 142 LINE SMOOTH",
"84 28 OFFCURVE",
"156 -11 OFFCURVE",
"242 -11 CURVE SMOOTH",
"300 -11 OFFCURVE",
"364 6 OFFCURVE",
"417 29 CURVE"
);
}
);
width = 423;
}
);
leftKerningGroup = t;
rightKerningGroup = c_t;
unicode = 0074;
},
{
glyphname = t.alt;
layers = (
{
layerId = "5C573416-F98A-4FCE-B5D6-0256B247F272";
name = Bold;
paths = (
{
closed = 1;
nodes = (
"300 0 LINE",
"300 356 LINE",
"420 356 LINE",
"420 526 LINE",
"300 526 LINE",
"300 691 LINE",
"105 691 LINE",
"105 526 LINE",
"25 526 LINE",
"25 356 LINE",
"105 356 LINE",
"105 0 LINE"
);
}
);
width = 431;
}
);
leftKerningGroup = t.alt;
rightKerningGroup = t.alt;
},
{
glyphname = tbar;
layers = (
{
layerId = "5C573416-F98A-4FCE-B5D6-0256B247F272";
name = Bold;
paths = (
{
closed = 1;
nodes = (
"384 179 LINE",
"360 169 OFFCURVE",
"335 162 OFFCURVE",
"316 162 CURVE SMOOTH",
"291 162 OFFCURVE",
"275 174 OFFCURVE",
"275 209 CURVE SMOOTH",
"275 227 LINE",
"378 227 LINE",
"378 336 LINE",
"275 336 LINE",
"275 383 LINE",
"378 383 LINE",
"378 526 LINE",
"275 526 LINE",
"275 691 LINE",
"85 691 LINE",
"85 526 LINE",
"20 526 LINE",
"20 383 LINE",
"85 383 LINE",
"85 336 LINE",
"20 336 LINE",
"20 227 LINE",
"85 227 LINE",
"85 142 LINE SMOOTH",
"85 28 OFFCURVE",
"157 -11 OFFCURVE",
"243 -11 CURVE SMOOTH",
"301 -11 OFFCURVE",
"365 6 OFFCURVE",
"418 29 CURVE"
);
}
);
width = 424;
}
);
leftKerningGroup = t;
rightKerningGroup = c_t;
unicode = 0167;
},
{
glyphname = thorn;
layers = (
{
layerId = "5C573416-F98A-4FCE-B5D6-0256B247F272";
name = Bold;
paths = (
{
closed = 1;
nodes = (
"581 412 OFFCURVE",
"461 544 OFFCURVE",
"319 544 CURVE SMOOTH",
"285 544 OFFCURVE",
"257 537 OFFCURVE",
"243 525 CURVE",
"243 710 LINE",
"48 710 LINE",
"48 -213 LINE",
"243 -213 LINE",
"243 -13 LINE",
"252 -24 OFFCURVE",
"282 -31 OFFCURVE",
"312 -31 CURVE SMOOTH",
"456 -31 OFFCURVE",
"581 102 OFFCURVE",
"581 255 CURVE SMOOTH"
);
},
{
closed = 1;
nodes = (
"386 188 OFFCURVE",
"353 139 OFFCURVE",
"305 139 CURVE SMOOTH",
"277 139 OFFCURVE",
"243 161 OFFCURVE",
"243 179 CURVE SMOOTH",
"243 327 LINE",
"262 361 OFFCURVE",
"280 374 OFFCURVE",
"307 374 CURVE SMOOTH",
"355 374 OFFCURVE",
"386 329 OFFCURVE",
"386 259 CURVE SMOOTH"
);
}
);
width = 599;
}
);
leftKerningGroup = b;
rightKerningGroup = b;
unicode = 00FE;
},
{
glyphname = three;
lastChange = "2014-12-09 14:01:09 +0000";
layers = (
{
layerId = "5C573416-F98A-4FCE-B5D6-0256B247F272";
name = Bold;
paths = (
{
closed = 1;
nodes = (
"396 -9 OFFCURVE",
"546 48 OFFCURVE",
"546 197 CURVE SMOOTH",
"546 286 OFFCURVE",
"492 366 OFFCURVE",
"405 380 CURVE",
"480 395 OFFCURVE",
"534 448 OFFCURVE",
"534 525 CURVE SMOOTH",
"534 635 OFFCURVE",
"424 719 OFFCURVE",
"276 719 CURVE SMOOTH",
"186 719 OFFCURVE",
"79 688 OFFCURVE",
"26 629 CURVE",
"146 488 LINE",
"164 511 OFFCURVE",
"202 553 OFFCURVE",
"277 553 CURVE SMOOTH",
"288 553 OFFCURVE",
"330 552 OFFCURVE",
"330 515 CURVE SMOOTH",
"330 465 OFFCURVE",
"251 448 OFFCURVE",
"163 448 CURVE SMOOTH",
"131 448 LINE",
"131 291 LINE",
"164 291 LINE SMOOTH",
"282 291 OFFCURVE",
"348 275 OFFCURVE",
"348 223 CURVE SMOOTH",
"348 181 OFFCURVE",
"304 165 OFFCURVE",
"259 165 CURVE SMOOTH",
"168 165 OFFCURVE",
"140 231 OFFCURVE",
"132 239 CURVE",
"35 107 LINE",
"81 27 OFFCURVE",
"157 -9 OFFCURVE",
"263 -9 CURVE SMOOTH"
);
}
);
width = 600;
}
);
unicode = 0033;
},
{
glyphname = threeeighths;
layers = (
{
layerId = "5C573416-F98A-4FCE-B5D6-0256B247F272";
name = Bold;
paths = (
{
closed = 1;
nodes = (
"300 -10 LINE",
"563 337 LINE",
"834 646 LINE",
"751 721 LINE",
"500 384 LINE",
"217 65 LINE"
);
},
{
closed = 1;
nodes = (
"1016 182 OFFCURVE",
"983 212 OFFCURVE",
"937 235 CURVE",
"973 251 OFFCURVE",
"1000 278 OFFCURVE",
"1000 317 CURVE SMOOTH",
"1000 389 OFFCURVE",
"906 440 OFFCURVE",
"823 440 CURVE SMOOTH",
"740 440 OFFCURVE",
"648 388 OFFCURVE",
"648 315 CURVE SMOOTH",
"648 274 OFFCURVE",
"677 249 OFFCURVE",
"710 235 CURVE",
"667 213 OFFCURVE",
"631 187 OFFCURVE",
"631 135 CURVE SMOOTH",
"631 54 OFFCURVE",
"719 -6 OFFCURVE",
"824 -6 CURVE SMOOTH",
"928 -6 OFFCURVE",
"1016 53 OFFCURVE",
"1016 133 CURVE SMOOTH"
);
},
{
closed = 1;
nodes = (
"906 121 OFFCURVE",
"867 103 OFFCURVE",
"824 103 CURVE SMOOTH",
"783 103 OFFCURVE",
"741 120 OFFCURVE",
"741 145 CURVE SMOOTH",
"741 169 OFFCURVE",
"778 186 OFFCURVE",
"823 186 CURVE SMOOTH",
"866 186 OFFCURVE",
"906 170 OFFCURVE",
"906 145 CURVE SMOOTH"
);
},
{
closed = 1;
nodes = (
"756 323 OFFCURVE",
"787 335 OFFCURVE",
"823 335 CURVE SMOOTH",
"859 335 OFFCURVE",
"891 323 OFFCURVE",
"891 305 CURVE SMOOTH",
"891 286 OFFCURVE",
"855 275 OFFCURVE",
"823 275 CURVE SMOOTH",
"791 275 OFFCURVE",
"756 286 OFFCURVE",
"756 305 CURVE SMOOTH"
);
},
{
closed = 1;
nodes = (
"307 279 OFFCURVE",
"408 314 OFFCURVE",
"408 407 CURVE SMOOTH",
"408 463 OFFCURVE",
"367 512 OFFCURVE",
"300 521 CURVE",
"360 530 OFFCURVE",
"398 563 OFFCURVE",
"398 611 CURVE SMOOTH",
"398 679 OFFCURVE",
"319 731 OFFCURVE",
"214 731 CURVE SMOOTH",
"145 731 OFFCURVE",
"71 712 OFFCURVE",
"36 675 CURVE",
"105 586 LINE",
"133 612 OFFCURVE",
"163 630 OFFCURVE",
"215 630 CURVE SMOOTH",
"239 630 OFFCURVE",
"282 626 OFFCURVE",
"282 604 CURVE SMOOTH",
"282 574 OFFCURVE",
"225 564 OFFCURVE",
"148 564 CURVE SMOOTH",
"124 564 LINE",
"124 465 LINE",
"149 465 LINE SMOOTH",
"242 465 OFFCURVE",
"297 455 OFFCURVE",
"297 424 CURVE SMOOTH",
"297 398 OFFCURVE",
"255 389 OFFCURVE",
"207 389 CURVE SMOOTH",
"153 389 OFFCURVE",
"121 410 OFFCURVE",
"95 434 CURVE",
"38 350 LINE",
"64 301 OFFCURVE",
"126 279 OFFCURVE",
"209 279 CURVE SMOOTH"
);
}
);
width = 1049;
}
);
unicode = 215C;
},
{
glyphname = threesuperior;
layers = (
{
layerId = "5C573416-F98A-4FCE-B5D6-0256B247F272";
name = Bold;
paths = (
{
closed = 1;
nodes = (
"292 369 OFFCURVE",
"393 404 OFFCURVE",
"393 497 CURVE SMOOTH",
"393 553 OFFCURVE",
"352 602 OFFCURVE",
"285 611 CURVE",
"345 620 OFFCURVE",
"383 653 OFFCURVE",
"383 701 CURVE SMOOTH",
"383 769 OFFCURVE",
"304 821 OFFCURVE",
"199 821 CURVE SMOOTH",
"130 821 OFFCURVE",
"56 802 OFFCURVE",
"21 765 CURVE",
"90 676 LINE",
"118 702 OFFCURVE",
"148 720 OFFCURVE",
"200 720 CURVE SMOOTH",
"224 720 OFFCURVE",
"267 716 OFFCURVE",
"267 694 CURVE SMOOTH",
"267 664 OFFCURVE",
"210 654 OFFCURVE",
"133 654 CURVE SMOOTH",
"109 654 LINE",
"109 555 LINE",
"134 555 LINE SMOOTH",
"227 555 OFFCURVE",
"282 545 OFFCURVE",
"282 514 CURVE SMOOTH",
"282 488 OFFCURVE",
"240 479 OFFCURVE",
"192 479 CURVE SMOOTH",
"129 479 OFFCURVE",
"97 508 OFFCURVE",
"80 524 CURVE",
"23 440 LINE",
"49 391 OFFCURVE",
"111 369 OFFCURVE",
"194 369 CURVE SMOOTH"
);
}
);
width = 422;
}
);
unicode = 00B3;
},
{
glyphname = threequarters;
layers = (
{
layerId = "5C573416-F98A-4FCE-B5D6-0256B247F272";
name = Bold;
paths = (
{
closed = 1;
nodes = (
"326 -10 LINE",
"589 337 LINE",
"860 646 LINE",
"777 721 LINE",
"526 384 LINE",
"243 65 LINE"
);
},
{
closed = 1;
nodes = (
"929 1 LINE",
"929 84 LINE",
"993 84 LINE",
"993 191 LINE",
"929 191 LINE",
"929 441 LINE",
"855 441 LINE",
"606 191 LINE",
"606 84 LINE",
"821 84 LINE",
"821 1 LINE"
);
},
{
closed = 1;
nodes = (
"825 312 LINE",
"825 191 LINE",
"707 191 LINE"
);
},
{
closed = 1;
nodes = (
"306 279 OFFCURVE",
"407 314 OFFCURVE",
"407 407 CURVE SMOOTH",
"407 463 OFFCURVE",
"366 512 OFFCURVE",
"299 521 CURVE",
"359 530 OFFCURVE",
"397 563 OFFCURVE",
"397 611 CURVE SMOOTH",
"397 679 OFFCURVE",
"318 731 OFFCURVE",
"213 731 CURVE SMOOTH",
"144 731 OFFCURVE",
"70 712 OFFCURVE",
"35 675 CURVE",
"104 586 LINE",
"132 612 OFFCURVE",
"162 630 OFFCURVE",
"214 630 CURVE SMOOTH",
"238 630 OFFCURVE",
"281 626 OFFCURVE",
"281 604 CURVE SMOOTH",
"281 574 OFFCURVE",
"224 564 OFFCURVE",
"147 564 CURVE SMOOTH",
"123 564 LINE",
"123 465 LINE",
"148 465 LINE SMOOTH",
"241 465 OFFCURVE",
"296 455 OFFCURVE",
"296 424 CURVE SMOOTH",
"296 398 OFFCURVE",
"254 389 OFFCURVE",
"206 389 CURVE SMOOTH",
"152 389 OFFCURVE",
"120 410 OFFCURVE",
"94 434 CURVE",
"37 350 LINE",
"63 301 OFFCURVE",
"125 279 OFFCURVE",
"208 279 CURVE SMOOTH"
);
}
);
width = 1027;
}
);
unicode = 00BE;
},
{
glyphname = trademark;
layers = (
{
layerId = "5C573416-F98A-4FCE-B5D6-0256B247F272";
name = Bold;
paths = (
{
closed = 1;
nodes = (
"370 712 LINE",
"60 712 LINE",
"60 592 LINE",
"155 592 LINE",
"155 401 LINE",
"275 401 LINE",
"275 592 LINE",
"370 592 LINE"
);
},
{
closed = 1;
nodes = (
"632 579 LINE",
"597 710 LINE",
"416 710 LINE",
"416 401 LINE",
"536 401 LINE",
"536 562 LINE",
"584 443 LINE",
"681 443 LINE",
"729 562 LINE",
"729 401 LINE",
"849 401 LINE",
"849 710 LINE",
"667 710 LINE"
);
}
);
width = 912;
}
);
leftKerningGroup = trademark;
unicode = 2122;
},
{
glyphname = two;
lastChange = "2014-12-09 13:59:40 +0000";
layers = (
{
layerId = "5C573416-F98A-4FCE-B5D6-0256B247F272";
name = Bold;
paths = (
{
closed = 1;
nodes = (
"583 0 LINE",
"583 170 LINE",
"319 170 LINE",
"319 213 OFFCURVE",
"384 245 OFFCURVE",
"441 278 CURVE SMOOTH",
"530 330 OFFCURVE",
"582 380 OFFCURVE",
"582 490 CURVE SMOOTH",
"582 636 OFFCURVE",
"489 718 OFFCURVE",
"327 718 CURVE SMOOTH",
"197 718 OFFCURVE",
"89 665 OFFCURVE",
"36 605 CURVE",
"153 478 LINE",
"191 515 OFFCURVE",
"248 550 OFFCURVE",
"300 550 CURVE SMOOTH",
"334 550 OFFCURVE",
"365 535 OFFCURVE",
"365 487 CURVE SMOOTH",
"365 414 OFFCURVE",
"293 379 OFFCURVE",
"210 340 CURVE SMOOTH",
"58 268 OFFCURVE",
"36 184 OFFCURVE",
"36 0 CURVE"
);
}
);
width = 631;
}
);
unicode = 0032;
},
{
glyphname = twosuperior;
layers = (
{
layerId = "5C573416-F98A-4FCE-B5D6-0256B247F272";
name = Bold;
paths = (
{
closed = 1;
nodes = (
"394 376 LINE",
"394 483 LINE",
"207 483 LINE",
"207 509 OFFCURVE",
"239 522 OFFCURVE",
"287 535 CURVE SMOOTH",
"338 549 OFFCURVE",
"412 586 OFFCURVE",
"412 676 CURVE SMOOTH",
"412 772 OFFCURVE",
"347 821 OFFCURVE",
"232 821 CURVE SMOOTH",
"131 821 OFFCURVE",
"57 789 OFFCURVE",
"28 751 CURVE",
"96 671 LINE",
"122 694 OFFCURVE",
"165 715 OFFCURVE",
"216 715 CURVE SMOOTH",
"260 715 OFFCURVE",
"288 707 OFFCURVE",
"288 677 CURVE SMOOTH",
"288 633 OFFCURVE",
"224 613 OFFCURVE",
"160 586 CURVE SMOOTH",
"53 541 OFFCURVE",
"26 490 OFFCURVE",
"26 376 CURVE"
);
}
);
width = 441;
}
);
unicode = 00B2;
},
{
glyphname = twothirds;
layers = (
{
layerId = "5C573416-F98A-4FCE-B5D6-0256B247F272";
name = Bold;
paths = (
{
closed = 1;
nodes = (
"333 -10 LINE",
"596 337 LINE",
"867 646 LINE",
"784 721 LINE",
"533 384 LINE",
"250 65 LINE"
);
},
{
closed = 1;
nodes = (
"953 -6 OFFCURVE",
"1054 29 OFFCURVE",
"1054 122 CURVE SMOOTH",
"1054 178 OFFCURVE",
"1013 227 OFFCURVE",
"946 236 CURVE",
"1006 245 OFFCURVE",
"1044 278 OFFCURVE",
"1044 326 CURVE SMOOTH",
"1044 394 OFFCURVE",
"965 446 OFFCURVE",
"860 446 CURVE SMOOTH",
"791 446 OFFCURVE",
"717 427 OFFCURVE",
"682 390 CURVE",
"751 301 LINE",
"779 327 OFFCURVE",
"809 345 OFFCURVE",
"861 345 CURVE SMOOTH",
"885 345 OFFCURVE",
"928 341 OFFCURVE",
"928 319 CURVE SMOOTH",
"928 289 OFFCURVE",
"871 279 OFFCURVE",
"794 279 CURVE SMOOTH",
"770 279 LINE",
"770 180 LINE",
"795 180 LINE SMOOTH",
"888 180 OFFCURVE",
"943 170 OFFCURVE",
"943 139 CURVE SMOOTH",
"943 113 OFFCURVE",
"901 104 OFFCURVE",
"853 104 CURVE SMOOTH",
"799 104 OFFCURVE",
"767 125 OFFCURVE",
"741 149 CURVE",
"684 65 LINE",
"710 16 OFFCURVE",
"772 -6 OFFCURVE",
"855 -6 CURVE SMOOTH"
);
},
{
closed = 1;
nodes = (
"408 286 LINE",
"408 393 LINE",
"221 393 LINE",
"221 419 OFFCURVE",
"253 432 OFFCURVE",
"301 445 CURVE SMOOTH",
"352 459 OFFCURVE",
"426 496 OFFCURVE",
"426 586 CURVE SMOOTH",
"426 682 OFFCURVE",
"361 731 OFFCURVE",
"246 731 CURVE SMOOTH",
"145 731 OFFCURVE",
"71 699 OFFCURVE",
"42 661 CURVE",
"110 581 LINE",
"136 604 OFFCURVE",
"179 625 OFFCURVE",
"230 625 CURVE SMOOTH",
"274 625 OFFCURVE",
"302 617 OFFCURVE",
"302 587 CURVE SMOOTH",
"302 543 OFFCURVE",
"238 523 OFFCURVE",
"174 496 CURVE SMOOTH",
"67 451 OFFCURVE",
"40 400 OFFCURVE",
"40 286 CURVE"
);
}
);
width = 1088;
}
);
unicode = 2154;
},
{
color = 4;
glyphname = u;
lastChange = "2014-12-09 09:41:58 +0000";
layers = (
{
anchors = (
{
name = ogonek;
position = "{558, 10}";
},
{
name = top;
position = "{310, 526}";
}
);
layerId = "5C573416-F98A-4FCE-B5D6-0256B247F272";
name = Bold;
paths = (
{
closed = 1;
nodes = (
"572 0 LINE",
"572 526 LINE",
"382 526 LINE",
"382 204 LINE",
"351 159 OFFCURVE",
"319 150 OFFCURVE",
"295 150 CURVE SMOOTH",
"253 150 OFFCURVE",
"233 177 OFFCURVE",
"233 223 CURVE SMOOTH",
"233 526 LINE",
"43 526 LINE",
"43 180 LINE SMOOTH",
"43 51 OFFCURVE",
"101 -10 OFFCURVE",
"218 -10 CURVE SMOOTH",
"286 -10 OFFCURVE",
"354 11 OFFCURVE",
"390 70 CURVE",
"390 0 LINE"
);
}
);
width = 620;
}
);
leftKerningGroup = u;
rightKerningGroup = a.alt;
unicode = 0075;
},
{
glyphname = u.alt;
layers = (
{
layerId = "5C573416-F98A-4FCE-B5D6-0256B247F272";
name = Bold;
paths = (
{
closed = 1;
nodes = (
"294 -10 OFFCURVE",
"363 17 OFFCURVE",
"412 82 CURVE",
"416 63 LINE SMOOTH",
"426 14 OFFCURVE",
"464 -10 OFFCURVE",
"528 -10 CURVE SMOOTH",
"548 -10 OFFCURVE",
"574 -7 OFFCURVE",
"608 0 CURVE",
"608 160 LINE",
"581 162 OFFCURVE",
"572 174 OFFCURVE",
"572 210 CURVE SMOOTH",
"572 526 LINE",
"382 526 LINE",
"382 204 LINE",
"351 159 OFFCURVE",
"320 150 OFFCURVE",
"291 150 CURVE SMOOTH",
"255 150 OFFCURVE",
"233 177 OFFCURVE",
"233 223 CURVE SMOOTH",
"233 526 LINE",
"43 526 LINE",
"43 180 LINE SMOOTH",
"43 57 OFFCURVE",
"101 -10 OFFCURVE",
"207 -10 CURVE SMOOTH"
);
}
);
width = 638;
}
);
leftKerningGroup = u;
rightKerningGroup = u;
},
{
glyphname = underscore;
layers = (
{
layerId = "5C573416-F98A-4FCE-B5D6-0256B247F272";
name = Bold;
paths = (
{
closed = 1;
nodes = (
"397 -170 LINE",
"397 0 LINE",
"44 0 LINE",
"44 -170 LINE"
);
}
);
width = 441;
}
);
unicode = 005F;
},
{
glyphname = uni00AD;
layers = (
{
layerId = "5C573416-F98A-4FCE-B5D6-0256B247F272";
name = Bold;
paths = (
{
closed = 1;
nodes = (
"579 191 LINE",
"579 361 LINE",
"50 361 LINE",
"50 191 LINE"
);
}
);
width = 629;
}
);
leftKerningGroup = emdash;
rightKerningGroup = emdash;
unicode = 00AD;
},
{
glyphname = uni015E;
layers = (
{
layerId = "5C573416-F98A-4FCE-B5D6-0256B247F272";
name = Bold;
paths = (
{
closed = 1;
nodes = (
"198 -192 LINE",
"225 -203 OFFCURVE",
"263 -213 OFFCURVE",
"311 -213 CURVE SMOOTH",
"416 -213 OFFCURVE",
"463 -166 OFFCURVE",
"463 -110 CURVE SMOOTH",
"463 -54 OFFCURVE",
"417 -32 OFFCURVE",
"369 -32 CURVE SMOOTH",
"359 -32 OFFCURVE",
"350 -33 OFFCURVE",
"342 -34 CURVE",
"360 -7 LINE",
"479 2 OFFCURVE",
"592 62 OFFCURVE",
"592 217 CURVE SMOOTH",
"592 350 OFFCURVE",
"509 396 OFFCURVE",
"378 437 CURVE SMOOTH",
"296 463 OFFCURVE",
"246 471 OFFCURVE",
"246 508 CURVE SMOOTH",
"246 533 OFFCURVE",
"269 543 OFFCURVE",
"303 543 CURVE SMOOTH",
"388 543 OFFCURVE",
"491 478 OFFCURVE",
"491 478 CURVE",
"575 639 LINE",
"511 671 OFFCURVE",
"412 716 OFFCURVE",
"309 716 CURVE SMOOTH",
"169 716 OFFCURVE",
"44 633 OFFCURVE",
"44 476 CURVE SMOOTH",
"44 372 OFFCURVE",
"99 319 OFFCURVE",
"224 277 CURVE SMOOTH",
"309 248 OFFCURVE",
"382 239 OFFCURVE",
"382 198 CURVE SMOOTH",
"382 179 OFFCURVE",
"367 167 OFFCURVE",
"325 167 CURVE SMOOTH",
"216 167 OFFCURVE",
"97 245 OFFCURVE",
"97 245 CURVE",
"13 74 LINE",
"88 29 OFFCURVE",
"193 -1 OFFCURVE",
"287 -8 CURVE",
"245 -96 LINE",
"260 -93 OFFCURVE",
"296 -87 OFFCURVE",
"324 -87 CURVE SMOOTH",
"357 -87 OFFCURVE",
"379 -95 OFFCURVE",
"379 -117 CURVE SMOOTH",
"379 -140 OFFCURVE",
"354 -148 OFFCURVE",
"323 -148 CURVE SMOOTH",
"287 -148 OFFCURVE",
"247 -137 OFFCURVE",
"233 -128 CURVE"
);
}
);
width = 617;
}
);
leftKerningGroup = S;
rightKerningGroup = S;
unicode = 015E;
},
{
glyphname = uni015F;
layers = (
{
layerId = "5C573416-F98A-4FCE-B5D6-0256B247F272";
name = Bold;
paths = (
{
closed = 1;
nodes = (
"125 -192 LINE",
"152 -203 OFFCURVE",
"190 -213 OFFCURVE",
"238 -213 CURVE SMOOTH",
"343 -213 OFFCURVE",
"390 -166 OFFCURVE",
"390 -110 CURVE SMOOTH",
"390 -54 OFFCURVE",
"344 -32 OFFCURVE",
"296 -32 CURVE SMOOTH",
"286 -32 OFFCURVE",
"277 -33 OFFCURVE",
"269 -34 CURVE",
"286 -9 LINE",
"409 -2 OFFCURVE",
"484 63 OFFCURVE",
"484 165 CURVE SMOOTH",
"484 251 OFFCURVE",
"435 292 OFFCURVE",
"282 333 CURVE SMOOTH",
"220 349 OFFCURVE",
"203 359 OFFCURVE",
"203 379 CURVE SMOOTH",
"203 397 OFFCURVE",
"219 406 OFFCURVE",
"242 406 CURVE SMOOTH",
"281 406 OFFCURVE",
"321 389 OFFCURVE",
"386 347 CURVE",
"458 461 LINE",
"387 522 OFFCURVE",
"320 537 OFFCURVE",
"242 537 CURVE SMOOTH",
"117 537 OFFCURVE",
"27 460 OFFCURVE",
"27 352 CURVE SMOOTH",
"27 273 OFFCURVE",
"77 238 OFFCURVE",
"225 195 CURVE SMOOTH",
"284 178 OFFCURVE",
"301 166 OFFCURVE",
"301 148 CURVE SMOOTH",
"301 131 OFFCURVE",
"288 123 OFFCURVE",
"261 123 CURVE SMOOTH",
"210 123 OFFCURVE",
"148 148 OFFCURVE",
"83 192 CURVE",
"18 78 LINE",
"68 31 OFFCURVE",
"140 2 OFFCURVE",
"215 -7 CURVE",
"172 -96 LINE",
"187 -93 OFFCURVE",
"223 -87 OFFCURVE",
"251 -87 CURVE SMOOTH",
"284 -87 OFFCURVE",
"306 -95 OFFCURVE",
"306 -117 CURVE SMOOTH",
"306 -140 OFFCURVE",
"281 -148 OFFCURVE",
"250 -148 CURVE SMOOTH",
"214 -148 OFFCURVE",
"174 -137 OFFCURVE",
"160 -128 CURVE"
);
}
);
width = 501;
}
);
leftKerningGroup = s;
rightKerningGroup = s;
unicode = 015F;
},
{
glyphname = uni0162;
layers = (
{
layerId = "5C573416-F98A-4FCE-B5D6-0256B247F272";
name = Bold;
paths = (
{
closed = 1;
nodes = (
"184 -192 LINE",
"211 -203 OFFCURVE",
"249 -213 OFFCURVE",
"297 -213 CURVE SMOOTH",
"402 -213 OFFCURVE",
"449 -166 OFFCURVE",
"449 -110 CURVE SMOOTH",
"449 -54 OFFCURVE",
"403 -32 OFFCURVE",
"355 -32 CURVE SMOOTH",
"345 -32 OFFCURVE",
"336 -33 OFFCURVE",
"328 -34 CURVE",
"352 0 LINE",
"410 0 LINE",
"410 540 LINE",
"614 540 LINE",
"614 710 LINE",
"10 710 LINE",
"10 540 LINE",
"215 540 LINE",
"215 0 LINE",
"277 0 LINE",
"231 -96 LINE",
"246 -93 OFFCURVE",
"282 -87 OFFCURVE",
"310 -87 CURVE SMOOTH",
"343 -87 OFFCURVE",
"365 -95 OFFCURVE",
"365 -117 CURVE SMOOTH",
"365 -140 OFFCURVE",
"340 -148 OFFCURVE",
"309 -148 CURVE SMOOTH",
"273 -148 OFFCURVE",
"233 -137 OFFCURVE",
"219 -128 CURVE"
);
}
);
width = 624;
}
);
leftKerningGroup = T;
rightKerningGroup = T;
unicode = 0162;
},
{
glyphname = uni0163;
layers = (
{
layerId = "5C573416-F98A-4FCE-B5D6-0256B247F272";
name = Bold;
paths = (
{
closed = 1;
nodes = (
"125 -192 LINE",
"152 -203 OFFCURVE",
"190 -213 OFFCURVE",
"238 -213 CURVE SMOOTH",
"343 -213 OFFCURVE",
"390 -166 OFFCURVE",
"390 -110 CURVE SMOOTH",
"390 -54 OFFCURVE",
"344 -32 OFFCURVE",
"296 -32 CURVE SMOOTH",
"286 -32 OFFCURVE",
"277 -33 OFFCURVE",
"269 -34 CURVE",
"287 -8 LINE",
"332 -2 OFFCURVE",
"377 12 OFFCURVE",
"417 29 CURVE",
"383 179 LINE",
"359 169 OFFCURVE",
"334 162 OFFCURVE",
"315 162 CURVE SMOOTH",
"290 162 OFFCURVE",
"274 174 OFFCURVE",
"274 209 CURVE SMOOTH",
"274 383 LINE",
"377 383 LINE",
"377 526 LINE",
"274 526 LINE",
"274 691 LINE",
"84 691 LINE",
"84 526 LINE",
"19 526 LINE",
"19 383 LINE",
"84 383 LINE",
"84 142 LINE SMOOTH",
"84 40 OFFCURVE",
"141 -1 OFFCURVE",
"214 -9 CURVE",
"172 -96 LINE",
"187 -93 OFFCURVE",
"223 -87 OFFCURVE",
"251 -87 CURVE SMOOTH",
"284 -87 OFFCURVE",
"306 -95 OFFCURVE",
"306 -117 CURVE SMOOTH",
"306 -140 OFFCURVE",
"281 -148 OFFCURVE",
"250 -148 CURVE SMOOTH",
"214 -148 OFFCURVE",
"174 -137 OFFCURVE",
"160 -128 CURVE"
);
}
);
width = 423;
}
);
leftKerningGroup = t;
rightKerningGroup = c_t;
unicode = 0163;
},
{
color = 4;
glyphname = uni03BC;
lastChange = "2014-12-08 16:01:05 +0000";
layers = (
{
layerId = "5C573416-F98A-4FCE-B5D6-0256B247F272";
name = Bold;
paths = (
{
closed = 1;
nodes = (
"49 -213 LINE",
"227 -213 LINE",
"227 26 LINE",
"240 0 OFFCURVE",
"261 -11 OFFCURVE",
"284 -11 CURVE SMOOTH",
"336 -11 OFFCURVE",
"401 41 OFFCURVE",
"418 82 CURVE",
"424 0 LINE",
"578 0 LINE",
"578 526 LINE",
"388 526 LINE",
"388 204 LINE",
"357 159 OFFCURVE",
"325 150 OFFCURVE",
"301 150 CURVE SMOOTH",
"259 150 OFFCURVE",
"239 177 OFFCURVE",
"239 223 CURVE SMOOTH",
"239 526 LINE",
"49 526 LINE"
);
}
);
width = 653;
}
);
rightKerningGroup = uni03BC;
unicode = 03BC;
},
{
glyphname = uni2215;
layers = (
{
layerId = "5C573416-F98A-4FCE-B5D6-0256B247F272";
name = Bold;
paths = (
{
closed = 1;
nodes = (
"85 -10 LINE",
"663 632 LINE",
"556 721 LINE",
"-22 79 LINE"
);
}
);
width = 641;
}
);
unicode = 2215;
},
{
color = 4;
glyphname = uni2219;
lastChange = "2015-01-03 10:46:49 +0000";
layers = (
{
layerId = "5C573416-F98A-4FCE-B5D6-0256B247F272";
name = Bold;
paths = (
{
closed = 1;
nodes = (
"184 227 OFFCURVE",
"232 274 OFFCURVE",
"232 332 CURVE SMOOTH",
"232 388 OFFCURVE",
"184 436 OFFCURVE",
"126 436 CURVE SMOOTH",
"70 436 OFFCURVE",
"23 388 OFFCURVE",
"23 332 CURVE SMOOTH",
"23 274 OFFCURVE",
"70 227 OFFCURVE",
"126 227 CURVE SMOOTH"
);
}
);
width = 254;
}
);
unicode = 2219;
},
{
glyphname = v;
layers = (
{
layerId = "5C573416-F98A-4FCE-B5D6-0256B247F272";
name = Bold;
paths = (
{
closed = 1;
nodes = (
"385 0 LINE",
"562 526 LINE",
"385 526 LINE",
"290 149 LINE",
"196 526 LINE",
"1 526 LINE",
"178 0 LINE"
);
}
);
width = 563;
}
);
leftKerningGroup = v;
rightKerningGroup = v;
unicode = 0076;
},
{
color = 4;
glyphname = w;
lastChange = "2014-12-09 09:42:08 +0000";
layers = (
{
anchors = (
{
name = top;
position = "{454, 526}";
}
);
layerId = "5C573416-F98A-4FCE-B5D6-0256B247F272";
name = Bold;
paths = (
{
closed = 1;
nodes = (
"729 0 LINE",
"906 526 LINE",
"711 526 LINE",
"617 224 LINE",
"542 526 LINE",
"365 526 LINE",
"290 224 LINE",
"196 526 LINE",
"1 526 LINE",
"178 0 LINE",
"385 0 LINE",
"453 229 LINE",
"522 0 LINE"
);
}
);
width = 907;
}
);
leftKerningGroup = w.alt;
rightKerningGroup = w.alt;
unicode = 0077;
},
{
glyphname = w.alt;
layers = (
{
layerId = "5C573416-F98A-4FCE-B5D6-0256B247F272";
name = Bold;
paths = (
{
closed = 1;
nodes = (
"566 173 LINE",
"533 286 LINE",
"627 526 LINE",
"476 526 LINE",
"431 372 LINE",
"386 526 LINE",
"235 526 LINE",
"329 286 LINE",
"296 173 LINE",
"169 526 LINE",
"-10 526 LINE",
"205 0 LINE",
"360 0 LINE",
"431 200 LINE",
"502 0 LINE",
"657 0 LINE",
"872 526 LINE",
"693 526 LINE"
);
}
);
width = 862;
}
);
leftKerningGroup = w;
rightKerningGroup = w;
},
{
glyphname = x;
layers = (
{
layerId = "5C573416-F98A-4FCE-B5D6-0256B247F272";
name = Bold;
paths = (
{
closed = 1;
nodes = (
"-1 526 LINE",
"175 263 LINE",
"-6 0 LINE",
"187 0 LINE",
"268 129 LINE",
"277 149 LINE",
"286 129 LINE",
"367 0 LINE",
"560 0 LINE",
"379 263 LINE",
"555 526 LINE",
"362 526 LINE",
"287 397 LINE",
"277 376 LINE",
"267 397 LINE",
"192 526 LINE"
);
}
);
width = 554;
}
);
leftKerningGroup = x;
rightKerningGroup = x;
unicode = 0078;
},
{
glyphname = y;
lastChange = "2014-12-09 09:42:17 +0000";
layers = (
{
anchors = (
{
name = top;
position = "{278, 526}";
}
);
layerId = "5C573416-F98A-4FCE-B5D6-0256B247F272";
name = Bold;
paths = (
{
closed = 1;
nodes = (
"44 -215 LINE",
"76 -228 OFFCURVE",
"109 -234 OFFCURVE",
"142 -234 CURVE SMOOTH",
"250 -234 OFFCURVE",
"342 -166 OFFCURVE",
"373 -63 CURVE SMOOTH",
"551 526 LINE",
"374 526 LINE",
"293 161 LINE",
"193 526 LINE",
"-2 526 LINE",
"189 0 LINE",
"185 -47 OFFCURVE",
"163 -70 OFFCURVE",
"122 -70 CURVE SMOOTH",
"101 -70 OFFCURVE",
"74 -64 OFFCURVE",
"44 -53 CURVE"
);
}
);
width = 555;
}
);
leftKerningGroup = y;
rightKerningGroup = y;
unicode = 0079;
},
{
glyphname = y.alt;
layers = (
{
layerId = "5C573416-F98A-4FCE-B5D6-0256B247F272";
name = Bold;
paths = (
{
closed = 1;
nodes = (
"374 526 LINE",
"293 161 LINE",
"193 526 LINE",
"-2 526 LINE",
"189 0 LINE",
"106 -213 LINE",
"328 -213 LINE",
"551 526 LINE"
);
}
);
width = 555;
}
);
leftKerningGroup = y.alt;
rightKerningGroup = y.alt;
},
{
glyphname = yen;
layers = (
{
layerId = "5C573416-F98A-4FCE-B5D6-0256B247F272";
name = Bold;
paths = (
{
closed = 1;
nodes = (
"710 710 LINE",
"498 710 LINE",
"368 403 LINE",
"241 710 LINE",
"30 710 LINE",
"172 432 LINE",
"107 432 LINE",
"107 312 LINE",
"233 312 LINE",
"271 237 LINE",
"271 202 LINE",
"106 202 LINE",
"106 82 LINE",
"271 82 LINE",
"271 0 LINE",
"465 0 LINE",
"465 82 LINE",
"631 82 LINE",
"631 202 LINE",
"465 202 LINE",
"465 235 LINE",
"504 312 LINE",
"630 312 LINE",
"630 432 LINE",
"566 432 LINE"
);
}
);
width = 742;
}
);
unicode = 00A5;
},
{
glyphname = z;
lastChange = "2014-12-09 09:42:25 +0000";
layers = (
{
anchors = (
{
name = top;
position = "{247, 526}";
}
);
layerId = "5C573416-F98A-4FCE-B5D6-0256B247F272";
name = Bold;
paths = (
{
closed = 1;
nodes = (
"22 0 LINE",
"469 0 LINE",
"469 130 LINE",
"221 130 LINE",
"460 414 LINE",
"460 526 LINE",
"37 526 LINE",
"37 396 LINE",
"262 396 LINE",
"22 112 LINE"
);
}
);
width = 494;
}
);
leftKerningGroup = z;
rightKerningGroup = z;
unicode = 007A;
},
{
glyphname = zero;
lastChange = "2014-12-09 13:59:44 +0000";
layers = (
{
layerId = "5C573416-F98A-4FCE-B5D6-0256B247F272";
name = Bold;
paths = (
{
closed = 1;
nodes = (
"556 -10 OFFCURVE",
"679 177 OFFCURVE",
"679 350 CURVE SMOOTH",
"679 505 OFFCURVE",
"569 710 OFFCURVE",
"357 710 CURVE SMOOTH",
"158 710 OFFCURVE",
"35 521 OFFCURVE",
"35 350 CURVE SMOOTH",
"35 190 OFFCURVE",
"145 -10 OFFCURVE",
"357 -10 CURVE SMOOTH"
);
},
{
closed = 1;
nodes = (
"233 429 OFFCURVE",
"265 537 OFFCURVE",
"357 537 CURVE SMOOTH",
"444 537 OFFCURVE",
"481 437 OFFCURVE",
"481 350 CURVE SMOOTH",
"481 271 OFFCURVE",
"449 163 OFFCURVE",
"357 163 CURVE SMOOTH",
"268 163 OFFCURVE",
"233 263 OFFCURVE",
"233 350 CURVE SMOOTH"
);
}
);
width = 714;
}
);
unicode = 0030;
},
{
glyphname = zeroinferior;
layers = (
{
layerId = "5C573416-F98A-4FCE-B5D6-0256B247F272";
name = Bold;
paths = (
{
closed = 1;
nodes = (
"398 -96 OFFCURVE",
"485 20 OFFCURVE",
"485 127 CURVE SMOOTH",
"485 223 OFFCURVE",
"407 350 OFFCURVE",
"256 350 CURVE SMOOTH",
"114 350 OFFCURVE",
"26 233 OFFCURVE",
"26 127 CURVE SMOOTH",
"26 28 OFFCURVE",
"104 -96 OFFCURVE",
"256 -96 CURVE SMOOTH"
);
},
{
closed = 1;
nodes = (
"138 175 OFFCURVE",
"172 241 OFFCURVE",
"256 241 CURVE SMOOTH",
"334 241 OFFCURVE",
"373 180 OFFCURVE",
"373 127 CURVE SMOOTH",
"373 79 OFFCURVE",
"339 13 OFFCURVE",
"256 13 CURVE SMOOTH",
"175 13 OFFCURVE",
"138 74 OFFCURVE",
"138 127 CURVE SMOOTH"
);
}
);
width = 511;
}
);
unicode = 2080;
},
{
glyphname = zerosuperior;
layers = (
{
layerId = "5C573416-F98A-4FCE-B5D6-0256B247F272";
name = Bold;
paths = (
{
closed = 1;
nodes = (
"398 374 OFFCURVE",
"485 490 OFFCURVE",
"485 597 CURVE SMOOTH",
"485 693 OFFCURVE",
"407 820 OFFCURVE",
"256 820 CURVE SMOOTH",
"114 820 OFFCURVE",
"26 703 OFFCURVE",
"26 597 CURVE SMOOTH",
"26 498 OFFCURVE",
"104 374 OFFCURVE",
"256 374 CURVE SMOOTH"
);
},
{
closed = 1;
nodes = (
"138 645 OFFCURVE",
"172 711 OFFCURVE",
"256 711 CURVE SMOOTH",
"334 711 OFFCURVE",
"373 650 OFFCURVE",
"373 597 CURVE SMOOTH",
"373 549 OFFCURVE",
"339 483 OFFCURVE",
"256 483 CURVE SMOOTH",
"175 483 OFFCURVE",
"138 544 OFFCURVE",
"138 597 CURVE SMOOTH"
);
}
);
width = 511;
}
);
unicode = 2070;
},
{
glyphname = currency;
layers = (
{
layerId = "5C573416-F98A-4FCE-B5D6-0256B247F272";
name = Bold;
paths = (
{
closed = 1;
nodes = (
"114 578 LINE",
"43 507 LINE",
"108 441 LINE",
"89 411 OFFCURVE",
"80 375 OFFCURVE",
"80 338 CURVE SMOOTH",
"80 300 OFFCURVE",
"90 264 OFFCURVE",
"109 233 CURVE",
"43 167 LINE",
"109 101 LINE",
"181 169 LINE",
"210 155 OFFCURVE",
"245 147 OFFCURVE",
"286 147 CURVE SMOOTH",
"326 147 OFFCURVE",
"360 154 OFFCURVE",
"388 168 CURVE",
"459 101 LINE",
"525 167 LINE",
"461 231 LINE",
"481 262 OFFCURVE",
"492 299 OFFCURVE",
"492 338 CURVE SMOOTH",
"492 376 OFFCURVE",
"481 413 OFFCURVE",
"462 444 CURVE",
"525 507 LINE",
"454 578 LINE",
"386 509 LINE",
"358 521 OFFCURVE",
"325 529 OFFCURVE",
"286 529 CURVE SMOOTH",
"246 529 OFFCURVE",
"212 521 OFFCURVE",
"183 507 CURVE"
);
},
{
closed = 1;
nodes = (
"213 387 OFFCURVE",
"243 417 OFFCURVE",
"286 417 CURVE SMOOTH",
"329 417 OFFCURVE",
"359 387 OFFCURVE",
"359 338 CURVE SMOOTH",
"359 289 OFFCURVE",
"329 259 OFFCURVE",
"286 259 CURVE SMOOTH",
"243 259 OFFCURVE",
"213 289 OFFCURVE",
"213 338 CURVE SMOOTH"
);
}
);
width = 569;
}
);
unicode = 00A4;
},
{
glyphname = afii61352;
layers = (
{
layerId = "5C573416-F98A-4FCE-B5D6-0256B247F272";
name = Bold;
paths = (
{
closed = 1;
nodes = (
"557 0 LINE",
"712 0 LINE",
"712 710 LINE",
"517 710 LINE",
"517 349 LINE",
"232 710 LINE",
"80 710 LINE",
"80 0 LINE",
"275 0 LINE",
"275 349 LINE"
);
},
{
closed = 1;
nodes = (
"1082 333 OFFCURVE",
"1147 423 OFFCURVE",
"1147 524 CURVE SMOOTH",
"1147 626 OFFCURVE",
"1082 715 OFFCURVE",
"956 715 CURVE SMOOTH",
"831 715 OFFCURVE",
"765 626 OFFCURVE",
"765 524 CURVE SMOOTH",
"765 423 OFFCURVE",
"831 333 OFFCURVE",
"956 333 CURVE SMOOTH"
);
},
{
closed = 1;
nodes = (
"898 573 OFFCURVE",
"922 603 OFFCURVE",
"956 603 CURVE SMOOTH",
"990 603 OFFCURVE",
"1014 573 OFFCURVE",
"1014 524 CURVE SMOOTH",
"1014 475 OFFCURVE",
"990 445 OFFCURVE",
"956 445 CURVE SMOOTH",
"922 445 OFFCURVE",
"898 475 OFFCURVE",
"898 524 CURVE SMOOTH"
);
}
);
width = 1152;
}
);
unicode = 2116;
},
{
color = 9;
glyphname = uni030F;
lastChange = "2015-01-03 10:42:04 +0000";
layers = (
{
anchors = (
{
name = _top;
position = "{286, 526}";
}
);
layerId = "5C573416-F98A-4FCE-B5D6-0256B247F272";
name = Bold;
paths = (
{
closed = 1;
nodes = (
"224 596 LINE",
"138 751 LINE",
"-47 751 LINE",
"104 596 LINE"
);
},
{
closed = 1;
nodes = (
"446 596 LINE",
"360 751 LINE",
"175 751 LINE",
"326 596 LINE"
);
}
);
width = 399;
}
);
unicode = 030F;
},
{
color = 9;
glyphname = uni0311;
lastChange = "2015-01-02 19:49:04 +0000";
layers = (
{
anchors = (
{
name = _top;
position = "{184, 526}";
}
);
layerId = "5C573416-F98A-4FCE-B5D6-0256B247F272";
name = Bold;
paths = (
{
closed = 1;
nodes = (
"218 662 OFFCURVE",
"247 624 OFFCURVE",
"251 572 CURVE",
"359 572 LINE",
"359 677 OFFCURVE",
"287 751 OFFCURVE",
"184 751 CURVE SMOOTH",
"80 751 OFFCURVE",
"9 677 OFFCURVE",
"9 572 CURVE",
"117 572 LINE",
"117 621 OFFCURVE",
"148 662 OFFCURVE",
"184 662 CURVE SMOOTH"
);
}
);
width = 368;
}
);
unicode = 0311;
},
{
glyphname = uni02C9;
lastChange = "2014-12-09 13:19:15 +0000";
layers = (
{
layerId = "5C573416-F98A-4FCE-B5D6-0256B247F272";
name = Bold;
paths = (
{
closed = 1;
nodes = (
"374 607 LINE",
"374 720 LINE",
"64 720 LINE",
"64 607 LINE"
);
}
);
width = 438;
}
);
unicode = 02C9;
},
{
color = 4;
glyphname = dotbelow;
lastChange = "2014-12-09 11:14:44 +0000";
layers = (
{
anchors = (
{
name = bottom;
position = "{135, -3}";
}
);
layerId = "5C573416-F98A-4FCE-B5D6-0256B247F272";
name = Bold;
paths = (
{
closed = 1;
nodes = (
"186 -224 OFFCURVE",
"227 -183 OFFCURVE",
"227 -132 CURVE SMOOTH",
"227 -81 OFFCURVE",
"186 -40 OFFCURVE",
"135 -40 CURVE SMOOTH",
"84 -40 OFFCURVE",
"43 -81 OFFCURVE",
"43 -132 CURVE SMOOTH",
"43 -183 OFFCURVE",
"84 -224 OFFCURVE",
"135 -224 CURVE SMOOTH"
);
}
);
width = 270;
}
);
},
{
glyphname = colonmonetary;
layers = (
{
layerId = "5C573416-F98A-4FCE-B5D6-0256B247F272";
name = Bold;
paths = (
{
closed = 1;
nodes = (
"188 -120 LINE",
"272 -120 LINE",
"272 -8 LINE",
"285 -9 OFFCURVE",
"299 -10 OFFCURVE",
"313 -10 CURVE SMOOTH",
"319 -10 OFFCURVE",
"326 -10 OFFCURVE",
"332 -9 CURVE",
"332 -120 LINE",
"416 -120 LINE",
"416 5 LINE",
"488 27 OFFCURVE",
"540 74 OFFCURVE",
"570 133 CURVE",
"385 189 LINE",
"368 164 OFFCURVE",
"343 150 OFFCURVE",
"312 150 CURVE SMOOTH",
"260 150 OFFCURVE",
"219 192 OFFCURVE",
"219 263 CURVE SMOOTH",
"219 334 OFFCURVE",
"260 376 OFFCURVE",
"312 376 CURVE SMOOTH",
"343 376 OFFCURVE",
"368 362 OFFCURVE",
"385 337 CURVE",
"570 393 LINE",
"540 452 OFFCURVE",
"488 498 OFFCURVE",
"416 521 CURVE",
"416 645 LINE",
"332 645 LINE",
"332 535 LINE",
"326 536 OFFCURVE",
"319 536 OFFCURVE",
"313 536 CURVE SMOOTH",
"299 536 OFFCURVE",
"285 535 OFFCURVE",
"272 534 CURVE",
"272 645 LINE",
"188 645 LINE",
"188 513 LINE",
"81 469 OFFCURVE",
"24 370 OFFCURVE",
"24 263 CURVE SMOOTH",
"24 155 OFFCURVE",
"81 56 OFFCURVE",
"188 13 CURVE"
);
}
);
width = 585;
}
);
unicode = 20A1;
},
{
glyphname = uni20A9;
layers = (
{
layerId = "5C573416-F98A-4FCE-B5D6-0256B247F272";
name = Bold;
paths = (
{
closed = 1;
nodes = (
"43 102 LINE",
"279 102 LINE",
"319 0 LINE",
"481 0 LINE",
"581 254 LINE",
"682 0 LINE",
"844 0 LINE",
"884 102 LINE",
"1125 102 LINE",
"1125 222 LINE",
"931 222 LINE",
"974 332 LINE",
"1125 332 LINE",
"1125 452 LINE",
"1021 452 LINE",
"1122 710 LINE",
"910 710 LINE",
"829 452 LINE",
"734 452 LINE",
"823 710 LINE",
"644 710 LINE",
"581 491 LINE",
"519 710 LINE",
"340 710 LINE",
"427 452 LINE",
"333 452 LINE",
"252 710 LINE",
"41 710 LINE",
"142 452 LINE",
"43 452 LINE",
"43 332 LINE",
"189 332 LINE",
"232 222 LINE",
"43 222 LINE"
);
},
{
closed = 1;
nodes = (
"719 332 LINE",
"791 332 LINE",
"757 223 LINE"
);
},
{
closed = 1;
nodes = (
"371 332 LINE",
"442 332 LINE",
"406 223 LINE"
);
}
);
width = 1167;
}
);
unicode = 20A9;
},
{
glyphname = franc;
layers = (
{
layerId = "5C573416-F98A-4FCE-B5D6-0256B247F272";
name = Bold;
paths = (
{
closed = 1;
nodes = (
"297 0 LINE",
"297 76 LINE",
"402 76 LINE",
"402 196 LINE",
"297 196 LINE",
"297 264 LINE",
"535 264 LINE",
"535 422 LINE",
"297 422 LINE",
"297 540 LINE",
"589 540 LINE",
"589 710 LINE",
"102 710 LINE",
"102 196 LINE",
"35 196 LINE",
"35 76 LINE",
"102 76 LINE",
"102 0 LINE"
);
}
);
width = 606;
}
);
unicode = 20A3;
},
{
glyphname = uni20A6;
layers = (
{
layerId = "5C573416-F98A-4FCE-B5D6-0256B247F272";
name = Bold;
paths = (
{
closed = 1;
nodes = (
"831 553 LINE",
"751 553 LINE",
"751 710 LINE",
"556 710 LINE",
"556 553 LINE",
"395 553 LINE",
"271 710 LINE",
"119 710 LINE",
"119 553 LINE",
"39 553 LINE",
"39 433 LINE",
"119 433 LINE",
"119 263 LINE",
"39 263 LINE",
"39 143 LINE",
"119 143 LINE",
"119 0 LINE",
"314 0 LINE",
"314 143 LINE",
"480 143 LINE",
"596 0 LINE",
"751 0 LINE",
"751 143 LINE",
"831 143 LINE",
"831 263 LINE",
"751 263 LINE",
"751 433 LINE",
"831 433 LINE"
);
},
{
closed = 1;
nodes = (
"314 349 LINE",
"383 263 LINE",
"314 263 LINE"
);
},
{
closed = 1;
nodes = (
"489 433 LINE",
"556 433 LINE",
"556 349 LINE"
);
}
);
width = 870;
}
);
unicode = 20A6;
},
{
glyphname = lira;
layers = (
{
layerId = "5C573416-F98A-4FCE-B5D6-0256B247F272";
name = Bold;
paths = (
{
closed = 1;
nodes = (
"36 342 LINE",
"144 342 LINE",
"147 332 OFFCURVE",
"149 322 OFFCURVE",
"151 312 CURVE",
"36 312 LINE",
"36 192 LINE",
"124 192 LINE",
"108 164 OFFCURVE",
"86 140 OFFCURVE",
"61 125 CURVE",
"99 -9 LINE",
"149 7 OFFCURVE",
"205 18 OFFCURVE",
"243 18 CURVE SMOOTH",
"310 18 OFFCURVE",
"382 -15 OFFCURVE",
"444 -15 CURVE SMOOTH",
"484 -15 OFFCURVE",
"533 -1 OFFCURVE",
"563 19 CURVE",
"517 159 LINE",
"493 150 OFFCURVE",
"476 146 OFFCURVE",
"454 146 CURVE SMOOTH",
"411 146 OFFCURVE",
"366 161 OFFCURVE",
"324 161 CURVE SMOOTH",
"302 161 OFFCURVE",
"278 157 OFFCURVE",
"246 146 CURVE",
"261 161 OFFCURVE",
"273 176 OFFCURVE",
"283 192 CURVE",
"420 192 LINE",
"420 312 LINE",
"314 312 LINE",
"314 322 OFFCURVE",
"312 332 OFFCURVE",
"310 342 CURVE",
"420 342 LINE",
"420 462 LINE",
"265 462 LINE",
"258 479 OFFCURVE",
"254 495 OFFCURVE",
"254 510 CURVE SMOOTH",
"254 542 OFFCURVE",
"276 562 OFFCURVE",
"312 562 CURVE SMOOTH",
"355 562 OFFCURVE",
"413 532 OFFCURVE",
"447 493 CURVE",
"543 610 LINE",
"486 676 OFFCURVE",
"401 715 OFFCURVE",
"313 715 CURVE SMOOTH",
"186 715 OFFCURVE",
"86 634 OFFCURVE",
"86 531 CURVE SMOOTH",
"86 507 OFFCURVE",
"91 484 OFFCURVE",
"98 462 CURVE",
"36 462 LINE"
);
}
);
width = 573;
}
);
unicode = 20A4;
},
{
glyphname = uni20B9;
layers = (
{
layerId = "5C573416-F98A-4FCE-B5D6-0256B247F272";
name = Bold;
paths = (
{
closed = 1;
nodes = (
"541 523 LINE",
"433 523 LINE",
"427 546 OFFCURVE",
"417 569 OFFCURVE",
"405 590 CURVE",
"541 590 LINE",
"541 710 LINE",
"40 710 LINE",
"40 560 LINE",
"189 560 LINE SMOOTH",
"203 560 OFFCURVE",
"220 547 OFFCURVE",
"231 523 CURVE",
"40 523 LINE",
"40 403 LINE",
"232 403 LINE",
"222 380 OFFCURVE",
"208 368 OFFCURVE",
"194 368 CURVE SMOOTH",
"40 368 LINE",
"279 0 LINE",
"499 0 LINE",
"319 261 LINE",
"375 294 OFFCURVE",
"416 345 OFFCURVE",
"432 403 CURVE",
"541 403 LINE"
);
}
);
width = 579;
}
);
unicode = 20B9;
},
{
glyphname = servicemark;
layers = (
{
layerId = "5C573416-F98A-4FCE-B5D6-0256B247F272";
name = Bold;
paths = (
{
closed = 1;
nodes = (
"579 579 LINE",
"544 710 LINE",
"363 710 LINE",
"363 401 LINE",
"483 401 LINE",
"483 562 LINE",
"531 443 LINE",
"628 443 LINE",
"676 562 LINE",
"676 401 LINE",
"796 401 LINE",
"796 710 LINE",
"614 710 LINE"
);
},
{
closed = 1;
nodes = (
"321 682 LINE",
"272 704 OFFCURVE",
"223 716 OFFCURVE",
"182 716 CURVE SMOOTH",
"105 716 OFFCURVE",
"50 671 OFFCURVE",
"50 608 CURVE SMOOTH",
"50 561 OFFCURVE",
"79 538 OFFCURVE",
"166 515 CURVE",
"210 506 OFFCURVE",
"223 501 OFFCURVE",
"223 493 CURVE SMOOTH",
"223 486 OFFCURVE",
"213 483 OFFCURVE",
"193 483 CURVE SMOOTH",
"160 483 OFFCURVE",
"120 496 OFFCURVE",
"77 518 CURVE",
"34 432 LINE",
"74 411 OFFCURVE",
"143 395 OFFCURVE",
"196 395 CURVE SMOOTH",
"278 395 OFFCURVE",
"330 434 OFFCURVE",
"330 498 CURVE SMOOTH",
"330 548 OFFCURVE",
"300 572 OFFCURVE",
"206 596 CURVE",
"164 604 OFFCURVE",
"153 609 OFFCURVE",
"153 618 CURVE SMOOTH",
"153 626 OFFCURVE",
"165 629 OFFCURVE",
"182 629 CURVE SMOOTH",
"209 629 OFFCURVE",
"235 620 OFFCURVE",
"278 601 CURVE"
);
}
);
width = 851;
}
);
leftKerningGroup = servicemark;
rightKerningGroup = servicemark;
unicode = 2120;
},
{
glyphname = Schwa;
layers = (
{
layerId = "5C573416-F98A-4FCE-B5D6-0256B247F272";
name = Bold;
paths = (
{
closed = 1;
nodes = (
"611 -5 OFFCURVE",
"736 187 OFFCURVE",
"736 366 CURVE SMOOTH",
"736 523 OFFCURVE",
"607 714 OFFCURVE",
"375 714 CURVE SMOOTH",
"214 714 OFFCURVE",
"99 637 OFFCURVE",
"45 521 CURVE",
"248 464 LINE",
"263 514 OFFCURVE",
"321 543 OFFCURVE",
"377 543 CURVE SMOOTH",
"447 543 OFFCURVE",
"514 505 OFFCURVE",
"523 411 CURVE",
"18 411 LINE",
"15 391 OFFCURVE",
"12 363 OFFCURVE",
"12 338 CURVE SMOOTH",
"12 189 OFFCURVE",
"138 -5 OFFCURVE",
"375 -5 CURVE SMOOTH"
);
},
{
closed = 1;
nodes = (
"298 165 OFFCURVE",
"240 203 OFFCURVE",
"228 268 CURVE",
"518 268 LINE",
"507 203 OFFCURVE",
"453 165 OFFCURVE",
"378 165 CURVE SMOOTH"
);
}
);
width = 758;
}
);
leftKerningGroup = Schwa;
rightKerningGroup = O;
unicode = 018F;
},
{
glyphname = approxequal;
layers = (
{
layerId = "5C573416-F98A-4FCE-B5D6-0256B247F272";
name = Bold;
paths = (
{
closed = 1;
nodes = (
"339 424 LINE",
"333 410 OFFCURVE",
"319 396 OFFCURVE",
"295 396 CURVE SMOOTH",
"249 396 OFFCURVE",
"225 447 OFFCURVE",
"160 447 CURVE SMOOTH",
"99 447 OFFCURVE",
"61 402 OFFCURVE",
"40 358 CURVE",
"128 314 LINE",
"134 326 OFFCURVE",
"145 337 OFFCURVE",
"168 337 CURVE SMOOTH",
"213 337 OFFCURVE",
"241 289 OFFCURVE",
"302 289 CURVE SMOOTH",
"365 289 OFFCURVE",
"405 339 OFFCURVE",
"426 384 CURVE"
);
},
{
closed = 1;
nodes = (
"339 240 LINE",
"333 226 OFFCURVE",
"319 212 OFFCURVE",
"295 212 CURVE SMOOTH",
"249 212 OFFCURVE",
"225 263 OFFCURVE",
"160 263 CURVE SMOOTH",
"99 263 OFFCURVE",
"61 218 OFFCURVE",
"40 174 CURVE",
"128 130 LINE",
"134 142 OFFCURVE",
"145 153 OFFCURVE",
"168 153 CURVE SMOOTH",
"213 153 OFFCURVE",
"241 105 OFFCURVE",
"302 105 CURVE SMOOTH",
"365 105 OFFCURVE",
"405 155 OFFCURVE",
"426 200 CURVE"
);
}
);
width = 466;
}
);
unicode = 2248;
},
{
glyphname = notequal;
layers = (
{
layerId = "5C573416-F98A-4FCE-B5D6-0256B247F272";
name = Bold;
paths = (
{
closed = 1;
nodes = (
"60 321 LINE",
"200 321 LINE",
"158 231 LINE",
"60 231 LINE",
"60 111 LINE",
"102 111 LINE",
"59 20 LINE",
"124 -12 LINE",
"182 111 LINE",
"383 111 LINE",
"383 231 LINE",
"238 231 LINE",
"281 321 LINE",
"383 321 LINE",
"383 441 LINE",
"337 441 LINE",
"383 537 LINE",
"318 571 LINE",
"257 441 LINE",
"60 441 LINE"
);
}
);
width = 443;
}
);
unicode = 2260;
},
{
glyphname = lessequal;
layers = (
{
layerId = "5C573416-F98A-4FCE-B5D6-0256B247F272";
name = Bold;
paths = (
{
closed = 1;
nodes = (
"421 1 LINE",
"421 151 LINE",
"41 151 LINE",
"41 1 LINE"
);
},
{
closed = 1;
nodes = (
"45 344 LINE",
"420 194 LINE",
"420 376 LINE",
"222 423 LINE",
"420 478 LINE",
"420 660 LINE",
"45 492 LINE"
);
}
);
width = 495;
}
);
unicode = 2264;
},
{
glyphname = greaterequal;
layers = (
{
layerId = "5C573416-F98A-4FCE-B5D6-0256B247F272";
name = Bold;
paths = (
{
closed = 1;
nodes = (
"454 1 LINE",
"454 151 LINE",
"74 151 LINE",
"74 1 LINE"
);
},
{
closed = 1;
nodes = (
"450 492 LINE",
"75 660 LINE",
"75 478 LINE",
"273 423 LINE",
"75 376 LINE",
"75 194 LINE",
"450 344 LINE"
);
}
);
width = 495;
}
);
unicode = 2265;
},
{
glyphname = zero.numerator;
layers = (
{
layerId = "5C573416-F98A-4FCE-B5D6-0256B247F272";
name = Bold;
paths = (
{
closed = 1;
nodes = (
"398 284 OFFCURVE",
"485 400 OFFCURVE",
"485 507 CURVE SMOOTH",
"485 603 OFFCURVE",
"407 730 OFFCURVE",
"256 730 CURVE SMOOTH",
"114 730 OFFCURVE",
"26 613 OFFCURVE",
"26 507 CURVE SMOOTH",
"26 408 OFFCURVE",
"104 284 OFFCURVE",
"256 284 CURVE SMOOTH"
);
},
{
closed = 1;
nodes = (
"138 555 OFFCURVE",
"172 621 OFFCURVE",
"256 621 CURVE SMOOTH",
"334 621 OFFCURVE",
"373 560 OFFCURVE",
"373 507 CURVE SMOOTH",
"373 459 OFFCURVE",
"339 393 OFFCURVE",
"256 393 CURVE SMOOTH",
"175 393 OFFCURVE",
"138 454 OFFCURVE",
"138 507 CURVE SMOOTH"
);
}
);
width = 511;
}
);
},
{
color = 4;
glyphname = one.numerator;
lastChange = "2014-12-09 14:04:53 +0000";
layers = (
{
layerId = "5C573416-F98A-4FCE-B5D6-0256B247F272";
name = Bold;
paths = (
{
closed = 1;
nodes = (
"233 289 LINE",
"233 732 LINE",
"123 732 LINE",
"6 661 LINE",
"54 577 LINE",
"123 617 LINE",
"123 289 LINE"
);
}
);
width = 321;
}
);
},
{
glyphname = two.numerator;
layers = (
{
layerId = "5C573416-F98A-4FCE-B5D6-0256B247F272";
name = Bold;
paths = (
{
closed = 1;
nodes = (
"394 286 LINE",
"394 393 LINE",
"207 393 LINE",
"207 419 OFFCURVE",
"239 432 OFFCURVE",
"287 445 CURVE SMOOTH",
"338 459 OFFCURVE",
"412 496 OFFCURVE",
"412 586 CURVE SMOOTH",
"412 682 OFFCURVE",
"347 731 OFFCURVE",
"232 731 CURVE SMOOTH",
"131 731 OFFCURVE",
"57 699 OFFCURVE",
"28 661 CURVE",
"96 581 LINE",
"122 604 OFFCURVE",
"165 625 OFFCURVE",
"216 625 CURVE SMOOTH",
"260 625 OFFCURVE",
"288 617 OFFCURVE",
"288 587 CURVE SMOOTH",
"288 543 OFFCURVE",
"224 523 OFFCURVE",
"160 496 CURVE SMOOTH",
"53 451 OFFCURVE",
"26 400 OFFCURVE",
"26 286 CURVE"
);
}
);
width = 441;
}
);
},
{
glyphname = three.numerator;
layers = (
{
layerId = "5C573416-F98A-4FCE-B5D6-0256B247F272";
name = Bold;
paths = (
{
closed = 1;
nodes = (
"292 279 OFFCURVE",
"393 314 OFFCURVE",
"393 407 CURVE SMOOTH",
"393 463 OFFCURVE",
"352 512 OFFCURVE",
"285 521 CURVE",
"345 530 OFFCURVE",
"383 563 OFFCURVE",
"383 611 CURVE SMOOTH",
"383 679 OFFCURVE",
"304 731 OFFCURVE",
"199 731 CURVE SMOOTH",
"130 731 OFFCURVE",
"56 712 OFFCURVE",
"21 675 CURVE",
"90 586 LINE",
"118 612 OFFCURVE",
"148 630 OFFCURVE",
"200 630 CURVE SMOOTH",
"224 630 OFFCURVE",
"267 626 OFFCURVE",
"267 604 CURVE SMOOTH",
"267 574 OFFCURVE",
"210 564 OFFCURVE",
"133 564 CURVE SMOOTH",
"109 564 LINE",
"109 465 LINE",
"134 465 LINE SMOOTH",
"227 465 OFFCURVE",
"282 455 OFFCURVE",
"282 424 CURVE SMOOTH",
"282 398 OFFCURVE",
"240 389 OFFCURVE",
"192 389 CURVE SMOOTH",
"138 389 OFFCURVE",
"106 410 OFFCURVE",
"80 434 CURVE",
"23 350 LINE",
"49 301 OFFCURVE",
"111 279 OFFCURVE",
"194 279 CURVE SMOOTH"
);
}
);
width = 422;
}
);
},
{
glyphname = four.numerator;
layers = (
{
layerId = "5C573416-F98A-4FCE-B5D6-0256B247F272";
name = Bold;
paths = (
{
closed = 1;
nodes = (
"342 291 LINE",
"342 374 LINE",
"406 374 LINE",
"406 481 LINE",
"342 481 LINE",
"342 731 LINE",
"268 731 LINE",
"19 481 LINE",
"19 374 LINE",
"234 374 LINE",
"234 291 LINE"
);
},
{
closed = 1;
nodes = (
"238 602 LINE",
"238 481 LINE",
"120 481 LINE"
);
}
);
width = 431;
}
);
},
{
glyphname = five.numerator;
layers = (
{
layerId = "5C573416-F98A-4FCE-B5D6-0256B247F272";
name = Bold;
paths = (
{
closed = 1;
nodes = (
"183 579 OFFCURVE",
"164 573 OFFCURVE",
"155 571 CURVE",
"172 622 LINE",
"352 622 LINE",
"352 731 LINE",
"94 731 LINE",
"78 638 OFFCURVE",
"50 548 OFFCURVE",
"33 456 CURVE",
"127 456 LINE",
"140 481 OFFCURVE",
"178 499 OFFCURVE",
"208 499 CURVE SMOOTH",
"237 499 OFFCURVE",
"277 483 OFFCURVE",
"277 442 CURVE SMOOTH",
"277 402 OFFCURVE",
"241 389 OFFCURVE",
"197 389 CURVE SMOOTH",
"149 389 OFFCURVE",
"109 404 OFFCURVE",
"81 429 CURVE",
"19 353 LINE",
"52 310 OFFCURVE",
"117 284 OFFCURVE",
"190 284 CURVE SMOOTH",
"306 284 OFFCURVE",
"388 347 OFFCURVE",
"388 436 CURVE SMOOTH",
"388 520 OFFCURVE",
"314 579 OFFCURVE",
"215 579 CURVE SMOOTH"
);
}
);
width = 411;
}
);
},
{
glyphname = six.numerator;
layers = (
{
layerId = "5C573416-F98A-4FCE-B5D6-0256B247F272";
name = Bold;
paths = (
{
closed = 1;
nodes = (
"416 517 OFFCURVE",
"340 579 OFFCURVE",
"227 579 CURVE SMOOTH",
"195 579 OFFCURVE",
"151 574 OFFCURVE",
"129 560 CURVE",
"131 602 OFFCURVE",
"171 626 OFFCURVE",
"232 626 CURVE SMOOTH",
"273 626 OFFCURVE",
"312 615 OFFCURVE",
"335 594 CURVE",
"397 671 LINE",
"357 710 OFFCURVE",
"299 730 OFFCURVE",
"237 730 CURVE SMOOTH",
"108 730 OFFCURVE",
"29 642 OFFCURVE",
"29 498 CURVE SMOOTH",
"29 359 OFFCURVE",
"102 280 OFFCURVE",
"222 280 CURVE SMOOTH",
"333 280 OFFCURVE",
"416 348 OFFCURVE",
"416 434 CURVE SMOOTH"
);
},
{
closed = 1;
nodes = (
"176 380 OFFCURVE",
"134 405 OFFCURVE",
"134 434 CURVE SMOOTH",
"134 463 OFFCURVE",
"174 485 OFFCURVE",
"224 485 CURVE SMOOTH",
"273 485 OFFCURVE",
"313 463 OFFCURVE",
"313 434 CURVE SMOOTH",
"313 405 OFFCURVE",
"272 380 OFFCURVE",
"224 380 CURVE SMOOTH"
);
}
);
width = 441;
}
);
},
{
glyphname = seven.numerator;
layers = (
{
layerId = "5C573416-F98A-4FCE-B5D6-0256B247F272";
name = Bold;
paths = (
{
closed = 1;
nodes = (
"41 291 LINE",
"164 291 LINE",
"423 731 LINE",
"23 731 LINE",
"23 622 LINE",
"253 622 LINE"
);
}
);
width = 418;
}
);
},
{
glyphname = eight.numerator;
layers = (
{
layerId = "5C573416-F98A-4FCE-B5D6-0256B247F272";
name = Bold;
paths = (
{
closed = 1;
nodes = (
"412 472 OFFCURVE",
"379 502 OFFCURVE",
"333 525 CURVE",
"369 541 OFFCURVE",
"396 568 OFFCURVE",
"396 607 CURVE SMOOTH",
"396 679 OFFCURVE",
"302 730 OFFCURVE",
"219 730 CURVE SMOOTH",
"136 730 OFFCURVE",
"44 678 OFFCURVE",
"44 605 CURVE SMOOTH",
"44 564 OFFCURVE",
"73 539 OFFCURVE",
"106 525 CURVE",
"63 503 OFFCURVE",
"27 477 OFFCURVE",
"27 425 CURVE SMOOTH",
"27 344 OFFCURVE",
"115 284 OFFCURVE",
"220 284 CURVE SMOOTH",
"324 284 OFFCURVE",
"412 343 OFFCURVE",
"412 423 CURVE SMOOTH"
);
},
{
closed = 1;
nodes = (
"302 411 OFFCURVE",
"263 393 OFFCURVE",
"220 393 CURVE SMOOTH",
"179 393 OFFCURVE",
"137 410 OFFCURVE",
"137 435 CURVE SMOOTH",
"137 459 OFFCURVE",
"174 476 OFFCURVE",
"219 476 CURVE SMOOTH",
"262 476 OFFCURVE",
"302 460 OFFCURVE",
"302 435 CURVE SMOOTH"
);
},
{
closed = 1;
nodes = (
"152 613 OFFCURVE",
"183 625 OFFCURVE",
"219 625 CURVE SMOOTH",
"255 625 OFFCURVE",
"287 613 OFFCURVE",
"287 595 CURVE SMOOTH",
"287 576 OFFCURVE",
"251 565 OFFCURVE",
"219 565 CURVE SMOOTH",
"187 565 OFFCURVE",
"152 576 OFFCURVE",
"152 595 CURVE SMOOTH"
);
}
);
width = 439;
}
);
},
{
glyphname = nine.numerator;
layers = (
{
layerId = "5C573416-F98A-4FCE-B5D6-0256B247F272";
name = Bold;
paths = (
{
closed = 1;
nodes = (
"25 492 OFFCURVE",
"102 430 OFFCURVE",
"213 430 CURVE SMOOTH",
"247 430 OFFCURVE",
"291 436 OFFCURVE",
"312 450 CURVE",
"310 408 OFFCURVE",
"270 383 OFFCURVE",
"209 383 CURVE SMOOTH",
"168 383 OFFCURVE",
"129 395 OFFCURVE",
"106 416 CURVE",
"44 339 LINE",
"84 300 OFFCURVE",
"142 280 OFFCURVE",
"205 280 CURVE SMOOTH",
"334 280 OFFCURVE",
"412 368 OFFCURVE",
"412 511 CURVE SMOOTH",
"412 650 OFFCURVE",
"339 730 OFFCURVE",
"219 730 CURVE SMOOTH",
"108 730 OFFCURVE",
"25 662 OFFCURVE",
"25 575 CURVE SMOOTH"
);
},
{
closed = 1;
nodes = (
"266 630 OFFCURVE",
"307 604 OFFCURVE",
"307 575 CURVE SMOOTH",
"307 547 OFFCURVE",
"267 525 OFFCURVE",
"218 525 CURVE SMOOTH",
"169 525 OFFCURVE",
"129 547 OFFCURVE",
"129 575 CURVE SMOOTH",
"129 604 OFFCURVE",
"169 630 OFFCURVE",
"217 630 CURVE SMOOTH"
);
}
);
width = 441;
}
);
},
{
glyphname = zero.denominator;
layers = (
{
layerId = "5C573416-F98A-4FCE-B5D6-0256B247F272";
name = Bold;
paths = (
{
closed = 1;
nodes = (
"398 -6 OFFCURVE",
"485 110 OFFCURVE",
"485 217 CURVE SMOOTH",
"485 313 OFFCURVE",
"407 440 OFFCURVE",
"256 440 CURVE SMOOTH",
"114 440 OFFCURVE",
"26 323 OFFCURVE",
"26 217 CURVE SMOOTH",
"26 118 OFFCURVE",
"104 -6 OFFCURVE",
"256 -6 CURVE SMOOTH"
);
},
{
closed = 1;
nodes = (
"138 265 OFFCURVE",
"172 331 OFFCURVE",
"256 331 CURVE SMOOTH",
"334 331 OFFCURVE",
"373 270 OFFCURVE",
"373 217 CURVE SMOOTH",
"373 169 OFFCURVE",
"339 103 OFFCURVE",
"256 103 CURVE SMOOTH",
"175 103 OFFCURVE",
"138 164 OFFCURVE",
"138 217 CURVE SMOOTH"
);
}
);
width = 511;
}
);
},
{
color = 4;
glyphname = one.denominator;
lastChange = "2014-12-09 14:05:05 +0000";
layers = (
{
layerId = "5C573416-F98A-4FCE-B5D6-0256B247F272";
name = Bold;
paths = (
{
closed = 1;
nodes = (
"260 0 LINE",
"260 443 LINE",
"150 443 LINE",
"33 372 LINE",
"81 288 LINE",
"150 328 LINE",
"150 0 LINE"
);
}
);
width = 370;
}
);
},
{
glyphname = two.denominator;
layers = (
{
layerId = "5C573416-F98A-4FCE-B5D6-0256B247F272";
name = Bold;
paths = (
{
closed = 1;
nodes = (
"413 0 LINE",
"413 107 LINE",
"207 107 LINE",
"207 133 OFFCURVE",
"239 146 OFFCURVE",
"287 159 CURVE SMOOTH",
"338 173 OFFCURVE",
"412 210 OFFCURVE",
"412 300 CURVE SMOOTH",
"412 396 OFFCURVE",
"347 445 OFFCURVE",
"233 445 CURVE SMOOTH",
"131 445 OFFCURVE",
"57 413 OFFCURVE",
"28 375 CURVE",
"96 295 LINE",
"122 318 OFFCURVE",
"165 339 OFFCURVE",
"216 339 CURVE SMOOTH",
"260 339 OFFCURVE",
"288 331 OFFCURVE",
"288 301 CURVE SMOOTH",
"288 257 OFFCURVE",
"224 237 OFFCURVE",
"161 210 CURVE SMOOTH",
"53 165 OFFCURVE",
"26 114 OFFCURVE",
"26 0 CURVE"
);
}
);
width = 448;
}
);
},
{
glyphname = three.denominator;
layers = (
{
layerId = "5C573416-F98A-4FCE-B5D6-0256B247F272";
name = Bold;
paths = (
{
closed = 1;
nodes = (
"292 -6 OFFCURVE",
"393 29 OFFCURVE",
"393 122 CURVE SMOOTH",
"393 178 OFFCURVE",
"352 227 OFFCURVE",
"285 236 CURVE",
"345 245 OFFCURVE",
"383 278 OFFCURVE",
"383 326 CURVE SMOOTH",
"383 394 OFFCURVE",
"304 446 OFFCURVE",
"199 446 CURVE SMOOTH",
"130 446 OFFCURVE",
"56 427 OFFCURVE",
"21 390 CURVE",
"90 301 LINE",
"118 327 OFFCURVE",
"148 345 OFFCURVE",
"200 345 CURVE SMOOTH",
"224 345 OFFCURVE",
"267 341 OFFCURVE",
"267 319 CURVE SMOOTH",
"267 289 OFFCURVE",
"210 279 OFFCURVE",
"133 279 CURVE SMOOTH",
"109 279 LINE",
"109 180 LINE",
"134 180 LINE SMOOTH",
"227 180 OFFCURVE",
"282 170 OFFCURVE",
"282 139 CURVE SMOOTH",
"282 113 OFFCURVE",
"240 104 OFFCURVE",
"192 104 CURVE SMOOTH",
"138 104 OFFCURVE",
"106 125 OFFCURVE",
"80 149 CURVE",
"23 65 LINE",
"49 16 OFFCURVE",
"111 -6 OFFCURVE",
"194 -6 CURVE SMOOTH"
);
}
);
width = 422;
}
);
},
{
glyphname = four.denominator;
layers = (
{
layerId = "5C573416-F98A-4FCE-B5D6-0256B247F272";
name = Bold;
paths = (
{
closed = 1;
nodes = (
"342 1 LINE",
"342 84 LINE",
"406 84 LINE",
"406 191 LINE",
"342 191 LINE",
"342 441 LINE",
"268 441 LINE",
"19 191 LINE",
"19 84 LINE",
"234 84 LINE",
"234 1 LINE"
);
},
{
closed = 1;
nodes = (
"238 312 LINE",
"238 191 LINE",
"120 191 LINE"
);
}
);
width = 431;
}
);
},
